%TF.GenerationSoftware,KiCad,Pcbnew,8.0.7*%
%TF.CreationDate,2025-02-23T01:29:40-05:00*%
%TF.ProjectId,switched_reg,73776974-6368-4656-945f-7265672e6b69,rev?*%
%TF.SameCoordinates,Original*%
%TF.FileFunction,Drillmap*%
%TF.FilePolarity,Positive*%
%FSLAX45Y45*%
G04 Gerber Fmt 4.5, Leading zero omitted, Abs format (unit mm)*
G04 Created by KiCad (PCBNEW 8.0.7) date 2025-02-23 01:29:40*
%MOMM*%
%LPD*%
G01*
G04 APERTURE LIST*
%ADD10C,0.050000*%
%ADD11C,0.200000*%
%ADD12C,0.100000*%
G04 APERTURE END LIST*
D10*
X16782360Y-7279000D02*
X20982360Y-7279000D01*
X16782360Y-9779000D02*
X16782360Y-7279000D01*
X16782360Y-9779000D02*
X20982360Y-9779000D01*
X20982360Y-9779000D02*
X20982360Y-7279000D01*
D11*
D12*
X18029500Y-7674000D02*
X18059500Y-7704000D01*
X18059500Y-7674000D02*
X18029500Y-7704000D01*
X18323800Y-9058420D02*
X18353800Y-9088420D01*
X18353800Y-9058420D02*
X18323800Y-9088420D01*
X18323800Y-9651810D02*
X18353800Y-9681810D01*
X18353800Y-9651810D02*
X18323800Y-9681810D01*
X18664040Y-8201060D02*
X18694040Y-8231060D01*
X18694040Y-8201060D02*
X18664040Y-8231060D01*
X18709200Y-7705130D02*
X18739200Y-7735130D01*
X18739200Y-7705130D02*
X18709200Y-7735130D01*
X18797160Y-7770900D02*
X18827160Y-7800900D01*
X18827160Y-7770900D02*
X18797160Y-7800900D01*
X18891700Y-7643930D02*
X18921700Y-7673930D01*
X18921700Y-7643930D02*
X18891700Y-7673930D01*
X18919620Y-9464280D02*
X18949620Y-9494280D01*
X18949620Y-9464280D02*
X18919620Y-9494280D01*
X19092020Y-7930320D02*
X19122020Y-7960320D01*
X19122020Y-7930320D02*
X19092020Y-7960320D01*
X19366340Y-7874240D02*
X19396340Y-7904240D01*
X19396340Y-7874240D02*
X19366340Y-7904240D01*
X19430130Y-9675450D02*
X19460130Y-9705450D01*
X19460130Y-9675450D02*
X19430130Y-9705450D01*
X19611580Y-7683740D02*
X19641580Y-7713740D01*
X19641580Y-7683740D02*
X19611580Y-7713740D01*
X19682950Y-7903930D02*
X19712950Y-7933930D01*
X19712950Y-7903930D02*
X19682950Y-7933930D01*
X19788980Y-8772460D02*
X19818980Y-8802460D01*
X19818980Y-8772460D02*
X19788980Y-8802460D01*
X19794130Y-9464280D02*
X19824130Y-9494280D01*
X19824130Y-9464280D02*
X19794130Y-9494280D01*
X19889320Y-8429760D02*
X19919320Y-8459760D01*
X19919320Y-8429760D02*
X19889320Y-8459760D01*
X19935570Y-7669690D02*
X19965570Y-7699690D01*
X19965570Y-7669690D02*
X19935570Y-7699690D01*
X20525080Y-7605000D02*
X20555080Y-7635000D01*
X20555080Y-7605000D02*
X20525080Y-7635000D01*
X20165760Y-9486900D02*
G75*
G02*
X20065760Y-9486900I-50000J0D01*
G01*
X20065760Y-9486900D02*
G75*
G02*
X20165760Y-9486900I50000J0D01*
G01*
X20278560Y-8338820D02*
G75*
G02*
X20178560Y-8338820I-50000J0D01*
G01*
X20178560Y-8338820D02*
G75*
G02*
X20278560Y-8338820I50000J0D01*
G01*
X20278560Y-8592820D02*
G75*
G02*
X20178560Y-8592820I-50000J0D01*
G01*
X20178560Y-8592820D02*
G75*
G02*
X20278560Y-8592820I50000J0D01*
G01*
X20278560Y-8846820D02*
G75*
G02*
X20178560Y-8846820I-50000J0D01*
G01*
X20178560Y-8846820D02*
G75*
G02*
X20278560Y-8846820I50000J0D01*
G01*
X20419760Y-9486900D02*
G75*
G02*
X20319760Y-9486900I-50000J0D01*
G01*
X20319760Y-9486900D02*
G75*
G02*
X20419760Y-9486900I50000J0D01*
G01*
X20673760Y-9486900D02*
G75*
G02*
X20573760Y-9486900I-50000J0D01*
G01*
X20573760Y-9486900D02*
G75*
G02*
X20673760Y-9486900I50000J0D01*
G01*
D11*
X17040637Y-10092984D02*
X17040637Y-9892984D01*
X17040637Y-9892984D02*
X17088256Y-9892984D01*
X17088256Y-9892984D02*
X17116827Y-9902508D01*
X17116827Y-9902508D02*
X17135875Y-9921555D01*
X17135875Y-9921555D02*
X17145399Y-9940603D01*
X17145399Y-9940603D02*
X17154923Y-9978698D01*
X17154923Y-9978698D02*
X17154923Y-10007270D01*
X17154923Y-10007270D02*
X17145399Y-10045365D01*
X17145399Y-10045365D02*
X17135875Y-10064412D01*
X17135875Y-10064412D02*
X17116827Y-10083460D01*
X17116827Y-10083460D02*
X17088256Y-10092984D01*
X17088256Y-10092984D02*
X17040637Y-10092984D01*
X17240637Y-10092984D02*
X17240637Y-9959650D01*
X17240637Y-9997746D02*
X17250161Y-9978698D01*
X17250161Y-9978698D02*
X17259684Y-9969174D01*
X17259684Y-9969174D02*
X17278732Y-9959650D01*
X17278732Y-9959650D02*
X17297780Y-9959650D01*
X17364446Y-10092984D02*
X17364446Y-9959650D01*
X17364446Y-9892984D02*
X17354923Y-9902508D01*
X17354923Y-9902508D02*
X17364446Y-9912031D01*
X17364446Y-9912031D02*
X17373970Y-9902508D01*
X17373970Y-9902508D02*
X17364446Y-9892984D01*
X17364446Y-9892984D02*
X17364446Y-9912031D01*
X17488256Y-10092984D02*
X17469208Y-10083460D01*
X17469208Y-10083460D02*
X17459684Y-10064412D01*
X17459684Y-10064412D02*
X17459684Y-9892984D01*
X17593018Y-10092984D02*
X17573970Y-10083460D01*
X17573970Y-10083460D02*
X17564446Y-10064412D01*
X17564446Y-10064412D02*
X17564446Y-9892984D01*
X17821589Y-10092984D02*
X17821589Y-9892984D01*
X17821589Y-9892984D02*
X17888256Y-10035841D01*
X17888256Y-10035841D02*
X17954923Y-9892984D01*
X17954923Y-9892984D02*
X17954923Y-10092984D01*
X18135875Y-10092984D02*
X18135875Y-9988222D01*
X18135875Y-9988222D02*
X18126351Y-9969174D01*
X18126351Y-9969174D02*
X18107304Y-9959650D01*
X18107304Y-9959650D02*
X18069208Y-9959650D01*
X18069208Y-9959650D02*
X18050161Y-9969174D01*
X18135875Y-10083460D02*
X18116827Y-10092984D01*
X18116827Y-10092984D02*
X18069208Y-10092984D01*
X18069208Y-10092984D02*
X18050161Y-10083460D01*
X18050161Y-10083460D02*
X18040637Y-10064412D01*
X18040637Y-10064412D02*
X18040637Y-10045365D01*
X18040637Y-10045365D02*
X18050161Y-10026317D01*
X18050161Y-10026317D02*
X18069208Y-10016793D01*
X18069208Y-10016793D02*
X18116827Y-10016793D01*
X18116827Y-10016793D02*
X18135875Y-10007270D01*
X18231113Y-9959650D02*
X18231113Y-10159650D01*
X18231113Y-9969174D02*
X18250161Y-9959650D01*
X18250161Y-9959650D02*
X18288256Y-9959650D01*
X18288256Y-9959650D02*
X18307304Y-9969174D01*
X18307304Y-9969174D02*
X18316827Y-9978698D01*
X18316827Y-9978698D02*
X18326351Y-9997746D01*
X18326351Y-9997746D02*
X18326351Y-10054889D01*
X18326351Y-10054889D02*
X18316827Y-10073936D01*
X18316827Y-10073936D02*
X18307304Y-10083460D01*
X18307304Y-10083460D02*
X18288256Y-10092984D01*
X18288256Y-10092984D02*
X18250161Y-10092984D01*
X18250161Y-10092984D02*
X18231113Y-10083460D01*
X18412065Y-10073936D02*
X18421589Y-10083460D01*
X18421589Y-10083460D02*
X18412065Y-10092984D01*
X18412065Y-10092984D02*
X18402542Y-10083460D01*
X18402542Y-10083460D02*
X18412065Y-10073936D01*
X18412065Y-10073936D02*
X18412065Y-10092984D01*
X18412065Y-9969174D02*
X18421589Y-9978698D01*
X18421589Y-9978698D02*
X18412065Y-9988222D01*
X18412065Y-9988222D02*
X18402542Y-9978698D01*
X18402542Y-9978698D02*
X18412065Y-9969174D01*
X18412065Y-9969174D02*
X18412065Y-9988222D01*
D12*
X16749860Y-10406500D02*
X16779860Y-10436500D01*
X16779860Y-10406500D02*
X16749860Y-10436500D01*
D11*
X17078732Y-10312984D02*
X17097780Y-10312984D01*
X17097780Y-10312984D02*
X17116827Y-10322508D01*
X17116827Y-10322508D02*
X17126351Y-10332031D01*
X17126351Y-10332031D02*
X17135875Y-10351079D01*
X17135875Y-10351079D02*
X17145399Y-10389174D01*
X17145399Y-10389174D02*
X17145399Y-10436793D01*
X17145399Y-10436793D02*
X17135875Y-10474889D01*
X17135875Y-10474889D02*
X17126351Y-10493936D01*
X17126351Y-10493936D02*
X17116827Y-10503460D01*
X17116827Y-10503460D02*
X17097780Y-10512984D01*
X17097780Y-10512984D02*
X17078732Y-10512984D01*
X17078732Y-10512984D02*
X17059684Y-10503460D01*
X17059684Y-10503460D02*
X17050161Y-10493936D01*
X17050161Y-10493936D02*
X17040637Y-10474889D01*
X17040637Y-10474889D02*
X17031113Y-10436793D01*
X17031113Y-10436793D02*
X17031113Y-10389174D01*
X17031113Y-10389174D02*
X17040637Y-10351079D01*
X17040637Y-10351079D02*
X17050161Y-10332031D01*
X17050161Y-10332031D02*
X17059684Y-10322508D01*
X17059684Y-10322508D02*
X17078732Y-10312984D01*
X17231113Y-10493936D02*
X17240637Y-10503460D01*
X17240637Y-10503460D02*
X17231113Y-10512984D01*
X17231113Y-10512984D02*
X17221589Y-10503460D01*
X17221589Y-10503460D02*
X17231113Y-10493936D01*
X17231113Y-10493936D02*
X17231113Y-10512984D01*
X17307304Y-10312984D02*
X17431113Y-10312984D01*
X17431113Y-10312984D02*
X17364446Y-10389174D01*
X17364446Y-10389174D02*
X17393018Y-10389174D01*
X17393018Y-10389174D02*
X17412065Y-10398698D01*
X17412065Y-10398698D02*
X17421589Y-10408222D01*
X17421589Y-10408222D02*
X17431113Y-10427270D01*
X17431113Y-10427270D02*
X17431113Y-10474889D01*
X17431113Y-10474889D02*
X17421589Y-10493936D01*
X17421589Y-10493936D02*
X17412065Y-10503460D01*
X17412065Y-10503460D02*
X17393018Y-10512984D01*
X17393018Y-10512984D02*
X17335875Y-10512984D01*
X17335875Y-10512984D02*
X17316827Y-10503460D01*
X17316827Y-10503460D02*
X17307304Y-10493936D01*
X17554923Y-10312984D02*
X17573970Y-10312984D01*
X17573970Y-10312984D02*
X17593018Y-10322508D01*
X17593018Y-10322508D02*
X17602542Y-10332031D01*
X17602542Y-10332031D02*
X17612065Y-10351079D01*
X17612065Y-10351079D02*
X17621589Y-10389174D01*
X17621589Y-10389174D02*
X17621589Y-10436793D01*
X17621589Y-10436793D02*
X17612065Y-10474889D01*
X17612065Y-10474889D02*
X17602542Y-10493936D01*
X17602542Y-10493936D02*
X17593018Y-10503460D01*
X17593018Y-10503460D02*
X17573970Y-10512984D01*
X17573970Y-10512984D02*
X17554923Y-10512984D01*
X17554923Y-10512984D02*
X17535875Y-10503460D01*
X17535875Y-10503460D02*
X17526351Y-10493936D01*
X17526351Y-10493936D02*
X17516827Y-10474889D01*
X17516827Y-10474889D02*
X17507304Y-10436793D01*
X17507304Y-10436793D02*
X17507304Y-10389174D01*
X17507304Y-10389174D02*
X17516827Y-10351079D01*
X17516827Y-10351079D02*
X17526351Y-10332031D01*
X17526351Y-10332031D02*
X17535875Y-10322508D01*
X17535875Y-10322508D02*
X17554923Y-10312984D01*
X17745399Y-10312984D02*
X17764446Y-10312984D01*
X17764446Y-10312984D02*
X17783494Y-10322508D01*
X17783494Y-10322508D02*
X17793018Y-10332031D01*
X17793018Y-10332031D02*
X17802542Y-10351079D01*
X17802542Y-10351079D02*
X17812065Y-10389174D01*
X17812065Y-10389174D02*
X17812065Y-10436793D01*
X17812065Y-10436793D02*
X17802542Y-10474889D01*
X17802542Y-10474889D02*
X17793018Y-10493936D01*
X17793018Y-10493936D02*
X17783494Y-10503460D01*
X17783494Y-10503460D02*
X17764446Y-10512984D01*
X17764446Y-10512984D02*
X17745399Y-10512984D01*
X17745399Y-10512984D02*
X17726351Y-10503460D01*
X17726351Y-10503460D02*
X17716827Y-10493936D01*
X17716827Y-10493936D02*
X17707304Y-10474889D01*
X17707304Y-10474889D02*
X17697780Y-10436793D01*
X17697780Y-10436793D02*
X17697780Y-10389174D01*
X17697780Y-10389174D02*
X17707304Y-10351079D01*
X17707304Y-10351079D02*
X17716827Y-10332031D01*
X17716827Y-10332031D02*
X17726351Y-10322508D01*
X17726351Y-10322508D02*
X17745399Y-10312984D01*
X17897780Y-10512984D02*
X17897780Y-10379650D01*
X17897780Y-10398698D02*
X17907304Y-10389174D01*
X17907304Y-10389174D02*
X17926351Y-10379650D01*
X17926351Y-10379650D02*
X17954923Y-10379650D01*
X17954923Y-10379650D02*
X17973970Y-10389174D01*
X17973970Y-10389174D02*
X17983494Y-10408222D01*
X17983494Y-10408222D02*
X17983494Y-10512984D01*
X17983494Y-10408222D02*
X17993018Y-10389174D01*
X17993018Y-10389174D02*
X18012065Y-10379650D01*
X18012065Y-10379650D02*
X18040637Y-10379650D01*
X18040637Y-10379650D02*
X18059685Y-10389174D01*
X18059685Y-10389174D02*
X18069208Y-10408222D01*
X18069208Y-10408222D02*
X18069208Y-10512984D01*
X18164446Y-10512984D02*
X18164446Y-10379650D01*
X18164446Y-10398698D02*
X18173970Y-10389174D01*
X18173970Y-10389174D02*
X18193018Y-10379650D01*
X18193018Y-10379650D02*
X18221589Y-10379650D01*
X18221589Y-10379650D02*
X18240637Y-10389174D01*
X18240637Y-10389174D02*
X18250161Y-10408222D01*
X18250161Y-10408222D02*
X18250161Y-10512984D01*
X18250161Y-10408222D02*
X18259685Y-10389174D01*
X18259685Y-10389174D02*
X18278732Y-10379650D01*
X18278732Y-10379650D02*
X18307304Y-10379650D01*
X18307304Y-10379650D02*
X18326351Y-10389174D01*
X18326351Y-10389174D02*
X18335875Y-10408222D01*
X18335875Y-10408222D02*
X18335875Y-10512984D01*
X18726351Y-10303460D02*
X18554923Y-10560603D01*
X18983494Y-10312984D02*
X19002542Y-10312984D01*
X19002542Y-10312984D02*
X19021589Y-10322508D01*
X19021589Y-10322508D02*
X19031113Y-10332031D01*
X19031113Y-10332031D02*
X19040637Y-10351079D01*
X19040637Y-10351079D02*
X19050161Y-10389174D01*
X19050161Y-10389174D02*
X19050161Y-10436793D01*
X19050161Y-10436793D02*
X19040637Y-10474889D01*
X19040637Y-10474889D02*
X19031113Y-10493936D01*
X19031113Y-10493936D02*
X19021589Y-10503460D01*
X19021589Y-10503460D02*
X19002542Y-10512984D01*
X19002542Y-10512984D02*
X18983494Y-10512984D01*
X18983494Y-10512984D02*
X18964447Y-10503460D01*
X18964447Y-10503460D02*
X18954923Y-10493936D01*
X18954923Y-10493936D02*
X18945399Y-10474889D01*
X18945399Y-10474889D02*
X18935875Y-10436793D01*
X18935875Y-10436793D02*
X18935875Y-10389174D01*
X18935875Y-10389174D02*
X18945399Y-10351079D01*
X18945399Y-10351079D02*
X18954923Y-10332031D01*
X18954923Y-10332031D02*
X18964447Y-10322508D01*
X18964447Y-10322508D02*
X18983494Y-10312984D01*
X19135875Y-10493936D02*
X19145399Y-10503460D01*
X19145399Y-10503460D02*
X19135875Y-10512984D01*
X19135875Y-10512984D02*
X19126351Y-10503460D01*
X19126351Y-10503460D02*
X19135875Y-10493936D01*
X19135875Y-10493936D02*
X19135875Y-10512984D01*
X19269208Y-10312984D02*
X19288256Y-10312984D01*
X19288256Y-10312984D02*
X19307304Y-10322508D01*
X19307304Y-10322508D02*
X19316828Y-10332031D01*
X19316828Y-10332031D02*
X19326351Y-10351079D01*
X19326351Y-10351079D02*
X19335875Y-10389174D01*
X19335875Y-10389174D02*
X19335875Y-10436793D01*
X19335875Y-10436793D02*
X19326351Y-10474889D01*
X19326351Y-10474889D02*
X19316828Y-10493936D01*
X19316828Y-10493936D02*
X19307304Y-10503460D01*
X19307304Y-10503460D02*
X19288256Y-10512984D01*
X19288256Y-10512984D02*
X19269208Y-10512984D01*
X19269208Y-10512984D02*
X19250161Y-10503460D01*
X19250161Y-10503460D02*
X19240637Y-10493936D01*
X19240637Y-10493936D02*
X19231113Y-10474889D01*
X19231113Y-10474889D02*
X19221589Y-10436793D01*
X19221589Y-10436793D02*
X19221589Y-10389174D01*
X19221589Y-10389174D02*
X19231113Y-10351079D01*
X19231113Y-10351079D02*
X19240637Y-10332031D01*
X19240637Y-10332031D02*
X19250161Y-10322508D01*
X19250161Y-10322508D02*
X19269208Y-10312984D01*
X19526351Y-10512984D02*
X19412066Y-10512984D01*
X19469208Y-10512984D02*
X19469208Y-10312984D01*
X19469208Y-10312984D02*
X19450161Y-10341555D01*
X19450161Y-10341555D02*
X19431113Y-10360603D01*
X19431113Y-10360603D02*
X19412066Y-10370127D01*
X19716828Y-10512984D02*
X19602542Y-10512984D01*
X19659685Y-10512984D02*
X19659685Y-10312984D01*
X19659685Y-10312984D02*
X19640637Y-10341555D01*
X19640637Y-10341555D02*
X19621589Y-10360603D01*
X19621589Y-10360603D02*
X19602542Y-10370127D01*
X19831113Y-10398698D02*
X19812066Y-10389174D01*
X19812066Y-10389174D02*
X19802542Y-10379650D01*
X19802542Y-10379650D02*
X19793018Y-10360603D01*
X19793018Y-10360603D02*
X19793018Y-10351079D01*
X19793018Y-10351079D02*
X19802542Y-10332031D01*
X19802542Y-10332031D02*
X19812066Y-10322508D01*
X19812066Y-10322508D02*
X19831113Y-10312984D01*
X19831113Y-10312984D02*
X19869209Y-10312984D01*
X19869209Y-10312984D02*
X19888256Y-10322508D01*
X19888256Y-10322508D02*
X19897780Y-10332031D01*
X19897780Y-10332031D02*
X19907304Y-10351079D01*
X19907304Y-10351079D02*
X19907304Y-10360603D01*
X19907304Y-10360603D02*
X19897780Y-10379650D01*
X19897780Y-10379650D02*
X19888256Y-10389174D01*
X19888256Y-10389174D02*
X19869209Y-10398698D01*
X19869209Y-10398698D02*
X19831113Y-10398698D01*
X19831113Y-10398698D02*
X19812066Y-10408222D01*
X19812066Y-10408222D02*
X19802542Y-10417746D01*
X19802542Y-10417746D02*
X19793018Y-10436793D01*
X19793018Y-10436793D02*
X19793018Y-10474889D01*
X19793018Y-10474889D02*
X19802542Y-10493936D01*
X19802542Y-10493936D02*
X19812066Y-10503460D01*
X19812066Y-10503460D02*
X19831113Y-10512984D01*
X19831113Y-10512984D02*
X19869209Y-10512984D01*
X19869209Y-10512984D02*
X19888256Y-10503460D01*
X19888256Y-10503460D02*
X19897780Y-10493936D01*
X19897780Y-10493936D02*
X19907304Y-10474889D01*
X19907304Y-10474889D02*
X19907304Y-10436793D01*
X19907304Y-10436793D02*
X19897780Y-10417746D01*
X19897780Y-10417746D02*
X19888256Y-10408222D01*
X19888256Y-10408222D02*
X19869209Y-10398698D01*
X19983494Y-10312984D02*
X19983494Y-10351079D01*
X20059685Y-10312984D02*
X20059685Y-10351079D01*
X20354923Y-10589174D02*
X20345399Y-10579650D01*
X20345399Y-10579650D02*
X20326351Y-10551079D01*
X20326351Y-10551079D02*
X20316828Y-10532031D01*
X20316828Y-10532031D02*
X20307304Y-10503460D01*
X20307304Y-10503460D02*
X20297780Y-10455841D01*
X20297780Y-10455841D02*
X20297780Y-10417746D01*
X20297780Y-10417746D02*
X20307304Y-10370127D01*
X20307304Y-10370127D02*
X20316828Y-10341555D01*
X20316828Y-10341555D02*
X20326351Y-10322508D01*
X20326351Y-10322508D02*
X20345399Y-10293936D01*
X20345399Y-10293936D02*
X20354923Y-10284412D01*
X20535875Y-10512984D02*
X20421590Y-10512984D01*
X20478732Y-10512984D02*
X20478732Y-10312984D01*
X20478732Y-10312984D02*
X20459685Y-10341555D01*
X20459685Y-10341555D02*
X20440637Y-10360603D01*
X20440637Y-10360603D02*
X20421590Y-10370127D01*
X20650161Y-10398698D02*
X20631113Y-10389174D01*
X20631113Y-10389174D02*
X20621590Y-10379650D01*
X20621590Y-10379650D02*
X20612066Y-10360603D01*
X20612066Y-10360603D02*
X20612066Y-10351079D01*
X20612066Y-10351079D02*
X20621590Y-10332031D01*
X20621590Y-10332031D02*
X20631113Y-10322508D01*
X20631113Y-10322508D02*
X20650161Y-10312984D01*
X20650161Y-10312984D02*
X20688256Y-10312984D01*
X20688256Y-10312984D02*
X20707304Y-10322508D01*
X20707304Y-10322508D02*
X20716828Y-10332031D01*
X20716828Y-10332031D02*
X20726351Y-10351079D01*
X20726351Y-10351079D02*
X20726351Y-10360603D01*
X20726351Y-10360603D02*
X20716828Y-10379650D01*
X20716828Y-10379650D02*
X20707304Y-10389174D01*
X20707304Y-10389174D02*
X20688256Y-10398698D01*
X20688256Y-10398698D02*
X20650161Y-10398698D01*
X20650161Y-10398698D02*
X20631113Y-10408222D01*
X20631113Y-10408222D02*
X20621590Y-10417746D01*
X20621590Y-10417746D02*
X20612066Y-10436793D01*
X20612066Y-10436793D02*
X20612066Y-10474889D01*
X20612066Y-10474889D02*
X20621590Y-10493936D01*
X20621590Y-10493936D02*
X20631113Y-10503460D01*
X20631113Y-10503460D02*
X20650161Y-10512984D01*
X20650161Y-10512984D02*
X20688256Y-10512984D01*
X20688256Y-10512984D02*
X20707304Y-10503460D01*
X20707304Y-10503460D02*
X20716828Y-10493936D01*
X20716828Y-10493936D02*
X20726351Y-10474889D01*
X20726351Y-10474889D02*
X20726351Y-10436793D01*
X20726351Y-10436793D02*
X20716828Y-10417746D01*
X20716828Y-10417746D02*
X20707304Y-10408222D01*
X20707304Y-10408222D02*
X20688256Y-10398698D01*
X20964447Y-10512984D02*
X20964447Y-10312984D01*
X21050161Y-10512984D02*
X21050161Y-10408222D01*
X21050161Y-10408222D02*
X21040637Y-10389174D01*
X21040637Y-10389174D02*
X21021590Y-10379650D01*
X21021590Y-10379650D02*
X20993018Y-10379650D01*
X20993018Y-10379650D02*
X20973971Y-10389174D01*
X20973971Y-10389174D02*
X20964447Y-10398698D01*
X21173971Y-10512984D02*
X21154923Y-10503460D01*
X21154923Y-10503460D02*
X21145399Y-10493936D01*
X21145399Y-10493936D02*
X21135875Y-10474889D01*
X21135875Y-10474889D02*
X21135875Y-10417746D01*
X21135875Y-10417746D02*
X21145399Y-10398698D01*
X21145399Y-10398698D02*
X21154923Y-10389174D01*
X21154923Y-10389174D02*
X21173971Y-10379650D01*
X21173971Y-10379650D02*
X21202542Y-10379650D01*
X21202542Y-10379650D02*
X21221590Y-10389174D01*
X21221590Y-10389174D02*
X21231113Y-10398698D01*
X21231113Y-10398698D02*
X21240637Y-10417746D01*
X21240637Y-10417746D02*
X21240637Y-10474889D01*
X21240637Y-10474889D02*
X21231113Y-10493936D01*
X21231113Y-10493936D02*
X21221590Y-10503460D01*
X21221590Y-10503460D02*
X21202542Y-10512984D01*
X21202542Y-10512984D02*
X21173971Y-10512984D01*
X21354923Y-10512984D02*
X21335875Y-10503460D01*
X21335875Y-10503460D02*
X21326352Y-10484412D01*
X21326352Y-10484412D02*
X21326352Y-10312984D01*
X21507304Y-10503460D02*
X21488256Y-10512984D01*
X21488256Y-10512984D02*
X21450161Y-10512984D01*
X21450161Y-10512984D02*
X21431113Y-10503460D01*
X21431113Y-10503460D02*
X21421590Y-10484412D01*
X21421590Y-10484412D02*
X21421590Y-10408222D01*
X21421590Y-10408222D02*
X21431113Y-10389174D01*
X21431113Y-10389174D02*
X21450161Y-10379650D01*
X21450161Y-10379650D02*
X21488256Y-10379650D01*
X21488256Y-10379650D02*
X21507304Y-10389174D01*
X21507304Y-10389174D02*
X21516828Y-10408222D01*
X21516828Y-10408222D02*
X21516828Y-10427270D01*
X21516828Y-10427270D02*
X21421590Y-10446317D01*
X21593018Y-10503460D02*
X21612066Y-10512984D01*
X21612066Y-10512984D02*
X21650161Y-10512984D01*
X21650161Y-10512984D02*
X21669209Y-10503460D01*
X21669209Y-10503460D02*
X21678733Y-10484412D01*
X21678733Y-10484412D02*
X21678733Y-10474889D01*
X21678733Y-10474889D02*
X21669209Y-10455841D01*
X21669209Y-10455841D02*
X21650161Y-10446317D01*
X21650161Y-10446317D02*
X21621590Y-10446317D01*
X21621590Y-10446317D02*
X21602542Y-10436793D01*
X21602542Y-10436793D02*
X21593018Y-10417746D01*
X21593018Y-10417746D02*
X21593018Y-10408222D01*
X21593018Y-10408222D02*
X21602542Y-10389174D01*
X21602542Y-10389174D02*
X21621590Y-10379650D01*
X21621590Y-10379650D02*
X21650161Y-10379650D01*
X21650161Y-10379650D02*
X21669209Y-10389174D01*
X21745399Y-10589174D02*
X21754923Y-10579650D01*
X21754923Y-10579650D02*
X21773971Y-10551079D01*
X21773971Y-10551079D02*
X21783494Y-10532031D01*
X21783494Y-10532031D02*
X21793018Y-10503460D01*
X21793018Y-10503460D02*
X21802542Y-10455841D01*
X21802542Y-10455841D02*
X21802542Y-10417746D01*
X21802542Y-10417746D02*
X21793018Y-10370127D01*
X21793018Y-10370127D02*
X21783494Y-10341555D01*
X21783494Y-10341555D02*
X21773971Y-10322508D01*
X21773971Y-10322508D02*
X21754923Y-10293936D01*
X21754923Y-10293936D02*
X21745399Y-10284412D01*
D12*
X16779860Y-10685500D02*
G75*
G02*
X16679860Y-10685500I-50000J0D01*
G01*
X16679860Y-10685500D02*
G75*
G02*
X16779860Y-10685500I50000J0D01*
G01*
D11*
X17145399Y-10776984D02*
X17031113Y-10776984D01*
X17088256Y-10776984D02*
X17088256Y-10576984D01*
X17088256Y-10576984D02*
X17069208Y-10605555D01*
X17069208Y-10605555D02*
X17050161Y-10624603D01*
X17050161Y-10624603D02*
X17031113Y-10634127D01*
X17231113Y-10757936D02*
X17240637Y-10767460D01*
X17240637Y-10767460D02*
X17231113Y-10776984D01*
X17231113Y-10776984D02*
X17221589Y-10767460D01*
X17221589Y-10767460D02*
X17231113Y-10757936D01*
X17231113Y-10757936D02*
X17231113Y-10776984D01*
X17364446Y-10576984D02*
X17383494Y-10576984D01*
X17383494Y-10576984D02*
X17402542Y-10586508D01*
X17402542Y-10586508D02*
X17412065Y-10596031D01*
X17412065Y-10596031D02*
X17421589Y-10615079D01*
X17421589Y-10615079D02*
X17431113Y-10653174D01*
X17431113Y-10653174D02*
X17431113Y-10700793D01*
X17431113Y-10700793D02*
X17421589Y-10738889D01*
X17421589Y-10738889D02*
X17412065Y-10757936D01*
X17412065Y-10757936D02*
X17402542Y-10767460D01*
X17402542Y-10767460D02*
X17383494Y-10776984D01*
X17383494Y-10776984D02*
X17364446Y-10776984D01*
X17364446Y-10776984D02*
X17345399Y-10767460D01*
X17345399Y-10767460D02*
X17335875Y-10757936D01*
X17335875Y-10757936D02*
X17326351Y-10738889D01*
X17326351Y-10738889D02*
X17316827Y-10700793D01*
X17316827Y-10700793D02*
X17316827Y-10653174D01*
X17316827Y-10653174D02*
X17326351Y-10615079D01*
X17326351Y-10615079D02*
X17335875Y-10596031D01*
X17335875Y-10596031D02*
X17345399Y-10586508D01*
X17345399Y-10586508D02*
X17364446Y-10576984D01*
X17554923Y-10576984D02*
X17573970Y-10576984D01*
X17573970Y-10576984D02*
X17593018Y-10586508D01*
X17593018Y-10586508D02*
X17602542Y-10596031D01*
X17602542Y-10596031D02*
X17612065Y-10615079D01*
X17612065Y-10615079D02*
X17621589Y-10653174D01*
X17621589Y-10653174D02*
X17621589Y-10700793D01*
X17621589Y-10700793D02*
X17612065Y-10738889D01*
X17612065Y-10738889D02*
X17602542Y-10757936D01*
X17602542Y-10757936D02*
X17593018Y-10767460D01*
X17593018Y-10767460D02*
X17573970Y-10776984D01*
X17573970Y-10776984D02*
X17554923Y-10776984D01*
X17554923Y-10776984D02*
X17535875Y-10767460D01*
X17535875Y-10767460D02*
X17526351Y-10757936D01*
X17526351Y-10757936D02*
X17516827Y-10738889D01*
X17516827Y-10738889D02*
X17507304Y-10700793D01*
X17507304Y-10700793D02*
X17507304Y-10653174D01*
X17507304Y-10653174D02*
X17516827Y-10615079D01*
X17516827Y-10615079D02*
X17526351Y-10596031D01*
X17526351Y-10596031D02*
X17535875Y-10586508D01*
X17535875Y-10586508D02*
X17554923Y-10576984D01*
X17745399Y-10576984D02*
X17764446Y-10576984D01*
X17764446Y-10576984D02*
X17783494Y-10586508D01*
X17783494Y-10586508D02*
X17793018Y-10596031D01*
X17793018Y-10596031D02*
X17802542Y-10615079D01*
X17802542Y-10615079D02*
X17812065Y-10653174D01*
X17812065Y-10653174D02*
X17812065Y-10700793D01*
X17812065Y-10700793D02*
X17802542Y-10738889D01*
X17802542Y-10738889D02*
X17793018Y-10757936D01*
X17793018Y-10757936D02*
X17783494Y-10767460D01*
X17783494Y-10767460D02*
X17764446Y-10776984D01*
X17764446Y-10776984D02*
X17745399Y-10776984D01*
X17745399Y-10776984D02*
X17726351Y-10767460D01*
X17726351Y-10767460D02*
X17716827Y-10757936D01*
X17716827Y-10757936D02*
X17707304Y-10738889D01*
X17707304Y-10738889D02*
X17697780Y-10700793D01*
X17697780Y-10700793D02*
X17697780Y-10653174D01*
X17697780Y-10653174D02*
X17707304Y-10615079D01*
X17707304Y-10615079D02*
X17716827Y-10596031D01*
X17716827Y-10596031D02*
X17726351Y-10586508D01*
X17726351Y-10586508D02*
X17745399Y-10576984D01*
X17897780Y-10776984D02*
X17897780Y-10643650D01*
X17897780Y-10662698D02*
X17907304Y-10653174D01*
X17907304Y-10653174D02*
X17926351Y-10643650D01*
X17926351Y-10643650D02*
X17954923Y-10643650D01*
X17954923Y-10643650D02*
X17973970Y-10653174D01*
X17973970Y-10653174D02*
X17983494Y-10672222D01*
X17983494Y-10672222D02*
X17983494Y-10776984D01*
X17983494Y-10672222D02*
X17993018Y-10653174D01*
X17993018Y-10653174D02*
X18012065Y-10643650D01*
X18012065Y-10643650D02*
X18040637Y-10643650D01*
X18040637Y-10643650D02*
X18059685Y-10653174D01*
X18059685Y-10653174D02*
X18069208Y-10672222D01*
X18069208Y-10672222D02*
X18069208Y-10776984D01*
X18164446Y-10776984D02*
X18164446Y-10643650D01*
X18164446Y-10662698D02*
X18173970Y-10653174D01*
X18173970Y-10653174D02*
X18193018Y-10643650D01*
X18193018Y-10643650D02*
X18221589Y-10643650D01*
X18221589Y-10643650D02*
X18240637Y-10653174D01*
X18240637Y-10653174D02*
X18250161Y-10672222D01*
X18250161Y-10672222D02*
X18250161Y-10776984D01*
X18250161Y-10672222D02*
X18259685Y-10653174D01*
X18259685Y-10653174D02*
X18278732Y-10643650D01*
X18278732Y-10643650D02*
X18307304Y-10643650D01*
X18307304Y-10643650D02*
X18326351Y-10653174D01*
X18326351Y-10653174D02*
X18335875Y-10672222D01*
X18335875Y-10672222D02*
X18335875Y-10776984D01*
X18726351Y-10567460D02*
X18554923Y-10824603D01*
X18983494Y-10576984D02*
X19002542Y-10576984D01*
X19002542Y-10576984D02*
X19021589Y-10586508D01*
X19021589Y-10586508D02*
X19031113Y-10596031D01*
X19031113Y-10596031D02*
X19040637Y-10615079D01*
X19040637Y-10615079D02*
X19050161Y-10653174D01*
X19050161Y-10653174D02*
X19050161Y-10700793D01*
X19050161Y-10700793D02*
X19040637Y-10738889D01*
X19040637Y-10738889D02*
X19031113Y-10757936D01*
X19031113Y-10757936D02*
X19021589Y-10767460D01*
X19021589Y-10767460D02*
X19002542Y-10776984D01*
X19002542Y-10776984D02*
X18983494Y-10776984D01*
X18983494Y-10776984D02*
X18964447Y-10767460D01*
X18964447Y-10767460D02*
X18954923Y-10757936D01*
X18954923Y-10757936D02*
X18945399Y-10738889D01*
X18945399Y-10738889D02*
X18935875Y-10700793D01*
X18935875Y-10700793D02*
X18935875Y-10653174D01*
X18935875Y-10653174D02*
X18945399Y-10615079D01*
X18945399Y-10615079D02*
X18954923Y-10596031D01*
X18954923Y-10596031D02*
X18964447Y-10586508D01*
X18964447Y-10586508D02*
X18983494Y-10576984D01*
X19135875Y-10757936D02*
X19145399Y-10767460D01*
X19145399Y-10767460D02*
X19135875Y-10776984D01*
X19135875Y-10776984D02*
X19126351Y-10767460D01*
X19126351Y-10767460D02*
X19135875Y-10757936D01*
X19135875Y-10757936D02*
X19135875Y-10776984D01*
X19269208Y-10576984D02*
X19288256Y-10576984D01*
X19288256Y-10576984D02*
X19307304Y-10586508D01*
X19307304Y-10586508D02*
X19316828Y-10596031D01*
X19316828Y-10596031D02*
X19326351Y-10615079D01*
X19326351Y-10615079D02*
X19335875Y-10653174D01*
X19335875Y-10653174D02*
X19335875Y-10700793D01*
X19335875Y-10700793D02*
X19326351Y-10738889D01*
X19326351Y-10738889D02*
X19316828Y-10757936D01*
X19316828Y-10757936D02*
X19307304Y-10767460D01*
X19307304Y-10767460D02*
X19288256Y-10776984D01*
X19288256Y-10776984D02*
X19269208Y-10776984D01*
X19269208Y-10776984D02*
X19250161Y-10767460D01*
X19250161Y-10767460D02*
X19240637Y-10757936D01*
X19240637Y-10757936D02*
X19231113Y-10738889D01*
X19231113Y-10738889D02*
X19221589Y-10700793D01*
X19221589Y-10700793D02*
X19221589Y-10653174D01*
X19221589Y-10653174D02*
X19231113Y-10615079D01*
X19231113Y-10615079D02*
X19240637Y-10596031D01*
X19240637Y-10596031D02*
X19250161Y-10586508D01*
X19250161Y-10586508D02*
X19269208Y-10576984D01*
X19402542Y-10576984D02*
X19526351Y-10576984D01*
X19526351Y-10576984D02*
X19459685Y-10653174D01*
X19459685Y-10653174D02*
X19488256Y-10653174D01*
X19488256Y-10653174D02*
X19507304Y-10662698D01*
X19507304Y-10662698D02*
X19516828Y-10672222D01*
X19516828Y-10672222D02*
X19526351Y-10691270D01*
X19526351Y-10691270D02*
X19526351Y-10738889D01*
X19526351Y-10738889D02*
X19516828Y-10757936D01*
X19516828Y-10757936D02*
X19507304Y-10767460D01*
X19507304Y-10767460D02*
X19488256Y-10776984D01*
X19488256Y-10776984D02*
X19431113Y-10776984D01*
X19431113Y-10776984D02*
X19412066Y-10767460D01*
X19412066Y-10767460D02*
X19402542Y-10757936D01*
X19621589Y-10776984D02*
X19659685Y-10776984D01*
X19659685Y-10776984D02*
X19678732Y-10767460D01*
X19678732Y-10767460D02*
X19688256Y-10757936D01*
X19688256Y-10757936D02*
X19707304Y-10729365D01*
X19707304Y-10729365D02*
X19716828Y-10691270D01*
X19716828Y-10691270D02*
X19716828Y-10615079D01*
X19716828Y-10615079D02*
X19707304Y-10596031D01*
X19707304Y-10596031D02*
X19697780Y-10586508D01*
X19697780Y-10586508D02*
X19678732Y-10576984D01*
X19678732Y-10576984D02*
X19640637Y-10576984D01*
X19640637Y-10576984D02*
X19621589Y-10586508D01*
X19621589Y-10586508D02*
X19612066Y-10596031D01*
X19612066Y-10596031D02*
X19602542Y-10615079D01*
X19602542Y-10615079D02*
X19602542Y-10662698D01*
X19602542Y-10662698D02*
X19612066Y-10681746D01*
X19612066Y-10681746D02*
X19621589Y-10691270D01*
X19621589Y-10691270D02*
X19640637Y-10700793D01*
X19640637Y-10700793D02*
X19678732Y-10700793D01*
X19678732Y-10700793D02*
X19697780Y-10691270D01*
X19697780Y-10691270D02*
X19707304Y-10681746D01*
X19707304Y-10681746D02*
X19716828Y-10662698D01*
X19888256Y-10643650D02*
X19888256Y-10776984D01*
X19840637Y-10567460D02*
X19793018Y-10710317D01*
X19793018Y-10710317D02*
X19916828Y-10710317D01*
X19983494Y-10576984D02*
X19983494Y-10615079D01*
X20059685Y-10576984D02*
X20059685Y-10615079D01*
X20354923Y-10853174D02*
X20345399Y-10843650D01*
X20345399Y-10843650D02*
X20326351Y-10815079D01*
X20326351Y-10815079D02*
X20316828Y-10796031D01*
X20316828Y-10796031D02*
X20307304Y-10767460D01*
X20307304Y-10767460D02*
X20297780Y-10719841D01*
X20297780Y-10719841D02*
X20297780Y-10681746D01*
X20297780Y-10681746D02*
X20307304Y-10634127D01*
X20307304Y-10634127D02*
X20316828Y-10605555D01*
X20316828Y-10605555D02*
X20326351Y-10586508D01*
X20326351Y-10586508D02*
X20345399Y-10557936D01*
X20345399Y-10557936D02*
X20354923Y-10548412D01*
X20516828Y-10576984D02*
X20478732Y-10576984D01*
X20478732Y-10576984D02*
X20459685Y-10586508D01*
X20459685Y-10586508D02*
X20450161Y-10596031D01*
X20450161Y-10596031D02*
X20431113Y-10624603D01*
X20431113Y-10624603D02*
X20421590Y-10662698D01*
X20421590Y-10662698D02*
X20421590Y-10738889D01*
X20421590Y-10738889D02*
X20431113Y-10757936D01*
X20431113Y-10757936D02*
X20440637Y-10767460D01*
X20440637Y-10767460D02*
X20459685Y-10776984D01*
X20459685Y-10776984D02*
X20497780Y-10776984D01*
X20497780Y-10776984D02*
X20516828Y-10767460D01*
X20516828Y-10767460D02*
X20526351Y-10757936D01*
X20526351Y-10757936D02*
X20535875Y-10738889D01*
X20535875Y-10738889D02*
X20535875Y-10691270D01*
X20535875Y-10691270D02*
X20526351Y-10672222D01*
X20526351Y-10672222D02*
X20516828Y-10662698D01*
X20516828Y-10662698D02*
X20497780Y-10653174D01*
X20497780Y-10653174D02*
X20459685Y-10653174D01*
X20459685Y-10653174D02*
X20440637Y-10662698D01*
X20440637Y-10662698D02*
X20431113Y-10672222D01*
X20431113Y-10672222D02*
X20421590Y-10691270D01*
X20773971Y-10776984D02*
X20773971Y-10576984D01*
X20859685Y-10776984D02*
X20859685Y-10672222D01*
X20859685Y-10672222D02*
X20850161Y-10653174D01*
X20850161Y-10653174D02*
X20831113Y-10643650D01*
X20831113Y-10643650D02*
X20802542Y-10643650D01*
X20802542Y-10643650D02*
X20783494Y-10653174D01*
X20783494Y-10653174D02*
X20773971Y-10662698D01*
X20983494Y-10776984D02*
X20964447Y-10767460D01*
X20964447Y-10767460D02*
X20954923Y-10757936D01*
X20954923Y-10757936D02*
X20945399Y-10738889D01*
X20945399Y-10738889D02*
X20945399Y-10681746D01*
X20945399Y-10681746D02*
X20954923Y-10662698D01*
X20954923Y-10662698D02*
X20964447Y-10653174D01*
X20964447Y-10653174D02*
X20983494Y-10643650D01*
X20983494Y-10643650D02*
X21012066Y-10643650D01*
X21012066Y-10643650D02*
X21031113Y-10653174D01*
X21031113Y-10653174D02*
X21040637Y-10662698D01*
X21040637Y-10662698D02*
X21050161Y-10681746D01*
X21050161Y-10681746D02*
X21050161Y-10738889D01*
X21050161Y-10738889D02*
X21040637Y-10757936D01*
X21040637Y-10757936D02*
X21031113Y-10767460D01*
X21031113Y-10767460D02*
X21012066Y-10776984D01*
X21012066Y-10776984D02*
X20983494Y-10776984D01*
X21164447Y-10776984D02*
X21145399Y-10767460D01*
X21145399Y-10767460D02*
X21135875Y-10748412D01*
X21135875Y-10748412D02*
X21135875Y-10576984D01*
X21316828Y-10767460D02*
X21297780Y-10776984D01*
X21297780Y-10776984D02*
X21259685Y-10776984D01*
X21259685Y-10776984D02*
X21240637Y-10767460D01*
X21240637Y-10767460D02*
X21231113Y-10748412D01*
X21231113Y-10748412D02*
X21231113Y-10672222D01*
X21231113Y-10672222D02*
X21240637Y-10653174D01*
X21240637Y-10653174D02*
X21259685Y-10643650D01*
X21259685Y-10643650D02*
X21297780Y-10643650D01*
X21297780Y-10643650D02*
X21316828Y-10653174D01*
X21316828Y-10653174D02*
X21326352Y-10672222D01*
X21326352Y-10672222D02*
X21326352Y-10691270D01*
X21326352Y-10691270D02*
X21231113Y-10710317D01*
X21402542Y-10767460D02*
X21421590Y-10776984D01*
X21421590Y-10776984D02*
X21459685Y-10776984D01*
X21459685Y-10776984D02*
X21478733Y-10767460D01*
X21478733Y-10767460D02*
X21488256Y-10748412D01*
X21488256Y-10748412D02*
X21488256Y-10738889D01*
X21488256Y-10738889D02*
X21478733Y-10719841D01*
X21478733Y-10719841D02*
X21459685Y-10710317D01*
X21459685Y-10710317D02*
X21431113Y-10710317D01*
X21431113Y-10710317D02*
X21412066Y-10700793D01*
X21412066Y-10700793D02*
X21402542Y-10681746D01*
X21402542Y-10681746D02*
X21402542Y-10672222D01*
X21402542Y-10672222D02*
X21412066Y-10653174D01*
X21412066Y-10653174D02*
X21431113Y-10643650D01*
X21431113Y-10643650D02*
X21459685Y-10643650D01*
X21459685Y-10643650D02*
X21478733Y-10653174D01*
X21554923Y-10853174D02*
X21564447Y-10843650D01*
X21564447Y-10843650D02*
X21583494Y-10815079D01*
X21583494Y-10815079D02*
X21593018Y-10796031D01*
X21593018Y-10796031D02*
X21602542Y-10767460D01*
X21602542Y-10767460D02*
X21612066Y-10719841D01*
X21612066Y-10719841D02*
X21612066Y-10681746D01*
X21612066Y-10681746D02*
X21602542Y-10634127D01*
X21602542Y-10634127D02*
X21593018Y-10605555D01*
X21593018Y-10605555D02*
X21583494Y-10586508D01*
X21583494Y-10586508D02*
X21564447Y-10557936D01*
X21564447Y-10557936D02*
X21554923Y-10548412D01*
M02*
