G04 #@! TF.GenerationSoftware,KiCad,Pcbnew,8.0.7*
G04 #@! TF.CreationDate,2025-02-23T01:29:40-05:00*
G04 #@! TF.ProjectId,switched_reg,73776974-6368-4656-945f-7265672e6b69,rev?*
G04 #@! TF.SameCoordinates,Original*
G04 #@! TF.FileFunction,Legend,Top*
G04 #@! TF.FilePolarity,Positive*
%FSLAX46Y46*%
G04 Gerber Fmt 4.6, Leading zero omitted, Abs format (unit mm)*
G04 Created by KiCad (PCBNEW 8.0.7) date 2025-02-23 01:29:40*
%MOMM*%
%LPD*%
G01*
G04 APERTURE LIST*
G04 Aperture macros list*
%AMRoundRect*
0 Rectangle with rounded corners*
0 $1 Rounding radius*
0 $2 $3 $4 $5 $6 $7 $8 $9 X,Y pos of 4 corners*
0 Add a 4 corners polygon primitive as box body*
4,1,4,$2,$3,$4,$5,$6,$7,$8,$9,$2,$3,0*
0 Add four circle primitives for the rounded corners*
1,1,$1+$1,$2,$3*
1,1,$1+$1,$4,$5*
1,1,$1+$1,$6,$7*
1,1,$1+$1,$8,$9*
0 Add four rect primitives between the rounded corners*
20,1,$1+$1,$2,$3,$4,$5,0*
20,1,$1+$1,$4,$5,$6,$7,0*
20,1,$1+$1,$6,$7,$8,$9,0*
20,1,$1+$1,$8,$9,$2,$3,0*%
G04 Aperture macros list end*
%ADD10C,0.100000*%
%ADD11C,0.150000*%
%ADD12C,0.120000*%
%ADD13C,0.200000*%
%ADD14RoundRect,0.250000X0.450000X-0.262500X0.450000X0.262500X-0.450000X0.262500X-0.450000X-0.262500X0*%
%ADD15RoundRect,0.150000X-0.725000X-0.150000X0.725000X-0.150000X0.725000X0.150000X-0.725000X0.150000X0*%
%ADD16RoundRect,0.250000X-0.475000X0.250000X-0.475000X-0.250000X0.475000X-0.250000X0.475000X0.250000X0*%
%ADD17RoundRect,0.250000X0.262500X0.450000X-0.262500X0.450000X-0.262500X-0.450000X0.262500X-0.450000X0*%
%ADD18RoundRect,0.250000X-0.450000X0.262500X-0.450000X-0.262500X0.450000X-0.262500X0.450000X0.262500X0*%
%ADD19RoundRect,0.250000X-0.262500X-0.450000X0.262500X-0.450000X0.262500X0.450000X-0.262500X0.450000X0*%
%ADD20RoundRect,0.150000X0.150000X-0.587500X0.150000X0.587500X-0.150000X0.587500X-0.150000X-0.587500X0*%
%ADD21R,1.700000X1.700000*%
%ADD22O,1.700000X1.700000*%
%ADD23RoundRect,0.250000X-0.250000X-0.475000X0.250000X-0.475000X0.250000X0.475000X-0.250000X0.475000X0*%
%ADD24RoundRect,0.250000X-0.375000X-0.625000X0.375000X-0.625000X0.375000X0.625000X-0.375000X0.625000X0*%
%ADD25RoundRect,0.250000X0.625000X-0.375000X0.625000X0.375000X-0.625000X0.375000X-0.625000X-0.375000X0*%
%ADD26R,1.700000X0.650000*%
%ADD27RoundRect,0.085000X-0.265000X-0.085000X0.265000X-0.085000X0.265000X0.085000X-0.265000X0.085000X0*%
%ADD28RoundRect,0.102000X-1.750000X1.475000X-1.750000X-1.475000X1.750000X-1.475000X1.750000X1.475000X0*%
G04 APERTURE END LIST*
D10*
X169505960Y-77628075D02*
X169696436Y-77628075D01*
X169696436Y-77628075D02*
X169791674Y-77675694D01*
X169791674Y-77675694D02*
X169886912Y-77770932D01*
X169886912Y-77770932D02*
X169934531Y-77961408D01*
X169934531Y-77961408D02*
X169934531Y-78294741D01*
X169934531Y-78294741D02*
X169886912Y-78485217D01*
X169886912Y-78485217D02*
X169791674Y-78580456D01*
X169791674Y-78580456D02*
X169696436Y-78628075D01*
X169696436Y-78628075D02*
X169505960Y-78628075D01*
X169505960Y-78628075D02*
X169410722Y-78580456D01*
X169410722Y-78580456D02*
X169315484Y-78485217D01*
X169315484Y-78485217D02*
X169267865Y-78294741D01*
X169267865Y-78294741D02*
X169267865Y-77961408D01*
X169267865Y-77961408D02*
X169315484Y-77770932D01*
X169315484Y-77770932D02*
X169410722Y-77675694D01*
X169410722Y-77675694D02*
X169505960Y-77628075D01*
X170220246Y-77628075D02*
X170553579Y-78628075D01*
X170553579Y-78628075D02*
X170886912Y-77628075D01*
X171220246Y-78104265D02*
X171553579Y-78104265D01*
X171696436Y-78628075D02*
X171220246Y-78628075D01*
X171220246Y-78628075D02*
X171220246Y-77628075D01*
X171220246Y-77628075D02*
X171696436Y-77628075D01*
X172696436Y-78628075D02*
X172363103Y-78151884D01*
X172125008Y-78628075D02*
X172125008Y-77628075D01*
X172125008Y-77628075D02*
X172505960Y-77628075D01*
X172505960Y-77628075D02*
X172601198Y-77675694D01*
X172601198Y-77675694D02*
X172648817Y-77723313D01*
X172648817Y-77723313D02*
X172696436Y-77818551D01*
X172696436Y-77818551D02*
X172696436Y-77961408D01*
X172696436Y-77961408D02*
X172648817Y-78056646D01*
X172648817Y-78056646D02*
X172601198Y-78104265D01*
X172601198Y-78104265D02*
X172505960Y-78151884D01*
X172505960Y-78151884D02*
X172125008Y-78151884D01*
X169886912Y-80142780D02*
X169839293Y-80190400D01*
X169839293Y-80190400D02*
X169696436Y-80238019D01*
X169696436Y-80238019D02*
X169601198Y-80238019D01*
X169601198Y-80238019D02*
X169458341Y-80190400D01*
X169458341Y-80190400D02*
X169363103Y-80095161D01*
X169363103Y-80095161D02*
X169315484Y-79999923D01*
X169315484Y-79999923D02*
X169267865Y-79809447D01*
X169267865Y-79809447D02*
X169267865Y-79666590D01*
X169267865Y-79666590D02*
X169315484Y-79476114D01*
X169315484Y-79476114D02*
X169363103Y-79380876D01*
X169363103Y-79380876D02*
X169458341Y-79285638D01*
X169458341Y-79285638D02*
X169601198Y-79238019D01*
X169601198Y-79238019D02*
X169696436Y-79238019D01*
X169696436Y-79238019D02*
X169839293Y-79285638D01*
X169839293Y-79285638D02*
X169886912Y-79333257D01*
X170315484Y-79238019D02*
X170315484Y-80047542D01*
X170315484Y-80047542D02*
X170363103Y-80142780D01*
X170363103Y-80142780D02*
X170410722Y-80190400D01*
X170410722Y-80190400D02*
X170505960Y-80238019D01*
X170505960Y-80238019D02*
X170696436Y-80238019D01*
X170696436Y-80238019D02*
X170791674Y-80190400D01*
X170791674Y-80190400D02*
X170839293Y-80142780D01*
X170839293Y-80142780D02*
X170886912Y-80047542D01*
X170886912Y-80047542D02*
X170886912Y-79238019D01*
X171934531Y-80238019D02*
X171601198Y-79761828D01*
X171363103Y-80238019D02*
X171363103Y-79238019D01*
X171363103Y-79238019D02*
X171744055Y-79238019D01*
X171744055Y-79238019D02*
X171839293Y-79285638D01*
X171839293Y-79285638D02*
X171886912Y-79333257D01*
X171886912Y-79333257D02*
X171934531Y-79428495D01*
X171934531Y-79428495D02*
X171934531Y-79571352D01*
X171934531Y-79571352D02*
X171886912Y-79666590D01*
X171886912Y-79666590D02*
X171839293Y-79714209D01*
X171839293Y-79714209D02*
X171744055Y-79761828D01*
X171744055Y-79761828D02*
X171363103Y-79761828D01*
X172934531Y-80238019D02*
X172601198Y-79761828D01*
X172363103Y-80238019D02*
X172363103Y-79238019D01*
X172363103Y-79238019D02*
X172744055Y-79238019D01*
X172744055Y-79238019D02*
X172839293Y-79285638D01*
X172839293Y-79285638D02*
X172886912Y-79333257D01*
X172886912Y-79333257D02*
X172934531Y-79428495D01*
X172934531Y-79428495D02*
X172934531Y-79571352D01*
X172934531Y-79571352D02*
X172886912Y-79666590D01*
X172886912Y-79666590D02*
X172839293Y-79714209D01*
X172839293Y-79714209D02*
X172744055Y-79761828D01*
X172744055Y-79761828D02*
X172363103Y-79761828D01*
X173363103Y-79714209D02*
X173696436Y-79714209D01*
X173839293Y-80238019D02*
X173363103Y-80238019D01*
X173363103Y-80238019D02*
X173363103Y-79238019D01*
X173363103Y-79238019D02*
X173839293Y-79238019D01*
X174267865Y-80238019D02*
X174267865Y-79238019D01*
X174267865Y-79238019D02*
X174839293Y-80238019D01*
X174839293Y-80238019D02*
X174839293Y-79238019D01*
X175172627Y-79238019D02*
X175744055Y-79238019D01*
X175458341Y-80238019D02*
X175458341Y-79238019D01*
X203979809Y-89015191D02*
X204479809Y-88848525D01*
X204479809Y-88848525D02*
X203979809Y-88681858D01*
X204479809Y-88515192D02*
X203979809Y-88515192D01*
X204479809Y-88277097D02*
X203979809Y-88277097D01*
X203979809Y-88277097D02*
X204479809Y-87991383D01*
X204479809Y-87991383D02*
X203979809Y-87991383D01*
X204003619Y-86268858D02*
X203979809Y-86316477D01*
X203979809Y-86316477D02*
X203979809Y-86387906D01*
X203979809Y-86387906D02*
X204003619Y-86459334D01*
X204003619Y-86459334D02*
X204051238Y-86506953D01*
X204051238Y-86506953D02*
X204098857Y-86530763D01*
X204098857Y-86530763D02*
X204194095Y-86554572D01*
X204194095Y-86554572D02*
X204265523Y-86554572D01*
X204265523Y-86554572D02*
X204360761Y-86530763D01*
X204360761Y-86530763D02*
X204408380Y-86506953D01*
X204408380Y-86506953D02*
X204456000Y-86459334D01*
X204456000Y-86459334D02*
X204479809Y-86387906D01*
X204479809Y-86387906D02*
X204479809Y-86340287D01*
X204479809Y-86340287D02*
X204456000Y-86268858D01*
X204456000Y-86268858D02*
X204432190Y-86245049D01*
X204432190Y-86245049D02*
X204265523Y-86245049D01*
X204265523Y-86245049D02*
X204265523Y-86340287D01*
X204479809Y-86030763D02*
X203979809Y-86030763D01*
X203979809Y-86030763D02*
X204479809Y-85745049D01*
X204479809Y-85745049D02*
X203979809Y-85745049D01*
X204479809Y-85506953D02*
X203979809Y-85506953D01*
X203979809Y-85506953D02*
X203979809Y-85387905D01*
X203979809Y-85387905D02*
X204003619Y-85316477D01*
X204003619Y-85316477D02*
X204051238Y-85268858D01*
X204051238Y-85268858D02*
X204098857Y-85245048D01*
X204098857Y-85245048D02*
X204194095Y-85221239D01*
X204194095Y-85221239D02*
X204265523Y-85221239D01*
X204265523Y-85221239D02*
X204360761Y-85245048D01*
X204360761Y-85245048D02*
X204408380Y-85268858D01*
X204408380Y-85268858D02*
X204456000Y-85316477D01*
X204456000Y-85316477D02*
X204479809Y-85387905D01*
X204479809Y-85387905D02*
X204479809Y-85506953D01*
X203979809Y-84316191D02*
X204479809Y-84149525D01*
X204479809Y-84149525D02*
X203979809Y-83982858D01*
X203979809Y-83720954D02*
X203979809Y-83625716D01*
X203979809Y-83625716D02*
X204003619Y-83578097D01*
X204003619Y-83578097D02*
X204051238Y-83530478D01*
X204051238Y-83530478D02*
X204146476Y-83506668D01*
X204146476Y-83506668D02*
X204313142Y-83506668D01*
X204313142Y-83506668D02*
X204408380Y-83530478D01*
X204408380Y-83530478D02*
X204456000Y-83578097D01*
X204456000Y-83578097D02*
X204479809Y-83625716D01*
X204479809Y-83625716D02*
X204479809Y-83720954D01*
X204479809Y-83720954D02*
X204456000Y-83768573D01*
X204456000Y-83768573D02*
X204408380Y-83816192D01*
X204408380Y-83816192D02*
X204313142Y-83840001D01*
X204313142Y-83840001D02*
X204146476Y-83840001D01*
X204146476Y-83840001D02*
X204051238Y-83816192D01*
X204051238Y-83816192D02*
X204003619Y-83768573D01*
X204003619Y-83768573D02*
X203979809Y-83720954D01*
X203979809Y-83292382D02*
X204384571Y-83292382D01*
X204384571Y-83292382D02*
X204432190Y-83268572D01*
X204432190Y-83268572D02*
X204456000Y-83244763D01*
X204456000Y-83244763D02*
X204479809Y-83197144D01*
X204479809Y-83197144D02*
X204479809Y-83101906D01*
X204479809Y-83101906D02*
X204456000Y-83054287D01*
X204456000Y-83054287D02*
X204432190Y-83030477D01*
X204432190Y-83030477D02*
X204384571Y-83006668D01*
X204384571Y-83006668D02*
X203979809Y-83006668D01*
X203979809Y-82840000D02*
X203979809Y-82554286D01*
X204479809Y-82697143D02*
X203979809Y-82697143D01*
X206155027Y-83327419D02*
X206488360Y-84327419D01*
X206488360Y-84327419D02*
X206821693Y-83327419D01*
X207345503Y-83327419D02*
X207535979Y-83327419D01*
X207535979Y-83327419D02*
X207631217Y-83375038D01*
X207631217Y-83375038D02*
X207726455Y-83470276D01*
X207726455Y-83470276D02*
X207774074Y-83660752D01*
X207774074Y-83660752D02*
X207774074Y-83994085D01*
X207774074Y-83994085D02*
X207726455Y-84184561D01*
X207726455Y-84184561D02*
X207631217Y-84279800D01*
X207631217Y-84279800D02*
X207535979Y-84327419D01*
X207535979Y-84327419D02*
X207345503Y-84327419D01*
X207345503Y-84327419D02*
X207250265Y-84279800D01*
X207250265Y-84279800D02*
X207155027Y-84184561D01*
X207155027Y-84184561D02*
X207107408Y-83994085D01*
X207107408Y-83994085D02*
X207107408Y-83660752D01*
X207107408Y-83660752D02*
X207155027Y-83470276D01*
X207155027Y-83470276D02*
X207250265Y-83375038D01*
X207250265Y-83375038D02*
X207345503Y-83327419D01*
X208202646Y-83327419D02*
X208202646Y-84136942D01*
X208202646Y-84136942D02*
X208250265Y-84232180D01*
X208250265Y-84232180D02*
X208297884Y-84279800D01*
X208297884Y-84279800D02*
X208393122Y-84327419D01*
X208393122Y-84327419D02*
X208583598Y-84327419D01*
X208583598Y-84327419D02*
X208678836Y-84279800D01*
X208678836Y-84279800D02*
X208726455Y-84232180D01*
X208726455Y-84232180D02*
X208774074Y-84136942D01*
X208774074Y-84136942D02*
X208774074Y-83327419D01*
X209107408Y-83327419D02*
X209678836Y-83327419D01*
X209393122Y-84327419D02*
X209393122Y-83327419D01*
X169302712Y-96138419D02*
X168969379Y-95662228D01*
X168731284Y-96138419D02*
X168731284Y-95138419D01*
X168731284Y-95138419D02*
X169112236Y-95138419D01*
X169112236Y-95138419D02*
X169207474Y-95186038D01*
X169207474Y-95186038D02*
X169255093Y-95233657D01*
X169255093Y-95233657D02*
X169302712Y-95328895D01*
X169302712Y-95328895D02*
X169302712Y-95471752D01*
X169302712Y-95471752D02*
X169255093Y-95566990D01*
X169255093Y-95566990D02*
X169207474Y-95614609D01*
X169207474Y-95614609D02*
X169112236Y-95662228D01*
X169112236Y-95662228D02*
X168731284Y-95662228D01*
X169731284Y-95614609D02*
X170064617Y-95614609D01*
X170207474Y-96138419D02*
X169731284Y-96138419D01*
X169731284Y-96138419D02*
X169731284Y-95138419D01*
X169731284Y-95138419D02*
X170207474Y-95138419D01*
X171159855Y-95186038D02*
X171064617Y-95138419D01*
X171064617Y-95138419D02*
X170921760Y-95138419D01*
X170921760Y-95138419D02*
X170778903Y-95186038D01*
X170778903Y-95186038D02*
X170683665Y-95281276D01*
X170683665Y-95281276D02*
X170636046Y-95376514D01*
X170636046Y-95376514D02*
X170588427Y-95566990D01*
X170588427Y-95566990D02*
X170588427Y-95709847D01*
X170588427Y-95709847D02*
X170636046Y-95900323D01*
X170636046Y-95900323D02*
X170683665Y-95995561D01*
X170683665Y-95995561D02*
X170778903Y-96090800D01*
X170778903Y-96090800D02*
X170921760Y-96138419D01*
X170921760Y-96138419D02*
X171016998Y-96138419D01*
X171016998Y-96138419D02*
X171159855Y-96090800D01*
X171159855Y-96090800D02*
X171207474Y-96043180D01*
X171207474Y-96043180D02*
X171207474Y-95709847D01*
X171207474Y-95709847D02*
X171016998Y-95709847D01*
X172874141Y-95138419D02*
X172397951Y-95138419D01*
X172397951Y-95138419D02*
X172350332Y-95614609D01*
X172350332Y-95614609D02*
X172397951Y-95566990D01*
X172397951Y-95566990D02*
X172493189Y-95519371D01*
X172493189Y-95519371D02*
X172731284Y-95519371D01*
X172731284Y-95519371D02*
X172826522Y-95566990D01*
X172826522Y-95566990D02*
X172874141Y-95614609D01*
X172874141Y-95614609D02*
X172921760Y-95709847D01*
X172921760Y-95709847D02*
X172921760Y-95947942D01*
X172921760Y-95947942D02*
X172874141Y-96043180D01*
X172874141Y-96043180D02*
X172826522Y-96090800D01*
X172826522Y-96090800D02*
X172731284Y-96138419D01*
X172731284Y-96138419D02*
X172493189Y-96138419D01*
X172493189Y-96138419D02*
X172397951Y-96090800D01*
X172397951Y-96090800D02*
X172350332Y-96043180D01*
X173207475Y-95138419D02*
X173540808Y-96138419D01*
X173540808Y-96138419D02*
X173874141Y-95138419D01*
X169199750Y-74177809D02*
X169033084Y-73939714D01*
X168914036Y-74177809D02*
X168914036Y-73677809D01*
X168914036Y-73677809D02*
X169104512Y-73677809D01*
X169104512Y-73677809D02*
X169152131Y-73701619D01*
X169152131Y-73701619D02*
X169175941Y-73725428D01*
X169175941Y-73725428D02*
X169199750Y-73773047D01*
X169199750Y-73773047D02*
X169199750Y-73844476D01*
X169199750Y-73844476D02*
X169175941Y-73892095D01*
X169175941Y-73892095D02*
X169152131Y-73915904D01*
X169152131Y-73915904D02*
X169104512Y-73939714D01*
X169104512Y-73939714D02*
X168914036Y-73939714D01*
X169414036Y-73915904D02*
X169580703Y-73915904D01*
X169652131Y-74177809D02*
X169414036Y-74177809D01*
X169414036Y-74177809D02*
X169414036Y-73677809D01*
X169414036Y-73677809D02*
X169652131Y-73677809D01*
X169866417Y-74177809D02*
X169866417Y-73677809D01*
X169866417Y-73677809D02*
X169985465Y-73677809D01*
X169985465Y-73677809D02*
X170056893Y-73701619D01*
X170056893Y-73701619D02*
X170104512Y-73749238D01*
X170104512Y-73749238D02*
X170128322Y-73796857D01*
X170128322Y-73796857D02*
X170152131Y-73892095D01*
X170152131Y-73892095D02*
X170152131Y-73963523D01*
X170152131Y-73963523D02*
X170128322Y-74058761D01*
X170128322Y-74058761D02*
X170104512Y-74106380D01*
X170104512Y-74106380D02*
X170056893Y-74154000D01*
X170056893Y-74154000D02*
X169985465Y-74177809D01*
X169985465Y-74177809D02*
X169866417Y-74177809D01*
X206213419Y-89951858D02*
X206189609Y-89999477D01*
X206189609Y-89999477D02*
X206189609Y-90070906D01*
X206189609Y-90070906D02*
X206213419Y-90142334D01*
X206213419Y-90142334D02*
X206261038Y-90189953D01*
X206261038Y-90189953D02*
X206308657Y-90213763D01*
X206308657Y-90213763D02*
X206403895Y-90237572D01*
X206403895Y-90237572D02*
X206475323Y-90237572D01*
X206475323Y-90237572D02*
X206570561Y-90213763D01*
X206570561Y-90213763D02*
X206618180Y-90189953D01*
X206618180Y-90189953D02*
X206665800Y-90142334D01*
X206665800Y-90142334D02*
X206689609Y-90070906D01*
X206689609Y-90070906D02*
X206689609Y-90023287D01*
X206689609Y-90023287D02*
X206665800Y-89951858D01*
X206665800Y-89951858D02*
X206641990Y-89928049D01*
X206641990Y-89928049D02*
X206475323Y-89928049D01*
X206475323Y-89928049D02*
X206475323Y-90023287D01*
X206689609Y-89428049D02*
X206451514Y-89594715D01*
X206689609Y-89713763D02*
X206189609Y-89713763D01*
X206189609Y-89713763D02*
X206189609Y-89523287D01*
X206189609Y-89523287D02*
X206213419Y-89475668D01*
X206213419Y-89475668D02*
X206237228Y-89451858D01*
X206237228Y-89451858D02*
X206284847Y-89428049D01*
X206284847Y-89428049D02*
X206356276Y-89428049D01*
X206356276Y-89428049D02*
X206403895Y-89451858D01*
X206403895Y-89451858D02*
X206427704Y-89475668D01*
X206427704Y-89475668D02*
X206451514Y-89523287D01*
X206451514Y-89523287D02*
X206451514Y-89713763D01*
X206427704Y-89213763D02*
X206427704Y-89047096D01*
X206689609Y-88975668D02*
X206689609Y-89213763D01*
X206689609Y-89213763D02*
X206189609Y-89213763D01*
X206189609Y-89213763D02*
X206189609Y-88975668D01*
X206427704Y-88761382D02*
X206427704Y-88594715D01*
X206689609Y-88523287D02*
X206689609Y-88761382D01*
X206689609Y-88761382D02*
X206189609Y-88761382D01*
X206189609Y-88761382D02*
X206189609Y-88523287D01*
X206689609Y-88309001D02*
X206189609Y-88309001D01*
X206189609Y-88309001D02*
X206689609Y-88023287D01*
X206689609Y-88023287D02*
X206189609Y-88023287D01*
X173865265Y-93693704D02*
X174341455Y-93693704D01*
X173770027Y-93979419D02*
X174103360Y-92979419D01*
X174103360Y-92979419D02*
X174436693Y-93979419D01*
X174373265Y-76066104D02*
X174849455Y-76066104D01*
X174278027Y-76351819D02*
X174611360Y-75351819D01*
X174611360Y-75351819D02*
X174944693Y-76351819D01*
X205996274Y-91789234D02*
X206081989Y-91817805D01*
X206081989Y-91817805D02*
X206224846Y-91817805D01*
X206224846Y-91817805D02*
X206281989Y-91789234D01*
X206281989Y-91789234D02*
X206310560Y-91760662D01*
X206310560Y-91760662D02*
X206339131Y-91703519D01*
X206339131Y-91703519D02*
X206339131Y-91646376D01*
X206339131Y-91646376D02*
X206310560Y-91589234D01*
X206310560Y-91589234D02*
X206281989Y-91560662D01*
X206281989Y-91560662D02*
X206224846Y-91532091D01*
X206224846Y-91532091D02*
X206110560Y-91503519D01*
X206110560Y-91503519D02*
X206053417Y-91474948D01*
X206053417Y-91474948D02*
X206024846Y-91446376D01*
X206024846Y-91446376D02*
X205996274Y-91389234D01*
X205996274Y-91389234D02*
X205996274Y-91332091D01*
X205996274Y-91332091D02*
X206024846Y-91274948D01*
X206024846Y-91274948D02*
X206053417Y-91246376D01*
X206053417Y-91246376D02*
X206110560Y-91217805D01*
X206110560Y-91217805D02*
X206253417Y-91217805D01*
X206253417Y-91217805D02*
X206339131Y-91246376D01*
X206710560Y-91532091D02*
X206710560Y-91817805D01*
X206510560Y-91217805D02*
X206710560Y-91532091D01*
X206710560Y-91532091D02*
X206910560Y-91217805D01*
X207081989Y-91789234D02*
X207167704Y-91817805D01*
X207167704Y-91817805D02*
X207310561Y-91817805D01*
X207310561Y-91817805D02*
X207367704Y-91789234D01*
X207367704Y-91789234D02*
X207396275Y-91760662D01*
X207396275Y-91760662D02*
X207424846Y-91703519D01*
X207424846Y-91703519D02*
X207424846Y-91646376D01*
X207424846Y-91646376D02*
X207396275Y-91589234D01*
X207396275Y-91589234D02*
X207367704Y-91560662D01*
X207367704Y-91560662D02*
X207310561Y-91532091D01*
X207310561Y-91532091D02*
X207196275Y-91503519D01*
X207196275Y-91503519D02*
X207139132Y-91474948D01*
X207139132Y-91474948D02*
X207110561Y-91446376D01*
X207110561Y-91446376D02*
X207081989Y-91389234D01*
X207081989Y-91389234D02*
X207081989Y-91332091D01*
X207081989Y-91332091D02*
X207110561Y-91274948D01*
X207110561Y-91274948D02*
X207139132Y-91246376D01*
X207139132Y-91246376D02*
X207196275Y-91217805D01*
X207196275Y-91217805D02*
X207339132Y-91217805D01*
X207339132Y-91217805D02*
X207424846Y-91246376D01*
X206367703Y-92783771D02*
X206167703Y-92498057D01*
X206024846Y-92783771D02*
X206024846Y-92183771D01*
X206024846Y-92183771D02*
X206253417Y-92183771D01*
X206253417Y-92183771D02*
X206310560Y-92212342D01*
X206310560Y-92212342D02*
X206339131Y-92240914D01*
X206339131Y-92240914D02*
X206367703Y-92298057D01*
X206367703Y-92298057D02*
X206367703Y-92383771D01*
X206367703Y-92383771D02*
X206339131Y-92440914D01*
X206339131Y-92440914D02*
X206310560Y-92469485D01*
X206310560Y-92469485D02*
X206253417Y-92498057D01*
X206253417Y-92498057D02*
X206024846Y-92498057D01*
X206624846Y-92469485D02*
X206824846Y-92469485D01*
X206910560Y-92783771D02*
X206624846Y-92783771D01*
X206624846Y-92783771D02*
X206624846Y-92183771D01*
X206624846Y-92183771D02*
X206910560Y-92183771D01*
X207139131Y-92755200D02*
X207224846Y-92783771D01*
X207224846Y-92783771D02*
X207367703Y-92783771D01*
X207367703Y-92783771D02*
X207424846Y-92755200D01*
X207424846Y-92755200D02*
X207453417Y-92726628D01*
X207453417Y-92726628D02*
X207481988Y-92669485D01*
X207481988Y-92669485D02*
X207481988Y-92612342D01*
X207481988Y-92612342D02*
X207453417Y-92555200D01*
X207453417Y-92555200D02*
X207424846Y-92526628D01*
X207424846Y-92526628D02*
X207367703Y-92498057D01*
X207367703Y-92498057D02*
X207253417Y-92469485D01*
X207253417Y-92469485D02*
X207196274Y-92440914D01*
X207196274Y-92440914D02*
X207167703Y-92412342D01*
X207167703Y-92412342D02*
X207139131Y-92355200D01*
X207139131Y-92355200D02*
X207139131Y-92298057D01*
X207139131Y-92298057D02*
X207167703Y-92240914D01*
X207167703Y-92240914D02*
X207196274Y-92212342D01*
X207196274Y-92212342D02*
X207253417Y-92183771D01*
X207253417Y-92183771D02*
X207396274Y-92183771D01*
X207396274Y-92183771D02*
X207481988Y-92212342D01*
X207739132Y-92469485D02*
X207939132Y-92469485D01*
X208024846Y-92783771D02*
X207739132Y-92783771D01*
X207739132Y-92783771D02*
X207739132Y-92183771D01*
X207739132Y-92183771D02*
X208024846Y-92183771D01*
X208196274Y-92183771D02*
X208539132Y-92183771D01*
X208367703Y-92783771D02*
X208367703Y-92183771D01*
X208688665Y-89985304D02*
X209164855Y-89985304D01*
X208593427Y-90271019D02*
X208926760Y-89271019D01*
X208926760Y-89271019D02*
X209260093Y-90271019D01*
X168858284Y-83221643D02*
X168858284Y-82221643D01*
X168858284Y-82221643D02*
X169239236Y-82221643D01*
X169239236Y-82221643D02*
X169334474Y-82269262D01*
X169334474Y-82269262D02*
X169382093Y-82316881D01*
X169382093Y-82316881D02*
X169429712Y-82412119D01*
X169429712Y-82412119D02*
X169429712Y-82554976D01*
X169429712Y-82554976D02*
X169382093Y-82650214D01*
X169382093Y-82650214D02*
X169334474Y-82697833D01*
X169334474Y-82697833D02*
X169239236Y-82745452D01*
X169239236Y-82745452D02*
X168858284Y-82745452D01*
X170048760Y-82221643D02*
X170239236Y-82221643D01*
X170239236Y-82221643D02*
X170334474Y-82269262D01*
X170334474Y-82269262D02*
X170429712Y-82364500D01*
X170429712Y-82364500D02*
X170477331Y-82554976D01*
X170477331Y-82554976D02*
X170477331Y-82888309D01*
X170477331Y-82888309D02*
X170429712Y-83078785D01*
X170429712Y-83078785D02*
X170334474Y-83174024D01*
X170334474Y-83174024D02*
X170239236Y-83221643D01*
X170239236Y-83221643D02*
X170048760Y-83221643D01*
X170048760Y-83221643D02*
X169953522Y-83174024D01*
X169953522Y-83174024D02*
X169858284Y-83078785D01*
X169858284Y-83078785D02*
X169810665Y-82888309D01*
X169810665Y-82888309D02*
X169810665Y-82554976D01*
X169810665Y-82554976D02*
X169858284Y-82364500D01*
X169858284Y-82364500D02*
X169953522Y-82269262D01*
X169953522Y-82269262D02*
X170048760Y-82221643D01*
X170810665Y-82221643D02*
X171048760Y-83221643D01*
X171048760Y-83221643D02*
X171239236Y-82507357D01*
X171239236Y-82507357D02*
X171429712Y-83221643D01*
X171429712Y-83221643D02*
X171667808Y-82221643D01*
X172048760Y-82697833D02*
X172382093Y-82697833D01*
X172524950Y-83221643D02*
X172048760Y-83221643D01*
X172048760Y-83221643D02*
X172048760Y-82221643D01*
X172048760Y-82221643D02*
X172524950Y-82221643D01*
X173524950Y-83221643D02*
X173191617Y-82745452D01*
X172953522Y-83221643D02*
X172953522Y-82221643D01*
X172953522Y-82221643D02*
X173334474Y-82221643D01*
X173334474Y-82221643D02*
X173429712Y-82269262D01*
X173429712Y-82269262D02*
X173477331Y-82316881D01*
X173477331Y-82316881D02*
X173524950Y-82412119D01*
X173524950Y-82412119D02*
X173524950Y-82554976D01*
X173524950Y-82554976D02*
X173477331Y-82650214D01*
X173477331Y-82650214D02*
X173429712Y-82697833D01*
X173429712Y-82697833D02*
X173334474Y-82745452D01*
X173334474Y-82745452D02*
X172953522Y-82745452D01*
X168810665Y-84783968D02*
X168953522Y-84831587D01*
X168953522Y-84831587D02*
X169191617Y-84831587D01*
X169191617Y-84831587D02*
X169286855Y-84783968D01*
X169286855Y-84783968D02*
X169334474Y-84736348D01*
X169334474Y-84736348D02*
X169382093Y-84641110D01*
X169382093Y-84641110D02*
X169382093Y-84545872D01*
X169382093Y-84545872D02*
X169334474Y-84450634D01*
X169334474Y-84450634D02*
X169286855Y-84403015D01*
X169286855Y-84403015D02*
X169191617Y-84355396D01*
X169191617Y-84355396D02*
X169001141Y-84307777D01*
X169001141Y-84307777D02*
X168905903Y-84260158D01*
X168905903Y-84260158D02*
X168858284Y-84212539D01*
X168858284Y-84212539D02*
X168810665Y-84117301D01*
X168810665Y-84117301D02*
X168810665Y-84022063D01*
X168810665Y-84022063D02*
X168858284Y-83926825D01*
X168858284Y-83926825D02*
X168905903Y-83879206D01*
X168905903Y-83879206D02*
X169001141Y-83831587D01*
X169001141Y-83831587D02*
X169239236Y-83831587D01*
X169239236Y-83831587D02*
X169382093Y-83879206D01*
X169810665Y-84307777D02*
X170143998Y-84307777D01*
X170286855Y-84831587D02*
X169810665Y-84831587D01*
X169810665Y-84831587D02*
X169810665Y-83831587D01*
X169810665Y-83831587D02*
X170286855Y-83831587D01*
X171382093Y-84926825D02*
X171286855Y-84879206D01*
X171286855Y-84879206D02*
X171191617Y-84783968D01*
X171191617Y-84783968D02*
X171048760Y-84641110D01*
X171048760Y-84641110D02*
X170953522Y-84593491D01*
X170953522Y-84593491D02*
X170858284Y-84593491D01*
X170905903Y-84831587D02*
X170810665Y-84783968D01*
X170810665Y-84783968D02*
X170715427Y-84688729D01*
X170715427Y-84688729D02*
X170667808Y-84498253D01*
X170667808Y-84498253D02*
X170667808Y-84164920D01*
X170667808Y-84164920D02*
X170715427Y-83974444D01*
X170715427Y-83974444D02*
X170810665Y-83879206D01*
X170810665Y-83879206D02*
X170905903Y-83831587D01*
X170905903Y-83831587D02*
X171096379Y-83831587D01*
X171096379Y-83831587D02*
X171191617Y-83879206D01*
X171191617Y-83879206D02*
X171286855Y-83974444D01*
X171286855Y-83974444D02*
X171334474Y-84164920D01*
X171334474Y-84164920D02*
X171334474Y-84498253D01*
X171334474Y-84498253D02*
X171286855Y-84688729D01*
X171286855Y-84688729D02*
X171191617Y-84783968D01*
X171191617Y-84783968D02*
X171096379Y-84831587D01*
X171096379Y-84831587D02*
X170905903Y-84831587D01*
X171763046Y-83831587D02*
X171763046Y-84641110D01*
X171763046Y-84641110D02*
X171810665Y-84736348D01*
X171810665Y-84736348D02*
X171858284Y-84783968D01*
X171858284Y-84783968D02*
X171953522Y-84831587D01*
X171953522Y-84831587D02*
X172143998Y-84831587D01*
X172143998Y-84831587D02*
X172239236Y-84783968D01*
X172239236Y-84783968D02*
X172286855Y-84736348D01*
X172286855Y-84736348D02*
X172334474Y-84641110D01*
X172334474Y-84641110D02*
X172334474Y-83831587D01*
X172810665Y-84307777D02*
X173143998Y-84307777D01*
X173286855Y-84831587D02*
X172810665Y-84831587D01*
X172810665Y-84831587D02*
X172810665Y-83831587D01*
X172810665Y-83831587D02*
X173286855Y-83831587D01*
X173715427Y-84831587D02*
X173715427Y-83831587D01*
X173715427Y-83831587D02*
X174286855Y-84831587D01*
X174286855Y-84831587D02*
X174286855Y-83831587D01*
X175334474Y-84736348D02*
X175286855Y-84783968D01*
X175286855Y-84783968D02*
X175143998Y-84831587D01*
X175143998Y-84831587D02*
X175048760Y-84831587D01*
X175048760Y-84831587D02*
X174905903Y-84783968D01*
X174905903Y-84783968D02*
X174810665Y-84688729D01*
X174810665Y-84688729D02*
X174763046Y-84593491D01*
X174763046Y-84593491D02*
X174715427Y-84403015D01*
X174715427Y-84403015D02*
X174715427Y-84260158D01*
X174715427Y-84260158D02*
X174763046Y-84069682D01*
X174763046Y-84069682D02*
X174810665Y-83974444D01*
X174810665Y-83974444D02*
X174905903Y-83879206D01*
X174905903Y-83879206D02*
X175048760Y-83831587D01*
X175048760Y-83831587D02*
X175143998Y-83831587D01*
X175143998Y-83831587D02*
X175286855Y-83879206D01*
X175286855Y-83879206D02*
X175334474Y-83926825D01*
X175763046Y-84307777D02*
X176096379Y-84307777D01*
X176239236Y-84831587D02*
X175763046Y-84831587D01*
X175763046Y-84831587D02*
X175763046Y-83831587D01*
X175763046Y-83831587D02*
X176239236Y-83831587D01*
X177239236Y-84831587D02*
X176905903Y-84355396D01*
X176667808Y-84831587D02*
X176667808Y-83831587D01*
X176667808Y-83831587D02*
X177048760Y-83831587D01*
X177048760Y-83831587D02*
X177143998Y-83879206D01*
X177143998Y-83879206D02*
X177191617Y-83926825D01*
X177191617Y-83926825D02*
X177239236Y-84022063D01*
X177239236Y-84022063D02*
X177239236Y-84164920D01*
X177239236Y-84164920D02*
X177191617Y-84260158D01*
X177191617Y-84260158D02*
X177143998Y-84307777D01*
X177143998Y-84307777D02*
X177048760Y-84355396D01*
X177048760Y-84355396D02*
X176667808Y-84355396D01*
X168715427Y-85441531D02*
X169048760Y-86441531D01*
X169048760Y-86441531D02*
X169382093Y-85441531D01*
X170239236Y-86441531D02*
X169667808Y-86441531D01*
X169953522Y-86441531D02*
X169953522Y-85441531D01*
X169953522Y-85441531D02*
X169858284Y-85584388D01*
X169858284Y-85584388D02*
X169763046Y-85679626D01*
X169763046Y-85679626D02*
X169667808Y-85727245D01*
X170667808Y-86346292D02*
X170715427Y-86393912D01*
X170715427Y-86393912D02*
X170667808Y-86441531D01*
X170667808Y-86441531D02*
X170620189Y-86393912D01*
X170620189Y-86393912D02*
X170667808Y-86346292D01*
X170667808Y-86346292D02*
X170667808Y-86441531D01*
X171334474Y-85441531D02*
X171429712Y-85441531D01*
X171429712Y-85441531D02*
X171524950Y-85489150D01*
X171524950Y-85489150D02*
X171572569Y-85536769D01*
X171572569Y-85536769D02*
X171620188Y-85632007D01*
X171620188Y-85632007D02*
X171667807Y-85822483D01*
X171667807Y-85822483D02*
X171667807Y-86060578D01*
X171667807Y-86060578D02*
X171620188Y-86251054D01*
X171620188Y-86251054D02*
X171572569Y-86346292D01*
X171572569Y-86346292D02*
X171524950Y-86393912D01*
X171524950Y-86393912D02*
X171429712Y-86441531D01*
X171429712Y-86441531D02*
X171334474Y-86441531D01*
X171334474Y-86441531D02*
X171239236Y-86393912D01*
X171239236Y-86393912D02*
X171191617Y-86346292D01*
X171191617Y-86346292D02*
X171143998Y-86251054D01*
X171143998Y-86251054D02*
X171096379Y-86060578D01*
X171096379Y-86060578D02*
X171096379Y-85822483D01*
X171096379Y-85822483D02*
X171143998Y-85632007D01*
X171143998Y-85632007D02*
X171191617Y-85536769D01*
X171191617Y-85536769D02*
X171239236Y-85489150D01*
X171239236Y-85489150D02*
X171334474Y-85441531D01*
X168810665Y-88003856D02*
X168953522Y-88051475D01*
X168953522Y-88051475D02*
X169191617Y-88051475D01*
X169191617Y-88051475D02*
X169286855Y-88003856D01*
X169286855Y-88003856D02*
X169334474Y-87956236D01*
X169334474Y-87956236D02*
X169382093Y-87860998D01*
X169382093Y-87860998D02*
X169382093Y-87765760D01*
X169382093Y-87765760D02*
X169334474Y-87670522D01*
X169334474Y-87670522D02*
X169286855Y-87622903D01*
X169286855Y-87622903D02*
X169191617Y-87575284D01*
X169191617Y-87575284D02*
X169001141Y-87527665D01*
X169001141Y-87527665D02*
X168905903Y-87480046D01*
X168905903Y-87480046D02*
X168858284Y-87432427D01*
X168858284Y-87432427D02*
X168810665Y-87337189D01*
X168810665Y-87337189D02*
X168810665Y-87241951D01*
X168810665Y-87241951D02*
X168858284Y-87146713D01*
X168858284Y-87146713D02*
X168905903Y-87099094D01*
X168905903Y-87099094D02*
X169001141Y-87051475D01*
X169001141Y-87051475D02*
X169239236Y-87051475D01*
X169239236Y-87051475D02*
X169382093Y-87099094D01*
X169810665Y-88051475D02*
X169810665Y-87051475D01*
X169810665Y-87051475D02*
X170143998Y-87765760D01*
X170143998Y-87765760D02*
X170477331Y-87051475D01*
X170477331Y-87051475D02*
X170477331Y-88051475D01*
X170905903Y-88003856D02*
X171048760Y-88051475D01*
X171048760Y-88051475D02*
X171286855Y-88051475D01*
X171286855Y-88051475D02*
X171382093Y-88003856D01*
X171382093Y-88003856D02*
X171429712Y-87956236D01*
X171429712Y-87956236D02*
X171477331Y-87860998D01*
X171477331Y-87860998D02*
X171477331Y-87765760D01*
X171477331Y-87765760D02*
X171429712Y-87670522D01*
X171429712Y-87670522D02*
X171382093Y-87622903D01*
X171382093Y-87622903D02*
X171286855Y-87575284D01*
X171286855Y-87575284D02*
X171096379Y-87527665D01*
X171096379Y-87527665D02*
X171001141Y-87480046D01*
X171001141Y-87480046D02*
X170953522Y-87432427D01*
X170953522Y-87432427D02*
X170905903Y-87337189D01*
X170905903Y-87337189D02*
X170905903Y-87241951D01*
X170905903Y-87241951D02*
X170953522Y-87146713D01*
X170953522Y-87146713D02*
X171001141Y-87099094D01*
X171001141Y-87099094D02*
X171096379Y-87051475D01*
X171096379Y-87051475D02*
X171334474Y-87051475D01*
X171334474Y-87051475D02*
X171477331Y-87099094D01*
X173239236Y-88051475D02*
X172905903Y-87575284D01*
X172667808Y-88051475D02*
X172667808Y-87051475D01*
X172667808Y-87051475D02*
X173048760Y-87051475D01*
X173048760Y-87051475D02*
X173143998Y-87099094D01*
X173143998Y-87099094D02*
X173191617Y-87146713D01*
X173191617Y-87146713D02*
X173239236Y-87241951D01*
X173239236Y-87241951D02*
X173239236Y-87384808D01*
X173239236Y-87384808D02*
X173191617Y-87480046D01*
X173191617Y-87480046D02*
X173143998Y-87527665D01*
X173143998Y-87527665D02*
X173048760Y-87575284D01*
X173048760Y-87575284D02*
X172667808Y-87575284D01*
X173667808Y-87527665D02*
X174001141Y-87527665D01*
X174143998Y-88051475D02*
X173667808Y-88051475D01*
X173667808Y-88051475D02*
X173667808Y-87051475D01*
X173667808Y-87051475D02*
X174143998Y-87051475D01*
X174429713Y-87051475D02*
X175001141Y-87051475D01*
X174715427Y-88051475D02*
X174715427Y-87051475D01*
X175905903Y-88051475D02*
X175572570Y-87575284D01*
X175334475Y-88051475D02*
X175334475Y-87051475D01*
X175334475Y-87051475D02*
X175715427Y-87051475D01*
X175715427Y-87051475D02*
X175810665Y-87099094D01*
X175810665Y-87099094D02*
X175858284Y-87146713D01*
X175858284Y-87146713D02*
X175905903Y-87241951D01*
X175905903Y-87241951D02*
X175905903Y-87384808D01*
X175905903Y-87384808D02*
X175858284Y-87480046D01*
X175858284Y-87480046D02*
X175810665Y-87527665D01*
X175810665Y-87527665D02*
X175715427Y-87575284D01*
X175715427Y-87575284D02*
X175334475Y-87575284D01*
X176524951Y-87051475D02*
X176715427Y-87051475D01*
X176715427Y-87051475D02*
X176810665Y-87099094D01*
X176810665Y-87099094D02*
X176905903Y-87194332D01*
X176905903Y-87194332D02*
X176953522Y-87384808D01*
X176953522Y-87384808D02*
X176953522Y-87718141D01*
X176953522Y-87718141D02*
X176905903Y-87908617D01*
X176905903Y-87908617D02*
X176810665Y-88003856D01*
X176810665Y-88003856D02*
X176715427Y-88051475D01*
X176715427Y-88051475D02*
X176524951Y-88051475D01*
X176524951Y-88051475D02*
X176429713Y-88003856D01*
X176429713Y-88003856D02*
X176334475Y-87908617D01*
X176334475Y-87908617D02*
X176286856Y-87718141D01*
X176286856Y-87718141D02*
X176286856Y-87384808D01*
X176286856Y-87384808D02*
X176334475Y-87194332D01*
X176334475Y-87194332D02*
X176429713Y-87099094D01*
X176429713Y-87099094D02*
X176524951Y-87051475D01*
X168858284Y-89137609D02*
X169191617Y-89137609D01*
X169334474Y-89661419D02*
X168858284Y-89661419D01*
X168858284Y-89661419D02*
X168858284Y-88661419D01*
X168858284Y-88661419D02*
X169334474Y-88661419D01*
X170239236Y-89661419D02*
X169763046Y-89661419D01*
X169763046Y-89661419D02*
X169763046Y-88661419D01*
X170572570Y-89137609D02*
X170905903Y-89137609D01*
X171048760Y-89661419D02*
X170572570Y-89661419D01*
X170572570Y-89661419D02*
X170572570Y-88661419D01*
X170572570Y-88661419D02*
X171048760Y-88661419D01*
X172048760Y-89566180D02*
X172001141Y-89613800D01*
X172001141Y-89613800D02*
X171858284Y-89661419D01*
X171858284Y-89661419D02*
X171763046Y-89661419D01*
X171763046Y-89661419D02*
X171620189Y-89613800D01*
X171620189Y-89613800D02*
X171524951Y-89518561D01*
X171524951Y-89518561D02*
X171477332Y-89423323D01*
X171477332Y-89423323D02*
X171429713Y-89232847D01*
X171429713Y-89232847D02*
X171429713Y-89089990D01*
X171429713Y-89089990D02*
X171477332Y-88899514D01*
X171477332Y-88899514D02*
X171524951Y-88804276D01*
X171524951Y-88804276D02*
X171620189Y-88709038D01*
X171620189Y-88709038D02*
X171763046Y-88661419D01*
X171763046Y-88661419D02*
X171858284Y-88661419D01*
X171858284Y-88661419D02*
X172001141Y-88709038D01*
X172001141Y-88709038D02*
X172048760Y-88756657D01*
X172477332Y-89566180D02*
X172524951Y-89613800D01*
X172524951Y-89613800D02*
X172477332Y-89661419D01*
X172477332Y-89661419D02*
X172429713Y-89613800D01*
X172429713Y-89613800D02*
X172477332Y-89566180D01*
X172477332Y-89566180D02*
X172477332Y-89661419D01*
X174429713Y-88756657D02*
X174477332Y-88709038D01*
X174477332Y-88709038D02*
X174572570Y-88661419D01*
X174572570Y-88661419D02*
X174810665Y-88661419D01*
X174810665Y-88661419D02*
X174905903Y-88709038D01*
X174905903Y-88709038D02*
X174953522Y-88756657D01*
X174953522Y-88756657D02*
X175001141Y-88851895D01*
X175001141Y-88851895D02*
X175001141Y-88947133D01*
X175001141Y-88947133D02*
X174953522Y-89089990D01*
X174953522Y-89089990D02*
X174382094Y-89661419D01*
X174382094Y-89661419D02*
X175001141Y-89661419D01*
X175620189Y-88661419D02*
X175715427Y-88661419D01*
X175715427Y-88661419D02*
X175810665Y-88709038D01*
X175810665Y-88709038D02*
X175858284Y-88756657D01*
X175858284Y-88756657D02*
X175905903Y-88851895D01*
X175905903Y-88851895D02*
X175953522Y-89042371D01*
X175953522Y-89042371D02*
X175953522Y-89280466D01*
X175953522Y-89280466D02*
X175905903Y-89470942D01*
X175905903Y-89470942D02*
X175858284Y-89566180D01*
X175858284Y-89566180D02*
X175810665Y-89613800D01*
X175810665Y-89613800D02*
X175715427Y-89661419D01*
X175715427Y-89661419D02*
X175620189Y-89661419D01*
X175620189Y-89661419D02*
X175524951Y-89613800D01*
X175524951Y-89613800D02*
X175477332Y-89566180D01*
X175477332Y-89566180D02*
X175429713Y-89470942D01*
X175429713Y-89470942D02*
X175382094Y-89280466D01*
X175382094Y-89280466D02*
X175382094Y-89042371D01*
X175382094Y-89042371D02*
X175429713Y-88851895D01*
X175429713Y-88851895D02*
X175477332Y-88756657D01*
X175477332Y-88756657D02*
X175524951Y-88709038D01*
X175524951Y-88709038D02*
X175620189Y-88661419D01*
X176334475Y-88756657D02*
X176382094Y-88709038D01*
X176382094Y-88709038D02*
X176477332Y-88661419D01*
X176477332Y-88661419D02*
X176715427Y-88661419D01*
X176715427Y-88661419D02*
X176810665Y-88709038D01*
X176810665Y-88709038D02*
X176858284Y-88756657D01*
X176858284Y-88756657D02*
X176905903Y-88851895D01*
X176905903Y-88851895D02*
X176905903Y-88947133D01*
X176905903Y-88947133D02*
X176858284Y-89089990D01*
X176858284Y-89089990D02*
X176286856Y-89661419D01*
X176286856Y-89661419D02*
X176905903Y-89661419D01*
X177810665Y-88661419D02*
X177334475Y-88661419D01*
X177334475Y-88661419D02*
X177286856Y-89137609D01*
X177286856Y-89137609D02*
X177334475Y-89089990D01*
X177334475Y-89089990D02*
X177429713Y-89042371D01*
X177429713Y-89042371D02*
X177667808Y-89042371D01*
X177667808Y-89042371D02*
X177763046Y-89089990D01*
X177763046Y-89089990D02*
X177810665Y-89137609D01*
X177810665Y-89137609D02*
X177858284Y-89232847D01*
X177858284Y-89232847D02*
X177858284Y-89470942D01*
X177858284Y-89470942D02*
X177810665Y-89566180D01*
X177810665Y-89566180D02*
X177763046Y-89613800D01*
X177763046Y-89613800D02*
X177667808Y-89661419D01*
X177667808Y-89661419D02*
X177429713Y-89661419D01*
X177429713Y-89661419D02*
X177334475Y-89613800D01*
X177334475Y-89613800D02*
X177286856Y-89566180D01*
X171166503Y-91746704D02*
X171237931Y-91770514D01*
X171237931Y-91770514D02*
X171261741Y-91794323D01*
X171261741Y-91794323D02*
X171285550Y-91841942D01*
X171285550Y-91841942D02*
X171285550Y-91913371D01*
X171285550Y-91913371D02*
X171261741Y-91960990D01*
X171261741Y-91960990D02*
X171237931Y-91984800D01*
X171237931Y-91984800D02*
X171190312Y-92008609D01*
X171190312Y-92008609D02*
X170999836Y-92008609D01*
X170999836Y-92008609D02*
X170999836Y-91508609D01*
X170999836Y-91508609D02*
X171166503Y-91508609D01*
X171166503Y-91508609D02*
X171214122Y-91532419D01*
X171214122Y-91532419D02*
X171237931Y-91556228D01*
X171237931Y-91556228D02*
X171261741Y-91603847D01*
X171261741Y-91603847D02*
X171261741Y-91651466D01*
X171261741Y-91651466D02*
X171237931Y-91699085D01*
X171237931Y-91699085D02*
X171214122Y-91722895D01*
X171214122Y-91722895D02*
X171166503Y-91746704D01*
X171166503Y-91746704D02*
X170999836Y-91746704D01*
X171737931Y-92008609D02*
X171499836Y-92008609D01*
X171499836Y-92008609D02*
X171499836Y-91508609D01*
X171904598Y-91508609D02*
X171904598Y-91913371D01*
X171904598Y-91913371D02*
X171928408Y-91960990D01*
X171928408Y-91960990D02*
X171952217Y-91984800D01*
X171952217Y-91984800D02*
X171999836Y-92008609D01*
X171999836Y-92008609D02*
X172095074Y-92008609D01*
X172095074Y-92008609D02*
X172142693Y-91984800D01*
X172142693Y-91984800D02*
X172166503Y-91960990D01*
X172166503Y-91960990D02*
X172190312Y-91913371D01*
X172190312Y-91913371D02*
X172190312Y-91508609D01*
X172428408Y-91746704D02*
X172595075Y-91746704D01*
X172666503Y-92008609D02*
X172428408Y-92008609D01*
X172428408Y-92008609D02*
X172428408Y-91508609D01*
X172428408Y-91508609D02*
X172666503Y-91508609D01*
X202494246Y-91817805D02*
X202494246Y-91217805D01*
X202837103Y-91817805D02*
X202579960Y-91474948D01*
X202837103Y-91217805D02*
X202494246Y-91560662D01*
X203065674Y-91646376D02*
X203351389Y-91646376D01*
X203008531Y-91817805D02*
X203208531Y-91217805D01*
X203208531Y-91217805D02*
X203408531Y-91817805D01*
X203551389Y-91217805D02*
X203694246Y-91817805D01*
X203694246Y-91817805D02*
X203808532Y-91389234D01*
X203808532Y-91389234D02*
X203922817Y-91817805D01*
X203922817Y-91817805D02*
X204065675Y-91217805D01*
X204265674Y-91646376D02*
X204551389Y-91646376D01*
X204208531Y-91817805D02*
X204408531Y-91217805D01*
X204408531Y-91217805D02*
X204608531Y-91817805D01*
X205151389Y-91817805D02*
X204951389Y-91532091D01*
X204808532Y-91817805D02*
X204808532Y-91217805D01*
X204808532Y-91217805D02*
X205037103Y-91217805D01*
X205037103Y-91217805D02*
X205094246Y-91246376D01*
X205094246Y-91246376D02*
X205122817Y-91274948D01*
X205122817Y-91274948D02*
X205151389Y-91332091D01*
X205151389Y-91332091D02*
X205151389Y-91417805D01*
X205151389Y-91417805D02*
X205122817Y-91474948D01*
X205122817Y-91474948D02*
X205094246Y-91503519D01*
X205094246Y-91503519D02*
X205037103Y-91532091D01*
X205037103Y-91532091D02*
X204808532Y-91532091D01*
X205408532Y-91817805D02*
X205408532Y-91217805D01*
X202465674Y-92755200D02*
X202551389Y-92783771D01*
X202551389Y-92783771D02*
X202694246Y-92783771D01*
X202694246Y-92783771D02*
X202751389Y-92755200D01*
X202751389Y-92755200D02*
X202779960Y-92726628D01*
X202779960Y-92726628D02*
X202808531Y-92669485D01*
X202808531Y-92669485D02*
X202808531Y-92612342D01*
X202808531Y-92612342D02*
X202779960Y-92555200D01*
X202779960Y-92555200D02*
X202751389Y-92526628D01*
X202751389Y-92526628D02*
X202694246Y-92498057D01*
X202694246Y-92498057D02*
X202579960Y-92469485D01*
X202579960Y-92469485D02*
X202522817Y-92440914D01*
X202522817Y-92440914D02*
X202494246Y-92412342D01*
X202494246Y-92412342D02*
X202465674Y-92355200D01*
X202465674Y-92355200D02*
X202465674Y-92298057D01*
X202465674Y-92298057D02*
X202494246Y-92240914D01*
X202494246Y-92240914D02*
X202522817Y-92212342D01*
X202522817Y-92212342D02*
X202579960Y-92183771D01*
X202579960Y-92183771D02*
X202722817Y-92183771D01*
X202722817Y-92183771D02*
X202808531Y-92212342D01*
X203065675Y-92469485D02*
X203265675Y-92469485D01*
X203351389Y-92783771D02*
X203065675Y-92783771D01*
X203065675Y-92783771D02*
X203065675Y-92183771D01*
X203065675Y-92183771D02*
X203351389Y-92183771D01*
X203894246Y-92783771D02*
X203608532Y-92783771D01*
X203608532Y-92783771D02*
X203608532Y-92183771D01*
X204094246Y-92469485D02*
X204294246Y-92469485D01*
X204379960Y-92783771D02*
X204094246Y-92783771D01*
X204094246Y-92783771D02*
X204094246Y-92183771D01*
X204094246Y-92183771D02*
X204379960Y-92183771D01*
X204979960Y-92726628D02*
X204951388Y-92755200D01*
X204951388Y-92755200D02*
X204865674Y-92783771D01*
X204865674Y-92783771D02*
X204808531Y-92783771D01*
X204808531Y-92783771D02*
X204722817Y-92755200D01*
X204722817Y-92755200D02*
X204665674Y-92698057D01*
X204665674Y-92698057D02*
X204637103Y-92640914D01*
X204637103Y-92640914D02*
X204608531Y-92526628D01*
X204608531Y-92526628D02*
X204608531Y-92440914D01*
X204608531Y-92440914D02*
X204637103Y-92326628D01*
X204637103Y-92326628D02*
X204665674Y-92269485D01*
X204665674Y-92269485D02*
X204722817Y-92212342D01*
X204722817Y-92212342D02*
X204808531Y-92183771D01*
X204808531Y-92183771D02*
X204865674Y-92183771D01*
X204865674Y-92183771D02*
X204951388Y-92212342D01*
X204951388Y-92212342D02*
X204979960Y-92240914D01*
X205151388Y-92183771D02*
X205494246Y-92183771D01*
X205322817Y-92783771D02*
X205322817Y-92183771D01*
X199776446Y-91817805D02*
X199776446Y-91217805D01*
X199776446Y-91217805D02*
X199976446Y-91646376D01*
X199976446Y-91646376D02*
X200176446Y-91217805D01*
X200176446Y-91217805D02*
X200176446Y-91817805D01*
X200433588Y-91789234D02*
X200519303Y-91817805D01*
X200519303Y-91817805D02*
X200662160Y-91817805D01*
X200662160Y-91817805D02*
X200719303Y-91789234D01*
X200719303Y-91789234D02*
X200747874Y-91760662D01*
X200747874Y-91760662D02*
X200776445Y-91703519D01*
X200776445Y-91703519D02*
X200776445Y-91646376D01*
X200776445Y-91646376D02*
X200747874Y-91589234D01*
X200747874Y-91589234D02*
X200719303Y-91560662D01*
X200719303Y-91560662D02*
X200662160Y-91532091D01*
X200662160Y-91532091D02*
X200547874Y-91503519D01*
X200547874Y-91503519D02*
X200490731Y-91474948D01*
X200490731Y-91474948D02*
X200462160Y-91446376D01*
X200462160Y-91446376D02*
X200433588Y-91389234D01*
X200433588Y-91389234D02*
X200433588Y-91332091D01*
X200433588Y-91332091D02*
X200462160Y-91274948D01*
X200462160Y-91274948D02*
X200490731Y-91246376D01*
X200490731Y-91246376D02*
X200547874Y-91217805D01*
X200547874Y-91217805D02*
X200690731Y-91217805D01*
X200690731Y-91217805D02*
X200776445Y-91246376D01*
X201033589Y-91817805D02*
X201033589Y-91217805D01*
X201033589Y-91217805D02*
X201233589Y-91646376D01*
X201233589Y-91646376D02*
X201433589Y-91217805D01*
X201433589Y-91217805D02*
X201433589Y-91817805D01*
X199776446Y-92783771D02*
X199776446Y-92183771D01*
X199776446Y-92183771D02*
X200119303Y-92783771D01*
X200119303Y-92783771D02*
X200119303Y-92183771D01*
X200319302Y-92183771D02*
X200662160Y-92183771D01*
X200490731Y-92783771D02*
X200490731Y-92183771D01*
X200833588Y-92755200D02*
X200919303Y-92783771D01*
X200919303Y-92783771D02*
X201062160Y-92783771D01*
X201062160Y-92783771D02*
X201119303Y-92755200D01*
X201119303Y-92755200D02*
X201147874Y-92726628D01*
X201147874Y-92726628D02*
X201176445Y-92669485D01*
X201176445Y-92669485D02*
X201176445Y-92612342D01*
X201176445Y-92612342D02*
X201147874Y-92555200D01*
X201147874Y-92555200D02*
X201119303Y-92526628D01*
X201119303Y-92526628D02*
X201062160Y-92498057D01*
X201062160Y-92498057D02*
X200947874Y-92469485D01*
X200947874Y-92469485D02*
X200890731Y-92440914D01*
X200890731Y-92440914D02*
X200862160Y-92412342D01*
X200862160Y-92412342D02*
X200833588Y-92355200D01*
X200833588Y-92355200D02*
X200833588Y-92298057D01*
X200833588Y-92298057D02*
X200862160Y-92240914D01*
X200862160Y-92240914D02*
X200890731Y-92212342D01*
X200890731Y-92212342D02*
X200947874Y-92183771D01*
X200947874Y-92183771D02*
X201090731Y-92183771D01*
X201090731Y-92183771D02*
X201176445Y-92212342D01*
X201776446Y-92726628D02*
X201747874Y-92755200D01*
X201747874Y-92755200D02*
X201662160Y-92783771D01*
X201662160Y-92783771D02*
X201605017Y-92783771D01*
X201605017Y-92783771D02*
X201519303Y-92755200D01*
X201519303Y-92755200D02*
X201462160Y-92698057D01*
X201462160Y-92698057D02*
X201433589Y-92640914D01*
X201433589Y-92640914D02*
X201405017Y-92526628D01*
X201405017Y-92526628D02*
X201405017Y-92440914D01*
X201405017Y-92440914D02*
X201433589Y-92326628D01*
X201433589Y-92326628D02*
X201462160Y-92269485D01*
X201462160Y-92269485D02*
X201519303Y-92212342D01*
X201519303Y-92212342D02*
X201605017Y-92183771D01*
X201605017Y-92183771D02*
X201662160Y-92183771D01*
X201662160Y-92183771D02*
X201747874Y-92212342D01*
X201747874Y-92212342D02*
X201776446Y-92240914D01*
D11*
X207034019Y-79109866D02*
X206557828Y-79443199D01*
X207034019Y-79681294D02*
X206034019Y-79681294D01*
X206034019Y-79681294D02*
X206034019Y-79300342D01*
X206034019Y-79300342D02*
X206081638Y-79205104D01*
X206081638Y-79205104D02*
X206129257Y-79157485D01*
X206129257Y-79157485D02*
X206224495Y-79109866D01*
X206224495Y-79109866D02*
X206367352Y-79109866D01*
X206367352Y-79109866D02*
X206462590Y-79157485D01*
X206462590Y-79157485D02*
X206510209Y-79205104D01*
X206510209Y-79205104D02*
X206557828Y-79300342D01*
X206557828Y-79300342D02*
X206557828Y-79681294D01*
X206034019Y-78776532D02*
X206034019Y-78109866D01*
X206034019Y-78109866D02*
X207034019Y-78538437D01*
X200142495Y-74159819D02*
X200142495Y-74969342D01*
X200142495Y-74969342D02*
X200190114Y-75064580D01*
X200190114Y-75064580D02*
X200237733Y-75112200D01*
X200237733Y-75112200D02*
X200332971Y-75159819D01*
X200332971Y-75159819D02*
X200523447Y-75159819D01*
X200523447Y-75159819D02*
X200618685Y-75112200D01*
X200618685Y-75112200D02*
X200666304Y-75064580D01*
X200666304Y-75064580D02*
X200713923Y-74969342D01*
X200713923Y-74969342D02*
X200713923Y-74159819D01*
X201094876Y-74159819D02*
X201713923Y-74159819D01*
X201713923Y-74159819D02*
X201380590Y-74540771D01*
X201380590Y-74540771D02*
X201523447Y-74540771D01*
X201523447Y-74540771D02*
X201618685Y-74588390D01*
X201618685Y-74588390D02*
X201666304Y-74636009D01*
X201666304Y-74636009D02*
X201713923Y-74731247D01*
X201713923Y-74731247D02*
X201713923Y-74969342D01*
X201713923Y-74969342D02*
X201666304Y-75064580D01*
X201666304Y-75064580D02*
X201618685Y-75112200D01*
X201618685Y-75112200D02*
X201523447Y-75159819D01*
X201523447Y-75159819D02*
X201237733Y-75159819D01*
X201237733Y-75159819D02*
X201142495Y-75112200D01*
X201142495Y-75112200D02*
X201094876Y-75064580D01*
X182408533Y-75695980D02*
X182360914Y-75743600D01*
X182360914Y-75743600D02*
X182218057Y-75791219D01*
X182218057Y-75791219D02*
X182122819Y-75791219D01*
X182122819Y-75791219D02*
X181979962Y-75743600D01*
X181979962Y-75743600D02*
X181884724Y-75648361D01*
X181884724Y-75648361D02*
X181837105Y-75553123D01*
X181837105Y-75553123D02*
X181789486Y-75362647D01*
X181789486Y-75362647D02*
X181789486Y-75219790D01*
X181789486Y-75219790D02*
X181837105Y-75029314D01*
X181837105Y-75029314D02*
X181884724Y-74934076D01*
X181884724Y-74934076D02*
X181979962Y-74838838D01*
X181979962Y-74838838D02*
X182122819Y-74791219D01*
X182122819Y-74791219D02*
X182218057Y-74791219D01*
X182218057Y-74791219D02*
X182360914Y-74838838D01*
X182360914Y-74838838D02*
X182408533Y-74886457D01*
X182979962Y-75219790D02*
X182884724Y-75172171D01*
X182884724Y-75172171D02*
X182837105Y-75124552D01*
X182837105Y-75124552D02*
X182789486Y-75029314D01*
X182789486Y-75029314D02*
X182789486Y-74981695D01*
X182789486Y-74981695D02*
X182837105Y-74886457D01*
X182837105Y-74886457D02*
X182884724Y-74838838D01*
X182884724Y-74838838D02*
X182979962Y-74791219D01*
X182979962Y-74791219D02*
X183170438Y-74791219D01*
X183170438Y-74791219D02*
X183265676Y-74838838D01*
X183265676Y-74838838D02*
X183313295Y-74886457D01*
X183313295Y-74886457D02*
X183360914Y-74981695D01*
X183360914Y-74981695D02*
X183360914Y-75029314D01*
X183360914Y-75029314D02*
X183313295Y-75124552D01*
X183313295Y-75124552D02*
X183265676Y-75172171D01*
X183265676Y-75172171D02*
X183170438Y-75219790D01*
X183170438Y-75219790D02*
X182979962Y-75219790D01*
X182979962Y-75219790D02*
X182884724Y-75267409D01*
X182884724Y-75267409D02*
X182837105Y-75315028D01*
X182837105Y-75315028D02*
X182789486Y-75410266D01*
X182789486Y-75410266D02*
X182789486Y-75600742D01*
X182789486Y-75600742D02*
X182837105Y-75695980D01*
X182837105Y-75695980D02*
X182884724Y-75743600D01*
X182884724Y-75743600D02*
X182979962Y-75791219D01*
X182979962Y-75791219D02*
X183170438Y-75791219D01*
X183170438Y-75791219D02*
X183265676Y-75743600D01*
X183265676Y-75743600D02*
X183313295Y-75695980D01*
X183313295Y-75695980D02*
X183360914Y-75600742D01*
X183360914Y-75600742D02*
X183360914Y-75410266D01*
X183360914Y-75410266D02*
X183313295Y-75315028D01*
X183313295Y-75315028D02*
X183265676Y-75267409D01*
X183265676Y-75267409D02*
X183170438Y-75219790D01*
X180808333Y-92809219D02*
X180475000Y-92333028D01*
X180236905Y-92809219D02*
X180236905Y-91809219D01*
X180236905Y-91809219D02*
X180617857Y-91809219D01*
X180617857Y-91809219D02*
X180713095Y-91856838D01*
X180713095Y-91856838D02*
X180760714Y-91904457D01*
X180760714Y-91904457D02*
X180808333Y-91999695D01*
X180808333Y-91999695D02*
X180808333Y-92142552D01*
X180808333Y-92142552D02*
X180760714Y-92237790D01*
X180760714Y-92237790D02*
X180713095Y-92285409D01*
X180713095Y-92285409D02*
X180617857Y-92333028D01*
X180617857Y-92333028D02*
X180236905Y-92333028D01*
X181665476Y-92142552D02*
X181665476Y-92809219D01*
X181427381Y-91761600D02*
X181189286Y-92475885D01*
X181189286Y-92475885D02*
X181808333Y-92475885D01*
X179627333Y-80826780D02*
X179579714Y-80874400D01*
X179579714Y-80874400D02*
X179436857Y-80922019D01*
X179436857Y-80922019D02*
X179341619Y-80922019D01*
X179341619Y-80922019D02*
X179198762Y-80874400D01*
X179198762Y-80874400D02*
X179103524Y-80779161D01*
X179103524Y-80779161D02*
X179055905Y-80683923D01*
X179055905Y-80683923D02*
X179008286Y-80493447D01*
X179008286Y-80493447D02*
X179008286Y-80350590D01*
X179008286Y-80350590D02*
X179055905Y-80160114D01*
X179055905Y-80160114D02*
X179103524Y-80064876D01*
X179103524Y-80064876D02*
X179198762Y-79969638D01*
X179198762Y-79969638D02*
X179341619Y-79922019D01*
X179341619Y-79922019D02*
X179436857Y-79922019D01*
X179436857Y-79922019D02*
X179579714Y-79969638D01*
X179579714Y-79969638D02*
X179627333Y-80017257D01*
X180008286Y-80017257D02*
X180055905Y-79969638D01*
X180055905Y-79969638D02*
X180151143Y-79922019D01*
X180151143Y-79922019D02*
X180389238Y-79922019D01*
X180389238Y-79922019D02*
X180484476Y-79969638D01*
X180484476Y-79969638D02*
X180532095Y-80017257D01*
X180532095Y-80017257D02*
X180579714Y-80112495D01*
X180579714Y-80112495D02*
X180579714Y-80207733D01*
X180579714Y-80207733D02*
X180532095Y-80350590D01*
X180532095Y-80350590D02*
X179960667Y-80922019D01*
X179960667Y-80922019D02*
X180579714Y-80922019D01*
X194575133Y-76959619D02*
X194241800Y-76483428D01*
X194003705Y-76959619D02*
X194003705Y-75959619D01*
X194003705Y-75959619D02*
X194384657Y-75959619D01*
X194384657Y-75959619D02*
X194479895Y-76007238D01*
X194479895Y-76007238D02*
X194527514Y-76054857D01*
X194527514Y-76054857D02*
X194575133Y-76150095D01*
X194575133Y-76150095D02*
X194575133Y-76292952D01*
X194575133Y-76292952D02*
X194527514Y-76388190D01*
X194527514Y-76388190D02*
X194479895Y-76435809D01*
X194479895Y-76435809D02*
X194384657Y-76483428D01*
X194384657Y-76483428D02*
X194003705Y-76483428D01*
X194908467Y-75959619D02*
X195527514Y-75959619D01*
X195527514Y-75959619D02*
X195194181Y-76340571D01*
X195194181Y-76340571D02*
X195337038Y-76340571D01*
X195337038Y-76340571D02*
X195432276Y-76388190D01*
X195432276Y-76388190D02*
X195479895Y-76435809D01*
X195479895Y-76435809D02*
X195527514Y-76531047D01*
X195527514Y-76531047D02*
X195527514Y-76769142D01*
X195527514Y-76769142D02*
X195479895Y-76864380D01*
X195479895Y-76864380D02*
X195432276Y-76912000D01*
X195432276Y-76912000D02*
X195337038Y-76959619D01*
X195337038Y-76959619D02*
X195051324Y-76959619D01*
X195051324Y-76959619D02*
X194956086Y-76912000D01*
X194956086Y-76912000D02*
X194908467Y-76864380D01*
X182256133Y-80877580D02*
X182208514Y-80925200D01*
X182208514Y-80925200D02*
X182065657Y-80972819D01*
X182065657Y-80972819D02*
X181970419Y-80972819D01*
X181970419Y-80972819D02*
X181827562Y-80925200D01*
X181827562Y-80925200D02*
X181732324Y-80829961D01*
X181732324Y-80829961D02*
X181684705Y-80734723D01*
X181684705Y-80734723D02*
X181637086Y-80544247D01*
X181637086Y-80544247D02*
X181637086Y-80401390D01*
X181637086Y-80401390D02*
X181684705Y-80210914D01*
X181684705Y-80210914D02*
X181732324Y-80115676D01*
X181732324Y-80115676D02*
X181827562Y-80020438D01*
X181827562Y-80020438D02*
X181970419Y-79972819D01*
X181970419Y-79972819D02*
X182065657Y-79972819D01*
X182065657Y-79972819D02*
X182208514Y-80020438D01*
X182208514Y-80020438D02*
X182256133Y-80068057D01*
X183208514Y-80972819D02*
X182637086Y-80972819D01*
X182922800Y-80972819D02*
X182922800Y-79972819D01*
X182922800Y-79972819D02*
X182827562Y-80115676D01*
X182827562Y-80115676D02*
X182732324Y-80210914D01*
X182732324Y-80210914D02*
X182637086Y-80258533D01*
X175654033Y-92072619D02*
X175320700Y-91596428D01*
X175082605Y-92072619D02*
X175082605Y-91072619D01*
X175082605Y-91072619D02*
X175463557Y-91072619D01*
X175463557Y-91072619D02*
X175558795Y-91120238D01*
X175558795Y-91120238D02*
X175606414Y-91167857D01*
X175606414Y-91167857D02*
X175654033Y-91263095D01*
X175654033Y-91263095D02*
X175654033Y-91405952D01*
X175654033Y-91405952D02*
X175606414Y-91501190D01*
X175606414Y-91501190D02*
X175558795Y-91548809D01*
X175558795Y-91548809D02*
X175463557Y-91596428D01*
X175463557Y-91596428D02*
X175082605Y-91596428D01*
X176558795Y-91072619D02*
X176082605Y-91072619D01*
X176082605Y-91072619D02*
X176034986Y-91548809D01*
X176034986Y-91548809D02*
X176082605Y-91501190D01*
X176082605Y-91501190D02*
X176177843Y-91453571D01*
X176177843Y-91453571D02*
X176415938Y-91453571D01*
X176415938Y-91453571D02*
X176511176Y-91501190D01*
X176511176Y-91501190D02*
X176558795Y-91548809D01*
X176558795Y-91548809D02*
X176606414Y-91644047D01*
X176606414Y-91644047D02*
X176606414Y-91882142D01*
X176606414Y-91882142D02*
X176558795Y-91977380D01*
X176558795Y-91977380D02*
X176511176Y-92025000D01*
X176511176Y-92025000D02*
X176415938Y-92072619D01*
X176415938Y-92072619D02*
X176177843Y-92072619D01*
X176177843Y-92072619D02*
X176082605Y-92025000D01*
X176082605Y-92025000D02*
X176034986Y-91977380D01*
X182230733Y-86186180D02*
X182183114Y-86233800D01*
X182183114Y-86233800D02*
X182040257Y-86281419D01*
X182040257Y-86281419D02*
X181945019Y-86281419D01*
X181945019Y-86281419D02*
X181802162Y-86233800D01*
X181802162Y-86233800D02*
X181706924Y-86138561D01*
X181706924Y-86138561D02*
X181659305Y-86043323D01*
X181659305Y-86043323D02*
X181611686Y-85852847D01*
X181611686Y-85852847D02*
X181611686Y-85709990D01*
X181611686Y-85709990D02*
X181659305Y-85519514D01*
X181659305Y-85519514D02*
X181706924Y-85424276D01*
X181706924Y-85424276D02*
X181802162Y-85329038D01*
X181802162Y-85329038D02*
X181945019Y-85281419D01*
X181945019Y-85281419D02*
X182040257Y-85281419D01*
X182040257Y-85281419D02*
X182183114Y-85329038D01*
X182183114Y-85329038D02*
X182230733Y-85376657D01*
X183087876Y-85281419D02*
X182897400Y-85281419D01*
X182897400Y-85281419D02*
X182802162Y-85329038D01*
X182802162Y-85329038D02*
X182754543Y-85376657D01*
X182754543Y-85376657D02*
X182659305Y-85519514D01*
X182659305Y-85519514D02*
X182611686Y-85709990D01*
X182611686Y-85709990D02*
X182611686Y-86090942D01*
X182611686Y-86090942D02*
X182659305Y-86186180D01*
X182659305Y-86186180D02*
X182706924Y-86233800D01*
X182706924Y-86233800D02*
X182802162Y-86281419D01*
X182802162Y-86281419D02*
X182992638Y-86281419D01*
X182992638Y-86281419D02*
X183087876Y-86233800D01*
X183087876Y-86233800D02*
X183135495Y-86186180D01*
X183135495Y-86186180D02*
X183183114Y-86090942D01*
X183183114Y-86090942D02*
X183183114Y-85852847D01*
X183183114Y-85852847D02*
X183135495Y-85757609D01*
X183135495Y-85757609D02*
X183087876Y-85709990D01*
X183087876Y-85709990D02*
X182992638Y-85662371D01*
X182992638Y-85662371D02*
X182802162Y-85662371D01*
X182802162Y-85662371D02*
X182706924Y-85709990D01*
X182706924Y-85709990D02*
X182659305Y-85757609D01*
X182659305Y-85757609D02*
X182611686Y-85852847D01*
X184592933Y-86236980D02*
X184545314Y-86284600D01*
X184545314Y-86284600D02*
X184402457Y-86332219D01*
X184402457Y-86332219D02*
X184307219Y-86332219D01*
X184307219Y-86332219D02*
X184164362Y-86284600D01*
X184164362Y-86284600D02*
X184069124Y-86189361D01*
X184069124Y-86189361D02*
X184021505Y-86094123D01*
X184021505Y-86094123D02*
X183973886Y-85903647D01*
X183973886Y-85903647D02*
X183973886Y-85760790D01*
X183973886Y-85760790D02*
X184021505Y-85570314D01*
X184021505Y-85570314D02*
X184069124Y-85475076D01*
X184069124Y-85475076D02*
X184164362Y-85379838D01*
X184164362Y-85379838D02*
X184307219Y-85332219D01*
X184307219Y-85332219D02*
X184402457Y-85332219D01*
X184402457Y-85332219D02*
X184545314Y-85379838D01*
X184545314Y-85379838D02*
X184592933Y-85427457D01*
X184926267Y-85332219D02*
X185592933Y-85332219D01*
X185592933Y-85332219D02*
X185164362Y-86332219D01*
X180447961Y-95342857D02*
X180352723Y-95295238D01*
X180352723Y-95295238D02*
X180257485Y-95200000D01*
X180257485Y-95200000D02*
X180114628Y-95057142D01*
X180114628Y-95057142D02*
X180019390Y-95009523D01*
X180019390Y-95009523D02*
X179924152Y-95009523D01*
X179971771Y-95247619D02*
X179876533Y-95200000D01*
X179876533Y-95200000D02*
X179781295Y-95104761D01*
X179781295Y-95104761D02*
X179733676Y-94914285D01*
X179733676Y-94914285D02*
X179733676Y-94580952D01*
X179733676Y-94580952D02*
X179781295Y-94390476D01*
X179781295Y-94390476D02*
X179876533Y-94295238D01*
X179876533Y-94295238D02*
X179971771Y-94247619D01*
X179971771Y-94247619D02*
X180162247Y-94247619D01*
X180162247Y-94247619D02*
X180257485Y-94295238D01*
X180257485Y-94295238D02*
X180352723Y-94390476D01*
X180352723Y-94390476D02*
X180400342Y-94580952D01*
X180400342Y-94580952D02*
X180400342Y-94914285D01*
X180400342Y-94914285D02*
X180352723Y-95104761D01*
X180352723Y-95104761D02*
X180257485Y-95200000D01*
X180257485Y-95200000D02*
X180162247Y-95247619D01*
X180162247Y-95247619D02*
X179971771Y-95247619D01*
X181352723Y-95247619D02*
X180781295Y-95247619D01*
X181067009Y-95247619D02*
X181067009Y-94247619D01*
X181067009Y-94247619D02*
X180971771Y-94390476D01*
X180971771Y-94390476D02*
X180876533Y-94485714D01*
X180876533Y-94485714D02*
X180781295Y-94533333D01*
X192238333Y-76934219D02*
X191905000Y-76458028D01*
X191666905Y-76934219D02*
X191666905Y-75934219D01*
X191666905Y-75934219D02*
X192047857Y-75934219D01*
X192047857Y-75934219D02*
X192143095Y-75981838D01*
X192143095Y-75981838D02*
X192190714Y-76029457D01*
X192190714Y-76029457D02*
X192238333Y-76124695D01*
X192238333Y-76124695D02*
X192238333Y-76267552D01*
X192238333Y-76267552D02*
X192190714Y-76362790D01*
X192190714Y-76362790D02*
X192143095Y-76410409D01*
X192143095Y-76410409D02*
X192047857Y-76458028D01*
X192047857Y-76458028D02*
X191666905Y-76458028D01*
X193190714Y-76934219D02*
X192619286Y-76934219D01*
X192905000Y-76934219D02*
X192905000Y-75934219D01*
X192905000Y-75934219D02*
X192809762Y-76077076D01*
X192809762Y-76077076D02*
X192714524Y-76172314D01*
X192714524Y-76172314D02*
X192619286Y-76219933D01*
X197989866Y-94374619D02*
X197989866Y-95088904D01*
X197989866Y-95088904D02*
X197942247Y-95231761D01*
X197942247Y-95231761D02*
X197847009Y-95327000D01*
X197847009Y-95327000D02*
X197704152Y-95374619D01*
X197704152Y-95374619D02*
X197608914Y-95374619D01*
X198418438Y-94469857D02*
X198466057Y-94422238D01*
X198466057Y-94422238D02*
X198561295Y-94374619D01*
X198561295Y-94374619D02*
X198799390Y-94374619D01*
X198799390Y-94374619D02*
X198894628Y-94422238D01*
X198894628Y-94422238D02*
X198942247Y-94469857D01*
X198942247Y-94469857D02*
X198989866Y-94565095D01*
X198989866Y-94565095D02*
X198989866Y-94660333D01*
X198989866Y-94660333D02*
X198942247Y-94803190D01*
X198942247Y-94803190D02*
X198370819Y-95374619D01*
X198370819Y-95374619D02*
X198989866Y-95374619D01*
X203896933Y-74705380D02*
X203849314Y-74753000D01*
X203849314Y-74753000D02*
X203706457Y-74800619D01*
X203706457Y-74800619D02*
X203611219Y-74800619D01*
X203611219Y-74800619D02*
X203468362Y-74753000D01*
X203468362Y-74753000D02*
X203373124Y-74657761D01*
X203373124Y-74657761D02*
X203325505Y-74562523D01*
X203325505Y-74562523D02*
X203277886Y-74372047D01*
X203277886Y-74372047D02*
X203277886Y-74229190D01*
X203277886Y-74229190D02*
X203325505Y-74038714D01*
X203325505Y-74038714D02*
X203373124Y-73943476D01*
X203373124Y-73943476D02*
X203468362Y-73848238D01*
X203468362Y-73848238D02*
X203611219Y-73800619D01*
X203611219Y-73800619D02*
X203706457Y-73800619D01*
X203706457Y-73800619D02*
X203849314Y-73848238D01*
X203849314Y-73848238D02*
X203896933Y-73895857D01*
X204373124Y-74800619D02*
X204563600Y-74800619D01*
X204563600Y-74800619D02*
X204658838Y-74753000D01*
X204658838Y-74753000D02*
X204706457Y-74705380D01*
X204706457Y-74705380D02*
X204801695Y-74562523D01*
X204801695Y-74562523D02*
X204849314Y-74372047D01*
X204849314Y-74372047D02*
X204849314Y-73991095D01*
X204849314Y-73991095D02*
X204801695Y-73895857D01*
X204801695Y-73895857D02*
X204754076Y-73848238D01*
X204754076Y-73848238D02*
X204658838Y-73800619D01*
X204658838Y-73800619D02*
X204468362Y-73800619D01*
X204468362Y-73800619D02*
X204373124Y-73848238D01*
X204373124Y-73848238D02*
X204325505Y-73895857D01*
X204325505Y-73895857D02*
X204277886Y-73991095D01*
X204277886Y-73991095D02*
X204277886Y-74229190D01*
X204277886Y-74229190D02*
X204325505Y-74324428D01*
X204325505Y-74324428D02*
X204373124Y-74372047D01*
X204373124Y-74372047D02*
X204468362Y-74419666D01*
X204468362Y-74419666D02*
X204658838Y-74419666D01*
X204658838Y-74419666D02*
X204754076Y-74372047D01*
X204754076Y-74372047D02*
X204801695Y-74324428D01*
X204801695Y-74324428D02*
X204849314Y-74229190D01*
X170810505Y-74530019D02*
X170810505Y-73530019D01*
X170810505Y-73530019D02*
X171048600Y-73530019D01*
X171048600Y-73530019D02*
X171191457Y-73577638D01*
X171191457Y-73577638D02*
X171286695Y-73672876D01*
X171286695Y-73672876D02*
X171334314Y-73768114D01*
X171334314Y-73768114D02*
X171381933Y-73958590D01*
X171381933Y-73958590D02*
X171381933Y-74101447D01*
X171381933Y-74101447D02*
X171334314Y-74291923D01*
X171334314Y-74291923D02*
X171286695Y-74387161D01*
X171286695Y-74387161D02*
X171191457Y-74482400D01*
X171191457Y-74482400D02*
X171048600Y-74530019D01*
X171048600Y-74530019D02*
X170810505Y-74530019D01*
X171762886Y-73625257D02*
X171810505Y-73577638D01*
X171810505Y-73577638D02*
X171905743Y-73530019D01*
X171905743Y-73530019D02*
X172143838Y-73530019D01*
X172143838Y-73530019D02*
X172239076Y-73577638D01*
X172239076Y-73577638D02*
X172286695Y-73625257D01*
X172286695Y-73625257D02*
X172334314Y-73720495D01*
X172334314Y-73720495D02*
X172334314Y-73815733D01*
X172334314Y-73815733D02*
X172286695Y-73958590D01*
X172286695Y-73958590D02*
X171715267Y-74530019D01*
X171715267Y-74530019D02*
X172334314Y-74530019D01*
X168603705Y-91920219D02*
X168603705Y-90920219D01*
X168603705Y-90920219D02*
X168841800Y-90920219D01*
X168841800Y-90920219D02*
X168984657Y-90967838D01*
X168984657Y-90967838D02*
X169079895Y-91063076D01*
X169079895Y-91063076D02*
X169127514Y-91158314D01*
X169127514Y-91158314D02*
X169175133Y-91348790D01*
X169175133Y-91348790D02*
X169175133Y-91491647D01*
X169175133Y-91491647D02*
X169127514Y-91682123D01*
X169127514Y-91682123D02*
X169079895Y-91777361D01*
X169079895Y-91777361D02*
X168984657Y-91872600D01*
X168984657Y-91872600D02*
X168841800Y-91920219D01*
X168841800Y-91920219D02*
X168603705Y-91920219D01*
X170127514Y-91920219D02*
X169556086Y-91920219D01*
X169841800Y-91920219D02*
X169841800Y-90920219D01*
X169841800Y-90920219D02*
X169746562Y-91063076D01*
X169746562Y-91063076D02*
X169651324Y-91158314D01*
X169651324Y-91158314D02*
X169556086Y-91205933D01*
X193152733Y-74857780D02*
X193105114Y-74905400D01*
X193105114Y-74905400D02*
X192962257Y-74953019D01*
X192962257Y-74953019D02*
X192867019Y-74953019D01*
X192867019Y-74953019D02*
X192724162Y-74905400D01*
X192724162Y-74905400D02*
X192628924Y-74810161D01*
X192628924Y-74810161D02*
X192581305Y-74714923D01*
X192581305Y-74714923D02*
X192533686Y-74524447D01*
X192533686Y-74524447D02*
X192533686Y-74381590D01*
X192533686Y-74381590D02*
X192581305Y-74191114D01*
X192581305Y-74191114D02*
X192628924Y-74095876D01*
X192628924Y-74095876D02*
X192724162Y-74000638D01*
X192724162Y-74000638D02*
X192867019Y-73953019D01*
X192867019Y-73953019D02*
X192962257Y-73953019D01*
X192962257Y-73953019D02*
X193105114Y-74000638D01*
X193105114Y-74000638D02*
X193152733Y-74048257D01*
X194009876Y-74286352D02*
X194009876Y-74953019D01*
X193771781Y-73905400D02*
X193533686Y-74619685D01*
X193533686Y-74619685D02*
X194152733Y-74619685D01*
X179817733Y-86186180D02*
X179770114Y-86233800D01*
X179770114Y-86233800D02*
X179627257Y-86281419D01*
X179627257Y-86281419D02*
X179532019Y-86281419D01*
X179532019Y-86281419D02*
X179389162Y-86233800D01*
X179389162Y-86233800D02*
X179293924Y-86138561D01*
X179293924Y-86138561D02*
X179246305Y-86043323D01*
X179246305Y-86043323D02*
X179198686Y-85852847D01*
X179198686Y-85852847D02*
X179198686Y-85709990D01*
X179198686Y-85709990D02*
X179246305Y-85519514D01*
X179246305Y-85519514D02*
X179293924Y-85424276D01*
X179293924Y-85424276D02*
X179389162Y-85329038D01*
X179389162Y-85329038D02*
X179532019Y-85281419D01*
X179532019Y-85281419D02*
X179627257Y-85281419D01*
X179627257Y-85281419D02*
X179770114Y-85329038D01*
X179770114Y-85329038D02*
X179817733Y-85376657D01*
X180722495Y-85281419D02*
X180246305Y-85281419D01*
X180246305Y-85281419D02*
X180198686Y-85757609D01*
X180198686Y-85757609D02*
X180246305Y-85709990D01*
X180246305Y-85709990D02*
X180341543Y-85662371D01*
X180341543Y-85662371D02*
X180579638Y-85662371D01*
X180579638Y-85662371D02*
X180674876Y-85709990D01*
X180674876Y-85709990D02*
X180722495Y-85757609D01*
X180722495Y-85757609D02*
X180770114Y-85852847D01*
X180770114Y-85852847D02*
X180770114Y-86090942D01*
X180770114Y-86090942D02*
X180722495Y-86186180D01*
X180722495Y-86186180D02*
X180674876Y-86233800D01*
X180674876Y-86233800D02*
X180579638Y-86281419D01*
X180579638Y-86281419D02*
X180341543Y-86281419D01*
X180341543Y-86281419D02*
X180246305Y-86233800D01*
X180246305Y-86233800D02*
X180198686Y-86186180D01*
X206914819Y-87504494D02*
X205914819Y-87504494D01*
X205914819Y-87504494D02*
X205914819Y-87266399D01*
X205914819Y-87266399D02*
X205962438Y-87123542D01*
X205962438Y-87123542D02*
X206057676Y-87028304D01*
X206057676Y-87028304D02*
X206152914Y-86980685D01*
X206152914Y-86980685D02*
X206343390Y-86933066D01*
X206343390Y-86933066D02*
X206486247Y-86933066D01*
X206486247Y-86933066D02*
X206676723Y-86980685D01*
X206676723Y-86980685D02*
X206771961Y-87028304D01*
X206771961Y-87028304D02*
X206867200Y-87123542D01*
X206867200Y-87123542D02*
X206914819Y-87266399D01*
X206914819Y-87266399D02*
X206914819Y-87504494D01*
X205914819Y-86599732D02*
X205914819Y-85980685D01*
X205914819Y-85980685D02*
X206295771Y-86314018D01*
X206295771Y-86314018D02*
X206295771Y-86171161D01*
X206295771Y-86171161D02*
X206343390Y-86075923D01*
X206343390Y-86075923D02*
X206391009Y-86028304D01*
X206391009Y-86028304D02*
X206486247Y-85980685D01*
X206486247Y-85980685D02*
X206724342Y-85980685D01*
X206724342Y-85980685D02*
X206819580Y-86028304D01*
X206819580Y-86028304D02*
X206867200Y-86075923D01*
X206867200Y-86075923D02*
X206914819Y-86171161D01*
X206914819Y-86171161D02*
X206914819Y-86456875D01*
X206914819Y-86456875D02*
X206867200Y-86552113D01*
X206867200Y-86552113D02*
X206819580Y-86599732D01*
X194081495Y-89904219D02*
X194081495Y-90713742D01*
X194081495Y-90713742D02*
X194129114Y-90808980D01*
X194129114Y-90808980D02*
X194176733Y-90856600D01*
X194176733Y-90856600D02*
X194271971Y-90904219D01*
X194271971Y-90904219D02*
X194462447Y-90904219D01*
X194462447Y-90904219D02*
X194557685Y-90856600D01*
X194557685Y-90856600D02*
X194605304Y-90808980D01*
X194605304Y-90808980D02*
X194652923Y-90713742D01*
X194652923Y-90713742D02*
X194652923Y-89904219D01*
X195081495Y-89999457D02*
X195129114Y-89951838D01*
X195129114Y-89951838D02*
X195224352Y-89904219D01*
X195224352Y-89904219D02*
X195462447Y-89904219D01*
X195462447Y-89904219D02*
X195557685Y-89951838D01*
X195557685Y-89951838D02*
X195605304Y-89999457D01*
X195605304Y-89999457D02*
X195652923Y-90094695D01*
X195652923Y-90094695D02*
X195652923Y-90189933D01*
X195652923Y-90189933D02*
X195605304Y-90332790D01*
X195605304Y-90332790D02*
X195033876Y-90904219D01*
X195033876Y-90904219D02*
X195652923Y-90904219D01*
X199107466Y-82223019D02*
X199107466Y-82937304D01*
X199107466Y-82937304D02*
X199059847Y-83080161D01*
X199059847Y-83080161D02*
X198964609Y-83175400D01*
X198964609Y-83175400D02*
X198821752Y-83223019D01*
X198821752Y-83223019D02*
X198726514Y-83223019D01*
X200107466Y-83223019D02*
X199536038Y-83223019D01*
X199821752Y-83223019D02*
X199821752Y-82223019D01*
X199821752Y-82223019D02*
X199726514Y-82365876D01*
X199726514Y-82365876D02*
X199631276Y-82461114D01*
X199631276Y-82461114D02*
X199536038Y-82508733D01*
X197699333Y-87755619D02*
X197366000Y-87279428D01*
X197127905Y-87755619D02*
X197127905Y-86755619D01*
X197127905Y-86755619D02*
X197508857Y-86755619D01*
X197508857Y-86755619D02*
X197604095Y-86803238D01*
X197604095Y-86803238D02*
X197651714Y-86850857D01*
X197651714Y-86850857D02*
X197699333Y-86946095D01*
X197699333Y-86946095D02*
X197699333Y-87088952D01*
X197699333Y-87088952D02*
X197651714Y-87184190D01*
X197651714Y-87184190D02*
X197604095Y-87231809D01*
X197604095Y-87231809D02*
X197508857Y-87279428D01*
X197508857Y-87279428D02*
X197127905Y-87279428D01*
X198080286Y-86850857D02*
X198127905Y-86803238D01*
X198127905Y-86803238D02*
X198223143Y-86755619D01*
X198223143Y-86755619D02*
X198461238Y-86755619D01*
X198461238Y-86755619D02*
X198556476Y-86803238D01*
X198556476Y-86803238D02*
X198604095Y-86850857D01*
X198604095Y-86850857D02*
X198651714Y-86946095D01*
X198651714Y-86946095D02*
X198651714Y-87041333D01*
X198651714Y-87041333D02*
X198604095Y-87184190D01*
X198604095Y-87184190D02*
X198032667Y-87755619D01*
X198032667Y-87755619D02*
X198651714Y-87755619D01*
X177404733Y-74521219D02*
X177071400Y-74045028D01*
X176833305Y-74521219D02*
X176833305Y-73521219D01*
X176833305Y-73521219D02*
X177214257Y-73521219D01*
X177214257Y-73521219D02*
X177309495Y-73568838D01*
X177309495Y-73568838D02*
X177357114Y-73616457D01*
X177357114Y-73616457D02*
X177404733Y-73711695D01*
X177404733Y-73711695D02*
X177404733Y-73854552D01*
X177404733Y-73854552D02*
X177357114Y-73949790D01*
X177357114Y-73949790D02*
X177309495Y-73997409D01*
X177309495Y-73997409D02*
X177214257Y-74045028D01*
X177214257Y-74045028D02*
X176833305Y-74045028D01*
X178261876Y-73521219D02*
X178071400Y-73521219D01*
X178071400Y-73521219D02*
X177976162Y-73568838D01*
X177976162Y-73568838D02*
X177928543Y-73616457D01*
X177928543Y-73616457D02*
X177833305Y-73759314D01*
X177833305Y-73759314D02*
X177785686Y-73949790D01*
X177785686Y-73949790D02*
X177785686Y-74330742D01*
X177785686Y-74330742D02*
X177833305Y-74425980D01*
X177833305Y-74425980D02*
X177880924Y-74473600D01*
X177880924Y-74473600D02*
X177976162Y-74521219D01*
X177976162Y-74521219D02*
X178166638Y-74521219D01*
X178166638Y-74521219D02*
X178261876Y-74473600D01*
X178261876Y-74473600D02*
X178309495Y-74425980D01*
X178309495Y-74425980D02*
X178357114Y-74330742D01*
X178357114Y-74330742D02*
X178357114Y-74092647D01*
X178357114Y-74092647D02*
X178309495Y-73997409D01*
X178309495Y-73997409D02*
X178261876Y-73949790D01*
X178261876Y-73949790D02*
X178166638Y-73902171D01*
X178166638Y-73902171D02*
X177976162Y-73902171D01*
X177976162Y-73902171D02*
X177880924Y-73949790D01*
X177880924Y-73949790D02*
X177833305Y-73997409D01*
X177833305Y-73997409D02*
X177785686Y-74092647D01*
X188964095Y-75913819D02*
X188964095Y-76723342D01*
X188964095Y-76723342D02*
X189011714Y-76818580D01*
X189011714Y-76818580D02*
X189059333Y-76866200D01*
X189059333Y-76866200D02*
X189154571Y-76913819D01*
X189154571Y-76913819D02*
X189345047Y-76913819D01*
X189345047Y-76913819D02*
X189440285Y-76866200D01*
X189440285Y-76866200D02*
X189487904Y-76818580D01*
X189487904Y-76818580D02*
X189535523Y-76723342D01*
X189535523Y-76723342D02*
X189535523Y-75913819D01*
X190535523Y-76913819D02*
X189964095Y-76913819D01*
X190249809Y-76913819D02*
X190249809Y-75913819D01*
X190249809Y-75913819D02*
X190154571Y-76056676D01*
X190154571Y-76056676D02*
X190059333Y-76151914D01*
X190059333Y-76151914D02*
X189964095Y-76199533D01*
X184770733Y-75645180D02*
X184723114Y-75692800D01*
X184723114Y-75692800D02*
X184580257Y-75740419D01*
X184580257Y-75740419D02*
X184485019Y-75740419D01*
X184485019Y-75740419D02*
X184342162Y-75692800D01*
X184342162Y-75692800D02*
X184246924Y-75597561D01*
X184246924Y-75597561D02*
X184199305Y-75502323D01*
X184199305Y-75502323D02*
X184151686Y-75311847D01*
X184151686Y-75311847D02*
X184151686Y-75168990D01*
X184151686Y-75168990D02*
X184199305Y-74978514D01*
X184199305Y-74978514D02*
X184246924Y-74883276D01*
X184246924Y-74883276D02*
X184342162Y-74788038D01*
X184342162Y-74788038D02*
X184485019Y-74740419D01*
X184485019Y-74740419D02*
X184580257Y-74740419D01*
X184580257Y-74740419D02*
X184723114Y-74788038D01*
X184723114Y-74788038D02*
X184770733Y-74835657D01*
X185104067Y-74740419D02*
X185723114Y-74740419D01*
X185723114Y-74740419D02*
X185389781Y-75121371D01*
X185389781Y-75121371D02*
X185532638Y-75121371D01*
X185532638Y-75121371D02*
X185627876Y-75168990D01*
X185627876Y-75168990D02*
X185675495Y-75216609D01*
X185675495Y-75216609D02*
X185723114Y-75311847D01*
X185723114Y-75311847D02*
X185723114Y-75549942D01*
X185723114Y-75549942D02*
X185675495Y-75645180D01*
X185675495Y-75645180D02*
X185627876Y-75692800D01*
X185627876Y-75692800D02*
X185532638Y-75740419D01*
X185532638Y-75740419D02*
X185246924Y-75740419D01*
X185246924Y-75740419D02*
X185151686Y-75692800D01*
X185151686Y-75692800D02*
X185104067Y-75645180D01*
X185278733Y-83309619D02*
X184802543Y-83309619D01*
X184802543Y-83309619D02*
X184802543Y-82309619D01*
X186135876Y-83309619D02*
X185564448Y-83309619D01*
X185850162Y-83309619D02*
X185850162Y-82309619D01*
X185850162Y-82309619D02*
X185754924Y-82452476D01*
X185754924Y-82452476D02*
X185659686Y-82547714D01*
X185659686Y-82547714D02*
X185564448Y-82595333D01*
D12*
G04 #@! TO.C,R7*
X207494200Y-79170264D02*
X207494200Y-78716136D01*
X208964200Y-79170264D02*
X208964200Y-78716136D01*
G04 #@! TO.C,U3*
X200904400Y-75545000D02*
X198954400Y-75545000D01*
X200904400Y-75545000D02*
X202854400Y-75545000D01*
X200904400Y-80665000D02*
X198954400Y-80665000D01*
X200904400Y-80665000D02*
X202854400Y-80665000D01*
X198204400Y-75640000D02*
X197964400Y-75310000D01*
X198444400Y-75310000D01*
X198204400Y-75640000D01*
G36*
X198204400Y-75640000D02*
G01*
X197964400Y-75310000D01*
X198444400Y-75310000D01*
X198204400Y-75640000D01*
G37*
G04 #@! TO.C,C8*
X182018000Y-77462748D02*
X182018000Y-77985252D01*
X183488000Y-77462748D02*
X183488000Y-77985252D01*
G04 #@! TO.C,R4*
X184173864Y-93038600D02*
X183719736Y-93038600D01*
X184173864Y-91568600D02*
X183719736Y-91568600D01*
G04 #@! TO.C,C2*
X179325600Y-82644348D02*
X179325600Y-83166852D01*
X180795600Y-82644348D02*
X180795600Y-83166852D01*
G04 #@! TO.C,R3*
X194210000Y-78665336D02*
X194210000Y-79119464D01*
X195680000Y-78665336D02*
X195680000Y-79119464D01*
G04 #@! TO.C,C1*
X181814800Y-82644348D02*
X181814800Y-83166852D01*
X183284800Y-82644348D02*
X183284800Y-83166852D01*
G04 #@! TO.C,R5*
X176379136Y-92559200D02*
X176833264Y-92559200D01*
X176379136Y-94029200D02*
X176833264Y-94029200D01*
G04 #@! TO.C,C6*
X181738600Y-88003748D02*
X181738600Y-88526252D01*
X183208600Y-88003748D02*
X183208600Y-88526252D01*
G04 #@! TO.C,C7*
X183973800Y-88029148D02*
X183973800Y-88551652D01*
X185443800Y-88029148D02*
X185443800Y-88551652D01*
G04 #@! TO.C,Q1*
X181828000Y-95755700D02*
X181828000Y-95105700D01*
X181828000Y-95755700D02*
X181828000Y-96405700D01*
X184948000Y-95755700D02*
X184948000Y-95105700D01*
X184948000Y-95755700D02*
X184948000Y-96405700D01*
X181878000Y-96918200D02*
X181548000Y-97158200D01*
X181548000Y-96678200D01*
X181878000Y-96918200D01*
G36*
X181878000Y-96918200D02*
G01*
X181548000Y-97158200D01*
X181548000Y-96678200D01*
X181878000Y-96918200D01*
G37*
G04 #@! TO.C,R1*
X191873200Y-78667236D02*
X191873200Y-79121364D01*
X193343200Y-78667236D02*
X193343200Y-79121364D01*
G04 #@! TO.C,J2*
X199827600Y-96199000D02*
X199827600Y-94869000D01*
X201157600Y-96199000D02*
X199827600Y-96199000D01*
X202427600Y-93539000D02*
X207567600Y-93539000D01*
X202427600Y-96199000D02*
X202427600Y-93539000D01*
X202427600Y-96199000D02*
X207567600Y-96199000D01*
X207567600Y-96199000D02*
X207567600Y-93539000D01*
G04 #@! TO.C,C9*
X206774148Y-73585400D02*
X207296652Y-73585400D01*
X206774148Y-75055400D02*
X207296652Y-75055400D01*
G04 #@! TO.C,D2*
X169263600Y-74760200D02*
X169263600Y-77030200D01*
X169263600Y-77030200D02*
X173148600Y-77030200D01*
X173148600Y-74760200D02*
X169263600Y-74760200D01*
G04 #@! TO.C,D1*
X168860200Y-92337000D02*
X168860200Y-94607000D01*
X168860200Y-94607000D02*
X172745200Y-94607000D01*
X172745200Y-92337000D02*
X168860200Y-92337000D01*
G04 #@! TO.C,C4*
X190238748Y-73687000D02*
X190761252Y-73687000D01*
X190238748Y-75157000D02*
X190761252Y-75157000D01*
G04 #@! TO.C,C5*
X179325600Y-87978348D02*
X179325600Y-88500852D01*
X180795600Y-87978348D02*
X180795600Y-88500852D01*
G04 #@! TO.C,D3*
X207145000Y-85166400D02*
X207145000Y-89051400D01*
X207145000Y-89051400D02*
X209415000Y-89051400D01*
X209415000Y-89051400D02*
X209415000Y-85166400D01*
D11*
G04 #@! TO.C,U2*
X188893000Y-91402800D02*
X188893000Y-91607800D01*
X188893000Y-91402800D02*
X194393000Y-91402800D01*
X188893000Y-96912800D02*
X188893000Y-96707800D01*
X188893000Y-96912800D02*
X194393000Y-96912800D01*
X194393000Y-91402800D02*
X194393000Y-91607800D01*
X194393000Y-96912800D02*
X194393000Y-96707800D01*
D12*
X188343000Y-91657800D02*
X188103000Y-91327800D01*
X188583000Y-91327800D01*
X188343000Y-91657800D01*
G36*
X188343000Y-91657800D02*
G01*
X188103000Y-91327800D01*
X188583000Y-91327800D01*
X188343000Y-91657800D01*
G37*
G04 #@! TO.C,J1*
X200955600Y-87198200D02*
X200955600Y-82058200D01*
X203615600Y-82058200D02*
X200955600Y-82058200D01*
X203615600Y-87198200D02*
X200955600Y-87198200D01*
X203615600Y-87198200D02*
X203615600Y-82058200D01*
X203615600Y-88468200D02*
X203615600Y-89798200D01*
X203615600Y-89798200D02*
X202285600Y-89798200D01*
G04 #@! TO.C,R2*
X197638936Y-88215800D02*
X198093064Y-88215800D01*
X197638936Y-89685800D02*
X198093064Y-89685800D01*
G04 #@! TO.C,R6*
X177900064Y-74931600D02*
X177445936Y-74931600D01*
X177900064Y-76401600D02*
X177445936Y-76401600D01*
G04 #@! TO.C,U1*
X190376000Y-77459000D02*
X189276000Y-77459000D01*
X190376000Y-79259000D02*
X189076000Y-79259000D01*
X189026000Y-77459000D02*
X188746000Y-77459000D01*
X189026000Y-77179000D01*
X189026000Y-77459000D01*
G36*
X189026000Y-77459000D02*
G01*
X188746000Y-77459000D01*
X189026000Y-77179000D01*
X189026000Y-77459000D01*
G37*
G04 #@! TO.C,C3*
X184380200Y-77437348D02*
X184380200Y-77959852D01*
X185850200Y-77437348D02*
X185850200Y-77959852D01*
D13*
G04 #@! TO.C,L1*
X186693600Y-82154400D02*
X186693600Y-88954400D01*
X186693600Y-88954400D02*
X187993600Y-88954400D01*
X187993600Y-82154400D02*
X186693600Y-82154400D01*
X192193600Y-82154400D02*
X193493600Y-82154400D01*
X193493600Y-82154400D02*
X193493600Y-88954400D01*
X193493600Y-88954400D02*
X192193600Y-88954400D01*
G04 #@! TD*
%LPC*%
D14*
G04 #@! TO.C,R7*
X208229200Y-79855700D03*
X208229200Y-78030700D03*
G04 #@! TD*
D15*
G04 #@! TO.C,U3*
X198329400Y-76200000D03*
X198329400Y-77470000D03*
X198329400Y-78740000D03*
X198329400Y-80010000D03*
X203479400Y-80010000D03*
X203479400Y-78740000D03*
X203479400Y-77470000D03*
X203479400Y-76200000D03*
G04 #@! TD*
D16*
G04 #@! TO.C,C8*
X182753000Y-76774000D03*
X182753000Y-78674000D03*
G04 #@! TD*
D17*
G04 #@! TO.C,R4*
X184859300Y-92303600D03*
X183034300Y-92303600D03*
G04 #@! TD*
D16*
G04 #@! TO.C,C2*
X180060600Y-81955600D03*
X180060600Y-83855600D03*
G04 #@! TD*
D18*
G04 #@! TO.C,R3*
X194945000Y-77979900D03*
X194945000Y-79804900D03*
G04 #@! TD*
D16*
G04 #@! TO.C,C1*
X182549800Y-81955600D03*
X182549800Y-83855600D03*
G04 #@! TD*
D19*
G04 #@! TO.C,R5*
X175693700Y-93294200D03*
X177518700Y-93294200D03*
G04 #@! TD*
D16*
G04 #@! TO.C,C6*
X182473600Y-87315000D03*
X182473600Y-89215000D03*
G04 #@! TD*
G04 #@! TO.C,C7*
X184708800Y-87340400D03*
X184708800Y-89240400D03*
G04 #@! TD*
D20*
G04 #@! TO.C,Q1*
X182438000Y-96693200D03*
X184338000Y-96693200D03*
X183388000Y-94818200D03*
G04 #@! TD*
D18*
G04 #@! TO.C,R1*
X192608200Y-77981800D03*
X192608200Y-79806800D03*
G04 #@! TD*
D21*
G04 #@! TO.C,J2*
X201157600Y-94869000D03*
D22*
X203697600Y-94869000D03*
X206237600Y-94869000D03*
G04 #@! TD*
D23*
G04 #@! TO.C,C9*
X206085400Y-74320400D03*
X207985400Y-74320400D03*
G04 #@! TD*
D24*
G04 #@! TO.C,D2*
X170148600Y-75895200D03*
X172948600Y-75895200D03*
G04 #@! TD*
G04 #@! TO.C,D1*
X169745200Y-93472000D03*
X172545200Y-93472000D03*
G04 #@! TD*
D23*
G04 #@! TO.C,C4*
X189550000Y-74422000D03*
X191450000Y-74422000D03*
G04 #@! TD*
D16*
G04 #@! TO.C,C5*
X180060600Y-87289600D03*
X180060600Y-89189600D03*
G04 #@! TD*
D25*
G04 #@! TO.C,D3*
X208280000Y-88166400D03*
X208280000Y-85366400D03*
G04 #@! TD*
D26*
G04 #@! TO.C,U2*
X187993000Y-92252800D03*
X187993000Y-93522800D03*
X187993000Y-94792800D03*
X187993000Y-96062800D03*
X195293000Y-96062800D03*
X195293000Y-94792800D03*
X195293000Y-93522800D03*
X195293000Y-92252800D03*
G04 #@! TD*
D21*
G04 #@! TO.C,J1*
X202285600Y-88468200D03*
D22*
X202285600Y-85928200D03*
X202285600Y-83388200D03*
G04 #@! TD*
D19*
G04 #@! TO.C,R2*
X196953500Y-88950800D03*
X198778500Y-88950800D03*
G04 #@! TD*
D17*
G04 #@! TO.C,R6*
X178585500Y-75666600D03*
X176760500Y-75666600D03*
G04 #@! TD*
D27*
G04 #@! TO.C,U1*
X188976000Y-77859000D03*
X188976000Y-78359000D03*
X188976000Y-78859000D03*
X190476000Y-78859000D03*
X190476000Y-78359000D03*
X190476000Y-77859000D03*
G04 #@! TD*
D16*
G04 #@! TO.C,C3*
X185115200Y-76748600D03*
X185115200Y-78648600D03*
G04 #@! TD*
D28*
G04 #@! TO.C,L1*
X190093600Y-82829400D03*
X190093600Y-88279400D03*
G04 #@! TD*
%LPD*%
M02*
