M48
; DRILL file {KiCad 8.0.7} date 2025-02-23T01:29:40-0500
; FORMAT={-:-/ absolute / metric / decimal}
; #@! TF.CreationDate,2025-02-23T01:29:40-05:00
; #@! TF.GenerationSoftware,Kicad,Pcbnew,8.0.7
; #@! TF.FileFunction,Plated,1,2,PTH
FMAT,2
METRIC
; #@! TA.AperFunction,Plated,PTH,ViaDrill
T1C0.300
; #@! TA.AperFunction,Plated,PTH,ComponentDrill
T2C1.000
%
G90
G05
T1
X180.445Y-76.89
X183.388Y-90.734
X183.388Y-96.668
X186.79Y-82.161
X187.242Y-77.201
X188.122Y-77.859
X189.067Y-76.589
X189.346Y-94.793
X191.07Y-79.453
X193.813Y-78.892
X194.451Y-96.904
X196.266Y-76.987
X196.98Y-79.189
X198.04Y-87.875
X198.091Y-94.793
X199.043Y-84.448
X199.506Y-76.847
X205.401Y-76.2
T2
X201.158Y-94.869
X202.286Y-83.388
X202.286Y-85.928
X202.286Y-88.468
X203.698Y-94.869
X206.238Y-94.869
M30
