G04 #@! TF.GenerationSoftware,KiCad,Pcbnew,8.0.7*
G04 #@! TF.CreationDate,2025-02-23T01:29:40-05:00*
G04 #@! TF.ProjectId,switched_reg,73776974-6368-4656-945f-7265672e6b69,rev?*
G04 #@! TF.SameCoordinates,Original*
G04 #@! TF.FileFunction,Soldermask,Top*
G04 #@! TF.FilePolarity,Negative*
%FSLAX46Y46*%
G04 Gerber Fmt 4.6, Leading zero omitted, Abs format (unit mm)*
G04 Created by KiCad (PCBNEW 8.0.7) date 2025-02-23 01:29:40*
%MOMM*%
%LPD*%
G01*
G04 APERTURE LIST*
G04 Aperture macros list*
%AMRoundRect*
0 Rectangle with rounded corners*
0 $1 Rounding radius*
0 $2 $3 $4 $5 $6 $7 $8 $9 X,Y pos of 4 corners*
0 Add a 4 corners polygon primitive as box body*
4,1,4,$2,$3,$4,$5,$6,$7,$8,$9,$2,$3,0*
0 Add four circle primitives for the rounded corners*
1,1,$1+$1,$2,$3*
1,1,$1+$1,$4,$5*
1,1,$1+$1,$6,$7*
1,1,$1+$1,$8,$9*
0 Add four rect primitives between the rounded corners*
20,1,$1+$1,$2,$3,$4,$5,0*
20,1,$1+$1,$4,$5,$6,$7,0*
20,1,$1+$1,$6,$7,$8,$9,0*
20,1,$1+$1,$8,$9,$2,$3,0*%
G04 Aperture macros list end*
%ADD10RoundRect,0.250000X0.450000X-0.262500X0.450000X0.262500X-0.450000X0.262500X-0.450000X-0.262500X0*%
%ADD11RoundRect,0.150000X-0.725000X-0.150000X0.725000X-0.150000X0.725000X0.150000X-0.725000X0.150000X0*%
%ADD12RoundRect,0.250000X-0.475000X0.250000X-0.475000X-0.250000X0.475000X-0.250000X0.475000X0.250000X0*%
%ADD13RoundRect,0.250000X0.262500X0.450000X-0.262500X0.450000X-0.262500X-0.450000X0.262500X-0.450000X0*%
%ADD14RoundRect,0.250000X-0.450000X0.262500X-0.450000X-0.262500X0.450000X-0.262500X0.450000X0.262500X0*%
%ADD15RoundRect,0.250000X-0.262500X-0.450000X0.262500X-0.450000X0.262500X0.450000X-0.262500X0.450000X0*%
%ADD16RoundRect,0.150000X0.150000X-0.587500X0.150000X0.587500X-0.150000X0.587500X-0.150000X-0.587500X0*%
%ADD17R,1.700000X1.700000*%
%ADD18O,1.700000X1.700000*%
%ADD19RoundRect,0.250000X-0.250000X-0.475000X0.250000X-0.475000X0.250000X0.475000X-0.250000X0.475000X0*%
%ADD20RoundRect,0.250000X-0.375000X-0.625000X0.375000X-0.625000X0.375000X0.625000X-0.375000X0.625000X0*%
%ADD21RoundRect,0.250000X0.625000X-0.375000X0.625000X0.375000X-0.625000X0.375000X-0.625000X-0.375000X0*%
%ADD22R,1.700000X0.650000*%
%ADD23RoundRect,0.085000X-0.265000X-0.085000X0.265000X-0.085000X0.265000X0.085000X-0.265000X0.085000X0*%
%ADD24RoundRect,0.102000X-1.750000X1.475000X-1.750000X-1.475000X1.750000X-1.475000X1.750000X1.475000X0*%
G04 APERTURE END LIST*
D10*
G04 #@! TO.C,R7*
X208229200Y-79855700D03*
X208229200Y-78030700D03*
G04 #@! TD*
D11*
G04 #@! TO.C,U3*
X198329400Y-76200000D03*
X198329400Y-77470000D03*
X198329400Y-78740000D03*
X198329400Y-80010000D03*
X203479400Y-80010000D03*
X203479400Y-78740000D03*
X203479400Y-77470000D03*
X203479400Y-76200000D03*
G04 #@! TD*
D12*
G04 #@! TO.C,C8*
X182753000Y-76774000D03*
X182753000Y-78674000D03*
G04 #@! TD*
D13*
G04 #@! TO.C,R4*
X184859300Y-92303600D03*
X183034300Y-92303600D03*
G04 #@! TD*
D12*
G04 #@! TO.C,C2*
X180060600Y-81955600D03*
X180060600Y-83855600D03*
G04 #@! TD*
D14*
G04 #@! TO.C,R3*
X194945000Y-77979900D03*
X194945000Y-79804900D03*
G04 #@! TD*
D12*
G04 #@! TO.C,C1*
X182549800Y-81955600D03*
X182549800Y-83855600D03*
G04 #@! TD*
D15*
G04 #@! TO.C,R5*
X175693700Y-93294200D03*
X177518700Y-93294200D03*
G04 #@! TD*
D12*
G04 #@! TO.C,C6*
X182473600Y-87315000D03*
X182473600Y-89215000D03*
G04 #@! TD*
G04 #@! TO.C,C7*
X184708800Y-87340400D03*
X184708800Y-89240400D03*
G04 #@! TD*
D16*
G04 #@! TO.C,Q1*
X182438000Y-96693200D03*
X184338000Y-96693200D03*
X183388000Y-94818200D03*
G04 #@! TD*
D14*
G04 #@! TO.C,R1*
X192608200Y-77981800D03*
X192608200Y-79806800D03*
G04 #@! TD*
D17*
G04 #@! TO.C,J2*
X201157600Y-94869000D03*
D18*
X203697600Y-94869000D03*
X206237600Y-94869000D03*
G04 #@! TD*
D19*
G04 #@! TO.C,C9*
X206085400Y-74320400D03*
X207985400Y-74320400D03*
G04 #@! TD*
D20*
G04 #@! TO.C,D2*
X170148600Y-75895200D03*
X172948600Y-75895200D03*
G04 #@! TD*
G04 #@! TO.C,D1*
X169745200Y-93472000D03*
X172545200Y-93472000D03*
G04 #@! TD*
D19*
G04 #@! TO.C,C4*
X189550000Y-74422000D03*
X191450000Y-74422000D03*
G04 #@! TD*
D12*
G04 #@! TO.C,C5*
X180060600Y-87289600D03*
X180060600Y-89189600D03*
G04 #@! TD*
D21*
G04 #@! TO.C,D3*
X208280000Y-88166400D03*
X208280000Y-85366400D03*
G04 #@! TD*
D22*
G04 #@! TO.C,U2*
X187993000Y-92252800D03*
X187993000Y-93522800D03*
X187993000Y-94792800D03*
X187993000Y-96062800D03*
X195293000Y-96062800D03*
X195293000Y-94792800D03*
X195293000Y-93522800D03*
X195293000Y-92252800D03*
G04 #@! TD*
D17*
G04 #@! TO.C,J1*
X202285600Y-88468200D03*
D18*
X202285600Y-85928200D03*
X202285600Y-83388200D03*
G04 #@! TD*
D15*
G04 #@! TO.C,R2*
X196953500Y-88950800D03*
X198778500Y-88950800D03*
G04 #@! TD*
D13*
G04 #@! TO.C,R6*
X178585500Y-75666600D03*
X176760500Y-75666600D03*
G04 #@! TD*
D23*
G04 #@! TO.C,U1*
X188976000Y-77859000D03*
X188976000Y-78359000D03*
X188976000Y-78859000D03*
X190476000Y-78859000D03*
X190476000Y-78359000D03*
X190476000Y-77859000D03*
G04 #@! TD*
D12*
G04 #@! TO.C,C3*
X185115200Y-76748600D03*
X185115200Y-78648600D03*
G04 #@! TD*
D24*
G04 #@! TO.C,L1*
X190093600Y-82829400D03*
X190093600Y-88279400D03*
G04 #@! TD*
M02*
