%TF.GenerationSoftware,KiCad,Pcbnew,8.0.7*%
%TF.CreationDate,2025-02-23T01:29:40-05:00*%
%TF.ProjectId,switched_reg,73776974-6368-4656-945f-7265672e6b69,rev?*%
%TF.SameCoordinates,Original*%
%TF.FileFunction,Drillmap*%
%TF.FilePolarity,Positive*%
%FSLAX45Y45*%
G04 Gerber Fmt 4.5, Leading zero omitted, Abs format (unit mm)*
G04 Created by KiCad (PCBNEW 8.0.7) date 2025-02-23 01:29:40*
%MOMM*%
%LPD*%
G01*
G04 APERTURE LIST*
%ADD10C,0.050000*%
%ADD11C,0.200000*%
G04 APERTURE END LIST*
D10*
X16782360Y-7279000D02*
X20982360Y-7279000D01*
X16782360Y-9779000D02*
X16782360Y-7279000D01*
X16782360Y-9779000D02*
X20982360Y-9779000D01*
X20982360Y-9779000D02*
X20982360Y-7279000D01*
D11*
X17040637Y-10092984D02*
X17040637Y-9892984D01*
X17040637Y-9892984D02*
X17088256Y-9892984D01*
X17088256Y-9892984D02*
X17116827Y-9902508D01*
X17116827Y-9902508D02*
X17135875Y-9921555D01*
X17135875Y-9921555D02*
X17145399Y-9940603D01*
X17145399Y-9940603D02*
X17154923Y-9978698D01*
X17154923Y-9978698D02*
X17154923Y-10007270D01*
X17154923Y-10007270D02*
X17145399Y-10045365D01*
X17145399Y-10045365D02*
X17135875Y-10064412D01*
X17135875Y-10064412D02*
X17116827Y-10083460D01*
X17116827Y-10083460D02*
X17088256Y-10092984D01*
X17088256Y-10092984D02*
X17040637Y-10092984D01*
X17240637Y-10092984D02*
X17240637Y-9959650D01*
X17240637Y-9997746D02*
X17250161Y-9978698D01*
X17250161Y-9978698D02*
X17259684Y-9969174D01*
X17259684Y-9969174D02*
X17278732Y-9959650D01*
X17278732Y-9959650D02*
X17297780Y-9959650D01*
X17364446Y-10092984D02*
X17364446Y-9959650D01*
X17364446Y-9892984D02*
X17354923Y-9902508D01*
X17354923Y-9902508D02*
X17364446Y-9912031D01*
X17364446Y-9912031D02*
X17373970Y-9902508D01*
X17373970Y-9902508D02*
X17364446Y-9892984D01*
X17364446Y-9892984D02*
X17364446Y-9912031D01*
X17488256Y-10092984D02*
X17469208Y-10083460D01*
X17469208Y-10083460D02*
X17459684Y-10064412D01*
X17459684Y-10064412D02*
X17459684Y-9892984D01*
X17593018Y-10092984D02*
X17573970Y-10083460D01*
X17573970Y-10083460D02*
X17564446Y-10064412D01*
X17564446Y-10064412D02*
X17564446Y-9892984D01*
X17821589Y-10092984D02*
X17821589Y-9892984D01*
X17821589Y-9892984D02*
X17888256Y-10035841D01*
X17888256Y-10035841D02*
X17954923Y-9892984D01*
X17954923Y-9892984D02*
X17954923Y-10092984D01*
X18135875Y-10092984D02*
X18135875Y-9988222D01*
X18135875Y-9988222D02*
X18126351Y-9969174D01*
X18126351Y-9969174D02*
X18107304Y-9959650D01*
X18107304Y-9959650D02*
X18069208Y-9959650D01*
X18069208Y-9959650D02*
X18050161Y-9969174D01*
X18135875Y-10083460D02*
X18116827Y-10092984D01*
X18116827Y-10092984D02*
X18069208Y-10092984D01*
X18069208Y-10092984D02*
X18050161Y-10083460D01*
X18050161Y-10083460D02*
X18040637Y-10064412D01*
X18040637Y-10064412D02*
X18040637Y-10045365D01*
X18040637Y-10045365D02*
X18050161Y-10026317D01*
X18050161Y-10026317D02*
X18069208Y-10016793D01*
X18069208Y-10016793D02*
X18116827Y-10016793D01*
X18116827Y-10016793D02*
X18135875Y-10007270D01*
X18231113Y-9959650D02*
X18231113Y-10159650D01*
X18231113Y-9969174D02*
X18250161Y-9959650D01*
X18250161Y-9959650D02*
X18288256Y-9959650D01*
X18288256Y-9959650D02*
X18307304Y-9969174D01*
X18307304Y-9969174D02*
X18316827Y-9978698D01*
X18316827Y-9978698D02*
X18326351Y-9997746D01*
X18326351Y-9997746D02*
X18326351Y-10054889D01*
X18326351Y-10054889D02*
X18316827Y-10073936D01*
X18316827Y-10073936D02*
X18307304Y-10083460D01*
X18307304Y-10083460D02*
X18288256Y-10092984D01*
X18288256Y-10092984D02*
X18250161Y-10092984D01*
X18250161Y-10092984D02*
X18231113Y-10083460D01*
X18412065Y-10073936D02*
X18421589Y-10083460D01*
X18421589Y-10083460D02*
X18412065Y-10092984D01*
X18412065Y-10092984D02*
X18402542Y-10083460D01*
X18402542Y-10083460D02*
X18412065Y-10073936D01*
X18412065Y-10073936D02*
X18412065Y-10092984D01*
X18412065Y-9969174D02*
X18421589Y-9978698D01*
X18421589Y-9978698D02*
X18412065Y-9988222D01*
X18412065Y-9988222D02*
X18402542Y-9978698D01*
X18402542Y-9978698D02*
X18412065Y-9969174D01*
X18412065Y-9969174D02*
X18412065Y-9988222D01*
M02*
