G04 #@! TF.GenerationSoftware,KiCad,Pcbnew,8.0.7*
G04 #@! TF.CreationDate,2025-02-23T01:29:40-05:00*
G04 #@! TF.ProjectId,switched_reg,73776974-6368-4656-945f-7265672e6b69,rev?*
G04 #@! TF.SameCoordinates,Original*
G04 #@! TF.FileFunction,Copper,L2,Bot*
G04 #@! TF.FilePolarity,Positive*
%FSLAX46Y46*%
G04 Gerber Fmt 4.6, Leading zero omitted, Abs format (unit mm)*
G04 Created by KiCad (PCBNEW 8.0.7) date 2025-02-23 01:29:40*
%MOMM*%
%LPD*%
G01*
G04 APERTURE LIST*
G04 #@! TA.AperFunction,ComponentPad*
%ADD10R,1.700000X1.700000*%
G04 #@! TD*
G04 #@! TA.AperFunction,ComponentPad*
%ADD11O,1.700000X1.700000*%
G04 #@! TD*
G04 #@! TA.AperFunction,ViaPad*
%ADD12C,0.600000*%
G04 #@! TD*
G04 #@! TA.AperFunction,Conductor*
%ADD13C,0.200000*%
G04 #@! TD*
G04 #@! TA.AperFunction,Conductor*
%ADD14C,0.400000*%
G04 #@! TD*
G04 #@! TA.AperFunction,Conductor*
%ADD15C,0.300000*%
G04 #@! TD*
G04 APERTURE END LIST*
D10*
G04 #@! TO.P,J2,1,Pin_1*
G04 #@! TO.N,MSM_NTSC*
X201157600Y-94869000D03*
D11*
G04 #@! TO.P,J2,2,Pin_2*
G04 #@! TO.N,Net-(J2-Pin_2)*
X203697600Y-94869000D03*
G04 #@! TO.P,J2,3,Pin_3*
G04 #@! TO.N,{slash}SYSTEM_RESET*
X206237600Y-94869000D03*
G04 #@! TD*
D10*
G04 #@! TO.P,J1,1,Pin_1*
G04 #@! TO.N,Vin*
X202285600Y-88468200D03*
D11*
G04 #@! TO.P,J1,2,Pin_2*
G04 #@! TO.N,GND*
X202285600Y-85928200D03*
G04 #@! TO.P,J1,3,Pin_3*
G04 #@! TO.N,Vout*
X202285600Y-83388200D03*
G04 #@! TD*
D12*
G04 #@! TO.N,Net-(U2-AREF{slash}PB0)*
X194451300Y-96904500D03*
X196979500Y-79189300D03*
G04 #@! TO.N,Net-(U2-PB1)*
X205400800Y-76200000D03*
X198091300Y-94792800D03*
G04 #@! TO.N,Net-(U2-XTAL2{slash}PB4)*
X189346200Y-94792800D03*
X180445000Y-76890000D03*
G04 #@! TO.N,Net-(U1-FB)*
X196265800Y-76987400D03*
X198039800Y-87874600D03*
G04 #@! TO.N,Net-(U1-SW)*
X187242000Y-77201300D03*
X186790400Y-82160600D03*
G04 #@! TO.N,Net-(U1-BST)*
X191070200Y-79453200D03*
X189067000Y-76589300D03*
G04 #@! TO.N,GND*
X199043200Y-84447600D03*
X199505700Y-76846900D03*
X183388000Y-90734200D03*
X183388000Y-96668100D03*
G04 #@! TO.N,Vin*
X193813400Y-78892400D03*
X188121600Y-77859000D03*
G04 #@! TD*
D13*
G04 #@! TO.N,Net-(U1-FB)*
X197434200Y-87269000D02*
X198039800Y-87874600D01*
X197579500Y-79437829D02*
X197434200Y-79583129D01*
X197579500Y-78301100D02*
X197579500Y-79437829D01*
X197434200Y-79583129D02*
X197434200Y-87269000D01*
X196265800Y-76987400D02*
X197579500Y-78301100D01*
G04 #@! TO.N,Net-(U2-XTAL2{slash}PB4)*
X190068200Y-94070800D02*
X189346200Y-94792800D01*
X190068200Y-86513200D02*
X190068200Y-94070800D01*
X189346200Y-85791200D02*
X190068200Y-86513200D01*
G04 #@! TO.N,Net-(U2-AREF{slash}PB0)*
X194451300Y-81717500D02*
X196979500Y-79189300D01*
X194451300Y-96904500D02*
X194451300Y-81717500D01*
G04 #@! TO.N,Net-(U2-PB1)*
X205400800Y-87483300D02*
X205400800Y-76200000D01*
X198091300Y-94792800D02*
X205400800Y-87483300D01*
D14*
G04 #@! TO.N,Net-(U1-SW)*
X186790400Y-77652900D02*
X187242000Y-77201300D01*
X186790400Y-82160600D02*
X186790400Y-77652900D01*
D13*
G04 #@! TO.N,Net-(U1-BST)*
X189067000Y-77450000D02*
X191070200Y-79453200D01*
X189067000Y-76589300D02*
X189067000Y-77450000D01*
G04 #@! TO.N,GND*
X199043200Y-84447600D02*
X199253100Y-84447600D01*
D14*
X200733700Y-85928200D02*
X199253100Y-84447600D01*
X202285600Y-85928200D02*
X200733700Y-85928200D01*
X199253100Y-77099500D02*
X199505700Y-76846900D01*
X199253100Y-84447600D02*
X199253100Y-77099500D01*
G04 #@! TO.N,Vin*
X193813400Y-78281700D02*
X193813400Y-78892400D01*
X195932000Y-76163100D02*
X193813400Y-78281700D01*
D15*
X196492600Y-76163100D02*
X195932000Y-76163100D01*
X198441500Y-78112000D02*
X196492600Y-76163100D01*
X198441500Y-85775800D02*
X198441500Y-78112000D01*
X201133900Y-88468200D02*
X198441500Y-85775800D01*
D14*
X202285600Y-88468200D02*
X201133900Y-88468200D01*
X190318900Y-80056300D02*
X188121600Y-77859000D01*
X192649500Y-80056300D02*
X190318900Y-80056300D01*
X193813400Y-78892400D02*
X192649500Y-80056300D01*
D13*
G04 #@! TO.N,Net-(U2-XTAL2{slash}PB4)*
X180445000Y-76890000D02*
X189346200Y-85791200D01*
G04 #@! TD*
G04 #@! TA.AperFunction,Conductor*
G04 #@! TO.N,GND*
G36*
X209266139Y-73310185D02*
G01*
X209311894Y-73362989D01*
X209323100Y-73414500D01*
X209323100Y-97165500D01*
X209303415Y-97232539D01*
X209250611Y-97278294D01*
X209199100Y-97289500D01*
X195339437Y-97289500D01*
X195272398Y-97269815D01*
X195226643Y-97217011D01*
X195216699Y-97147853D01*
X195222395Y-97124545D01*
X195236668Y-97083754D01*
X195236669Y-97083749D01*
X195256865Y-96904503D01*
X195256865Y-96904496D01*
X195236669Y-96725250D01*
X195236668Y-96725245D01*
X195177088Y-96554976D01*
X195081113Y-96402234D01*
X195078850Y-96399396D01*
X195077959Y-96397215D01*
X195077411Y-96396342D01*
X195077564Y-96396245D01*
X195052444Y-96334709D01*
X195051800Y-96322087D01*
X195051800Y-82017597D01*
X195071485Y-81950558D01*
X195088119Y-81929916D01*
X196622019Y-80396016D01*
X196683342Y-80362531D01*
X196753034Y-80367515D01*
X196808967Y-80409387D01*
X196833384Y-80474851D01*
X196833700Y-80483697D01*
X196833700Y-87182330D01*
X196833699Y-87182348D01*
X196833699Y-87348054D01*
X196833698Y-87348054D01*
X196874623Y-87500786D01*
X196888647Y-87525074D01*
X196888648Y-87525079D01*
X196888650Y-87525079D01*
X196953680Y-87637716D01*
X197065484Y-87749520D01*
X197065485Y-87749521D01*
X197209099Y-87893134D01*
X197242583Y-87954455D01*
X197244637Y-87966930D01*
X197254430Y-88053849D01*
X197314010Y-88224121D01*
X197409984Y-88376862D01*
X197537538Y-88504416D01*
X197690278Y-88600389D01*
X197860545Y-88659968D01*
X197860550Y-88659969D01*
X198039796Y-88680165D01*
X198039800Y-88680165D01*
X198039804Y-88680165D01*
X198219049Y-88659969D01*
X198219052Y-88659968D01*
X198219055Y-88659968D01*
X198389322Y-88600389D01*
X198542062Y-88504416D01*
X198669616Y-88376862D01*
X198765589Y-88224122D01*
X198825168Y-88053855D01*
X198834962Y-87966930D01*
X198845365Y-87874603D01*
X198845365Y-87874596D01*
X198825169Y-87695350D01*
X198825168Y-87695345D01*
X198781423Y-87570329D01*
X198765589Y-87525078D01*
X198765586Y-87525074D01*
X198684891Y-87396648D01*
X198669616Y-87372338D01*
X198542062Y-87244784D01*
X198442696Y-87182348D01*
X198389321Y-87148810D01*
X198219049Y-87089230D01*
X198144816Y-87080866D01*
X198080402Y-87053799D01*
X198040847Y-86996204D01*
X198034700Y-86957646D01*
X198034700Y-86588308D01*
X198054385Y-86521269D01*
X198107189Y-86475514D01*
X198176347Y-86465570D01*
X198239903Y-86494595D01*
X198246381Y-86500627D01*
X200472603Y-88726849D01*
X200499483Y-88767077D01*
X200513123Y-88800007D01*
X200513128Y-88800017D01*
X200589785Y-88914741D01*
X200589788Y-88914745D01*
X200687354Y-89012311D01*
X200687358Y-89012314D01*
X200802082Y-89088971D01*
X200802095Y-89088978D01*
X200858552Y-89112363D01*
X200912956Y-89156204D01*
X200935021Y-89222498D01*
X200935100Y-89226923D01*
X200935100Y-89366069D01*
X200935101Y-89366076D01*
X200941508Y-89425683D01*
X200991802Y-89560528D01*
X200991806Y-89560535D01*
X201078052Y-89675744D01*
X201078055Y-89675747D01*
X201193264Y-89761993D01*
X201193271Y-89761997D01*
X201328117Y-89812291D01*
X201328116Y-89812291D01*
X201335044Y-89813035D01*
X201387727Y-89818700D01*
X201916803Y-89818699D01*
X201983841Y-89838383D01*
X202029596Y-89891187D01*
X202039540Y-89960346D01*
X202010515Y-90023902D01*
X202004483Y-90030380D01*
X198072765Y-93962098D01*
X198011442Y-93995583D01*
X197998968Y-93997637D01*
X197912050Y-94007430D01*
X197741778Y-94067010D01*
X197589037Y-94162984D01*
X197461484Y-94290537D01*
X197365511Y-94443276D01*
X197305931Y-94613545D01*
X197305930Y-94613550D01*
X197285735Y-94792796D01*
X197285735Y-94792803D01*
X197305930Y-94972049D01*
X197305931Y-94972054D01*
X197365511Y-95142323D01*
X197461484Y-95295062D01*
X197589038Y-95422616D01*
X197679380Y-95479382D01*
X197730045Y-95511217D01*
X197741778Y-95518589D01*
X197822498Y-95546834D01*
X197912045Y-95578168D01*
X197912050Y-95578169D01*
X198091296Y-95598365D01*
X198091300Y-95598365D01*
X198091304Y-95598365D01*
X198270549Y-95578169D01*
X198270552Y-95578168D01*
X198270555Y-95578168D01*
X198440822Y-95518589D01*
X198593562Y-95422616D01*
X198721116Y-95295062D01*
X198817089Y-95142322D01*
X198876668Y-94972055D01*
X198886461Y-94885129D01*
X198913526Y-94820718D01*
X198921990Y-94811343D01*
X199595421Y-94137912D01*
X199656742Y-94104429D01*
X199726434Y-94109413D01*
X199782367Y-94151285D01*
X199806784Y-94216749D01*
X199807100Y-94225595D01*
X199807100Y-95766870D01*
X199807101Y-95766876D01*
X199813508Y-95826483D01*
X199863802Y-95961328D01*
X199863806Y-95961335D01*
X199950052Y-96076544D01*
X199950055Y-96076547D01*
X200065264Y-96162793D01*
X200065271Y-96162797D01*
X200200117Y-96213091D01*
X200200116Y-96213091D01*
X200207044Y-96213835D01*
X200259727Y-96219500D01*
X202055472Y-96219499D01*
X202115083Y-96213091D01*
X202249931Y-96162796D01*
X202365146Y-96076546D01*
X202451396Y-95961331D01*
X202500410Y-95829916D01*
X202542281Y-95773984D01*
X202607745Y-95749566D01*
X202676018Y-95764417D01*
X202704273Y-95785569D01*
X202826199Y-95907495D01*
X202922984Y-95975265D01*
X203019765Y-96043032D01*
X203019767Y-96043033D01*
X203019770Y-96043035D01*
X203233937Y-96142903D01*
X203462192Y-96204063D01*
X203638634Y-96219500D01*
X203697599Y-96224659D01*
X203697600Y-96224659D01*
X203697601Y-96224659D01*
X203756566Y-96219500D01*
X203933008Y-96204063D01*
X204161263Y-96142903D01*
X204375430Y-96043035D01*
X204569001Y-95907495D01*
X204736095Y-95740401D01*
X204866025Y-95554842D01*
X204920602Y-95511217D01*
X204990100Y-95504023D01*
X205052455Y-95535546D01*
X205069175Y-95554842D01*
X205199100Y-95740395D01*
X205199105Y-95740401D01*
X205366199Y-95907495D01*
X205462984Y-95975265D01*
X205559765Y-96043032D01*
X205559767Y-96043033D01*
X205559770Y-96043035D01*
X205773937Y-96142903D01*
X206002192Y-96204063D01*
X206178634Y-96219500D01*
X206237599Y-96224659D01*
X206237600Y-96224659D01*
X206237601Y-96224659D01*
X206296566Y-96219500D01*
X206473008Y-96204063D01*
X206701263Y-96142903D01*
X206915430Y-96043035D01*
X207109001Y-95907495D01*
X207276095Y-95740401D01*
X207411635Y-95546830D01*
X207511503Y-95332663D01*
X207572663Y-95104408D01*
X207593259Y-94869000D01*
X207572663Y-94633592D01*
X207511503Y-94405337D01*
X207411635Y-94191171D01*
X207406025Y-94183158D01*
X207276094Y-93997597D01*
X207109002Y-93830506D01*
X207108995Y-93830501D01*
X206915434Y-93694967D01*
X206915430Y-93694965D01*
X206915428Y-93694964D01*
X206701263Y-93595097D01*
X206701259Y-93595096D01*
X206701255Y-93595094D01*
X206473013Y-93533938D01*
X206473003Y-93533936D01*
X206237601Y-93513341D01*
X206237599Y-93513341D01*
X206002196Y-93533936D01*
X206002186Y-93533938D01*
X205773944Y-93595094D01*
X205773935Y-93595098D01*
X205559771Y-93694964D01*
X205559769Y-93694965D01*
X205366197Y-93830505D01*
X205199105Y-93997597D01*
X205069175Y-94183158D01*
X205014598Y-94226783D01*
X204945100Y-94233977D01*
X204882745Y-94202454D01*
X204866025Y-94183158D01*
X204736094Y-93997597D01*
X204569002Y-93830506D01*
X204568995Y-93830501D01*
X204375434Y-93694967D01*
X204375430Y-93694965D01*
X204375428Y-93694964D01*
X204161263Y-93595097D01*
X204161259Y-93595096D01*
X204161255Y-93595094D01*
X203933013Y-93533938D01*
X203933003Y-93533936D01*
X203697601Y-93513341D01*
X203697599Y-93513341D01*
X203462196Y-93533936D01*
X203462186Y-93533938D01*
X203233944Y-93595094D01*
X203233935Y-93595098D01*
X203019771Y-93694964D01*
X203019769Y-93694965D01*
X202826200Y-93830503D01*
X202704273Y-93952430D01*
X202642950Y-93985914D01*
X202573258Y-93980930D01*
X202517325Y-93939058D01*
X202500410Y-93908081D01*
X202451397Y-93776671D01*
X202451393Y-93776664D01*
X202365147Y-93661455D01*
X202365144Y-93661452D01*
X202249935Y-93575206D01*
X202249928Y-93575202D01*
X202115082Y-93524908D01*
X202115083Y-93524908D01*
X202055483Y-93518501D01*
X202055481Y-93518500D01*
X202055473Y-93518500D01*
X202055465Y-93518500D01*
X200514195Y-93518500D01*
X200447156Y-93498815D01*
X200401401Y-93446011D01*
X200391457Y-93376853D01*
X200420482Y-93313297D01*
X200426500Y-93306833D01*
X205759306Y-87974028D01*
X205759311Y-87974024D01*
X205769514Y-87963820D01*
X205769516Y-87963820D01*
X205881320Y-87852016D01*
X205940496Y-87749520D01*
X205960377Y-87715085D01*
X206001301Y-87562357D01*
X206001301Y-87404243D01*
X206001301Y-87396648D01*
X206001300Y-87396630D01*
X206001300Y-76782412D01*
X206020985Y-76715373D01*
X206028355Y-76705097D01*
X206030610Y-76702267D01*
X206030616Y-76702262D01*
X206126589Y-76549522D01*
X206186168Y-76379255D01*
X206201883Y-76239778D01*
X206206365Y-76200003D01*
X206206365Y-76199996D01*
X206186169Y-76020750D01*
X206186168Y-76020745D01*
X206126588Y-75850476D01*
X206030615Y-75697737D01*
X205903062Y-75570184D01*
X205750323Y-75474211D01*
X205580054Y-75414631D01*
X205580049Y-75414630D01*
X205400804Y-75394435D01*
X205400796Y-75394435D01*
X205221550Y-75414630D01*
X205221545Y-75414631D01*
X205051276Y-75474211D01*
X204898537Y-75570184D01*
X204770984Y-75697737D01*
X204675011Y-75850476D01*
X204615431Y-76020745D01*
X204615430Y-76020750D01*
X204595235Y-76199996D01*
X204595235Y-76200003D01*
X204615430Y-76379249D01*
X204615431Y-76379254D01*
X204675011Y-76549523D01*
X204700005Y-76589300D01*
X204768958Y-76699038D01*
X204770985Y-76702263D01*
X204773245Y-76705097D01*
X204774134Y-76707275D01*
X204774689Y-76708158D01*
X204774534Y-76708255D01*
X204799655Y-76769783D01*
X204800300Y-76782412D01*
X204800300Y-87183202D01*
X204780615Y-87250241D01*
X204763981Y-87270883D01*
X203847780Y-88187084D01*
X203786457Y-88220569D01*
X203716765Y-88215585D01*
X203660832Y-88173713D01*
X203636415Y-88108249D01*
X203636099Y-88099403D01*
X203636099Y-87570329D01*
X203636098Y-87570323D01*
X203635241Y-87562354D01*
X203629691Y-87510717D01*
X203589977Y-87404239D01*
X203579397Y-87375871D01*
X203579393Y-87375864D01*
X203493147Y-87260655D01*
X203493144Y-87260652D01*
X203377935Y-87174406D01*
X203377928Y-87174402D01*
X203246001Y-87125197D01*
X203190067Y-87083326D01*
X203165650Y-87017862D01*
X203180502Y-86949589D01*
X203201653Y-86921333D01*
X203323708Y-86799278D01*
X203459200Y-86605778D01*
X203559029Y-86391692D01*
X203559032Y-86391686D01*
X203616236Y-86178200D01*
X202718612Y-86178200D01*
X202751525Y-86121193D01*
X202785600Y-85994026D01*
X202785600Y-85862374D01*
X202751525Y-85735207D01*
X202718612Y-85678200D01*
X203616236Y-85678200D01*
X203616235Y-85678199D01*
X203559032Y-85464713D01*
X203559029Y-85464707D01*
X203459200Y-85250622D01*
X203459199Y-85250620D01*
X203323713Y-85057126D01*
X203323708Y-85057120D01*
X203156678Y-84890090D01*
X202971005Y-84760079D01*
X202927380Y-84705502D01*
X202920188Y-84636004D01*
X202951710Y-84573649D01*
X202971006Y-84556930D01*
X203157001Y-84426695D01*
X203324095Y-84259601D01*
X203459635Y-84066030D01*
X203559503Y-83851863D01*
X203620663Y-83623608D01*
X203641259Y-83388200D01*
X203620663Y-83152792D01*
X203559503Y-82924537D01*
X203459635Y-82710371D01*
X203324095Y-82516799D01*
X203324094Y-82516797D01*
X203157002Y-82349706D01*
X203156995Y-82349701D01*
X202963434Y-82214167D01*
X202963430Y-82214165D01*
X202848566Y-82160603D01*
X202749263Y-82114297D01*
X202749259Y-82114296D01*
X202749255Y-82114294D01*
X202521013Y-82053138D01*
X202521003Y-82053136D01*
X202285601Y-82032541D01*
X202285599Y-82032541D01*
X202050196Y-82053136D01*
X202050186Y-82053138D01*
X201821944Y-82114294D01*
X201821935Y-82114298D01*
X201607771Y-82214164D01*
X201607769Y-82214165D01*
X201414197Y-82349705D01*
X201247105Y-82516797D01*
X201111565Y-82710369D01*
X201111564Y-82710371D01*
X201011698Y-82924535D01*
X201011694Y-82924544D01*
X200950538Y-83152786D01*
X200950536Y-83152796D01*
X200929941Y-83388199D01*
X200929941Y-83388200D01*
X200950536Y-83623603D01*
X200950538Y-83623613D01*
X201011694Y-83851855D01*
X201011696Y-83851859D01*
X201011697Y-83851863D01*
X201111565Y-84066030D01*
X201111567Y-84066034D01*
X201247101Y-84259595D01*
X201247106Y-84259602D01*
X201414197Y-84426693D01*
X201414203Y-84426698D01*
X201600194Y-84556930D01*
X201643819Y-84611507D01*
X201651013Y-84681005D01*
X201619490Y-84743360D01*
X201600195Y-84760080D01*
X201414522Y-84890090D01*
X201414520Y-84890091D01*
X201247491Y-85057120D01*
X201247486Y-85057126D01*
X201112000Y-85250620D01*
X201111999Y-85250622D01*
X201012170Y-85464707D01*
X201012167Y-85464713D01*
X200954964Y-85678199D01*
X200954964Y-85678200D01*
X201852588Y-85678200D01*
X201819675Y-85735207D01*
X201785600Y-85862374D01*
X201785600Y-85994026D01*
X201819675Y-86121193D01*
X201852588Y-86178200D01*
X200954964Y-86178200D01*
X201012167Y-86391686D01*
X201012170Y-86391692D01*
X201111999Y-86605778D01*
X201247494Y-86799282D01*
X201369546Y-86921334D01*
X201403031Y-86982657D01*
X201398047Y-87052349D01*
X201356175Y-87108282D01*
X201325198Y-87125197D01*
X201193271Y-87174402D01*
X201193264Y-87174406D01*
X201078055Y-87260652D01*
X201064595Y-87278633D01*
X201008661Y-87320503D01*
X200938969Y-87325487D01*
X200877648Y-87292002D01*
X199128319Y-85542673D01*
X199094834Y-85481350D01*
X199092000Y-85454992D01*
X199092000Y-78047928D01*
X199067002Y-77922261D01*
X199067001Y-77922260D01*
X199067001Y-77922256D01*
X199017965Y-77803873D01*
X199010677Y-77792965D01*
X198946777Y-77697331D01*
X198946775Y-77697329D01*
X198946773Y-77697326D01*
X196907273Y-75657826D01*
X196907269Y-75657823D01*
X196800727Y-75586635D01*
X196682344Y-75537599D01*
X196682338Y-75537597D01*
X196556671Y-75512600D01*
X196556669Y-75512600D01*
X196216714Y-75512600D01*
X196169261Y-75503161D01*
X196136329Y-75489520D01*
X196136323Y-75489518D01*
X196000996Y-75462600D01*
X196000994Y-75462600D01*
X195863006Y-75462600D01*
X195863004Y-75462600D01*
X195727677Y-75489518D01*
X195727667Y-75489521D01*
X195600192Y-75542322D01*
X195485454Y-75618987D01*
X193269287Y-77835154D01*
X193192622Y-77949892D01*
X193139821Y-78077367D01*
X193139818Y-78077379D01*
X193116022Y-78197008D01*
X193116022Y-78197014D01*
X193112900Y-78212707D01*
X193112900Y-78212710D01*
X193112900Y-78466907D01*
X193093894Y-78532878D01*
X193087609Y-78542879D01*
X193051392Y-78646383D01*
X193022032Y-78693109D01*
X192395662Y-79319481D01*
X192334339Y-79352966D01*
X192307981Y-79355800D01*
X191972193Y-79355800D01*
X191905154Y-79336115D01*
X191859399Y-79283311D01*
X191855151Y-79272754D01*
X191844362Y-79241922D01*
X191795989Y-79103678D01*
X191700016Y-78950938D01*
X191572462Y-78823384D01*
X191419721Y-78727410D01*
X191272049Y-78675738D01*
X191249455Y-78667832D01*
X191249454Y-78667831D01*
X191249449Y-78667830D01*
X191162531Y-78658037D01*
X191098117Y-78630970D01*
X191088734Y-78622498D01*
X189713095Y-77246859D01*
X189679610Y-77185536D01*
X189684594Y-77115844D01*
X189695783Y-77093205D01*
X189696814Y-77091563D01*
X189696816Y-77091562D01*
X189772954Y-76970389D01*
X189792788Y-76938824D01*
X189807203Y-76897628D01*
X189852368Y-76768555D01*
X189852369Y-76768549D01*
X189872565Y-76589303D01*
X189872565Y-76589296D01*
X189852369Y-76410050D01*
X189852368Y-76410045D01*
X189792788Y-76239776D01*
X189707870Y-76104631D01*
X189696816Y-76087038D01*
X189569262Y-75959484D01*
X189416523Y-75863511D01*
X189246254Y-75803931D01*
X189246249Y-75803930D01*
X189067004Y-75783735D01*
X189066996Y-75783735D01*
X188887750Y-75803930D01*
X188887745Y-75803931D01*
X188717476Y-75863511D01*
X188564737Y-75959484D01*
X188437184Y-76087037D01*
X188341211Y-76239776D01*
X188281631Y-76410045D01*
X188281630Y-76410050D01*
X188261435Y-76589296D01*
X188261435Y-76589303D01*
X188281630Y-76768549D01*
X188281632Y-76768557D01*
X188326796Y-76897628D01*
X188330357Y-76967406D01*
X188295628Y-77028034D01*
X188233635Y-77060261D01*
X188195872Y-77061802D01*
X188114682Y-77052655D01*
X188114970Y-77050097D01*
X188059296Y-77033750D01*
X188013541Y-76980946D01*
X188009293Y-76970389D01*
X187967789Y-76851778D01*
X187915496Y-76768554D01*
X187871816Y-76699038D01*
X187744262Y-76571484D01*
X187591523Y-76475511D01*
X187421254Y-76415931D01*
X187421249Y-76415930D01*
X187242004Y-76395735D01*
X187241996Y-76395735D01*
X187062750Y-76415930D01*
X187062745Y-76415931D01*
X186892476Y-76475511D01*
X186739737Y-76571484D01*
X186612184Y-76699037D01*
X186516212Y-76851775D01*
X186516211Y-76851776D01*
X186479992Y-76955284D01*
X186450632Y-77002009D01*
X186246287Y-77206354D01*
X186169623Y-77321092D01*
X186116821Y-77448568D01*
X186116821Y-77448569D01*
X186116820Y-77448572D01*
X186102649Y-77519816D01*
X186102649Y-77519817D01*
X186089900Y-77583905D01*
X186089900Y-81386302D01*
X186070215Y-81453341D01*
X186017411Y-81499096D01*
X185948253Y-81509040D01*
X185884697Y-81480015D01*
X185878219Y-81473983D01*
X181275700Y-76871465D01*
X181242215Y-76810142D01*
X181240163Y-76797686D01*
X181230368Y-76710745D01*
X181170789Y-76540478D01*
X181074816Y-76387738D01*
X180947262Y-76260184D01*
X180851480Y-76200000D01*
X180794523Y-76164211D01*
X180624254Y-76104631D01*
X180624249Y-76104630D01*
X180445004Y-76084435D01*
X180444996Y-76084435D01*
X180265750Y-76104630D01*
X180265745Y-76104631D01*
X180095476Y-76164211D01*
X179942737Y-76260184D01*
X179815184Y-76387737D01*
X179719211Y-76540476D01*
X179659631Y-76710745D01*
X179659630Y-76710750D01*
X179639435Y-76889996D01*
X179639435Y-76890003D01*
X179659630Y-77069249D01*
X179659631Y-77069254D01*
X179719211Y-77239523D01*
X179723821Y-77246859D01*
X179815184Y-77392262D01*
X179942738Y-77519816D01*
X180095478Y-77615789D01*
X180265745Y-77675368D01*
X180352669Y-77685161D01*
X180417080Y-77712226D01*
X180426464Y-77720699D01*
X184723361Y-82017597D01*
X188984549Y-86278785D01*
X188984555Y-86278790D01*
X189431381Y-86725616D01*
X189464866Y-86786939D01*
X189467700Y-86813297D01*
X189467700Y-93770702D01*
X189448015Y-93837741D01*
X189431381Y-93858382D01*
X189378247Y-93911517D01*
X189327665Y-93962099D01*
X189266342Y-93995583D01*
X189253868Y-93997637D01*
X189166950Y-94007430D01*
X188996678Y-94067010D01*
X188843937Y-94162984D01*
X188716384Y-94290537D01*
X188620411Y-94443276D01*
X188560831Y-94613545D01*
X188560830Y-94613550D01*
X188540635Y-94792796D01*
X188540635Y-94792803D01*
X188560830Y-94972049D01*
X188560831Y-94972054D01*
X188620411Y-95142323D01*
X188716384Y-95295062D01*
X188843938Y-95422616D01*
X188934280Y-95479382D01*
X188984945Y-95511217D01*
X188996678Y-95518589D01*
X189077398Y-95546834D01*
X189166945Y-95578168D01*
X189166950Y-95578169D01*
X189346196Y-95598365D01*
X189346200Y-95598365D01*
X189346204Y-95598365D01*
X189525449Y-95578169D01*
X189525452Y-95578168D01*
X189525455Y-95578168D01*
X189695722Y-95518589D01*
X189848462Y-95422616D01*
X189976016Y-95295062D01*
X190071989Y-95142322D01*
X190131568Y-94972055D01*
X190141361Y-94885129D01*
X190168426Y-94820718D01*
X190176890Y-94811343D01*
X190436913Y-94551321D01*
X190436916Y-94551320D01*
X190548720Y-94439516D01*
X190598839Y-94352704D01*
X190627777Y-94302585D01*
X190668700Y-94149858D01*
X190668700Y-93991743D01*
X190668700Y-86434143D01*
X190666599Y-86426300D01*
X190627777Y-86281415D01*
X190575269Y-86190469D01*
X190548720Y-86144484D01*
X190436916Y-86032680D01*
X190436915Y-86032679D01*
X190432585Y-86028349D01*
X190432574Y-86028339D01*
X189833790Y-85429555D01*
X189833788Y-85429552D01*
X187331337Y-82927102D01*
X187297852Y-82865779D01*
X187302836Y-82796087D01*
X187331333Y-82751744D01*
X187420216Y-82662862D01*
X187516189Y-82510122D01*
X187575768Y-82339855D01*
X187595965Y-82160600D01*
X187590748Y-82114298D01*
X187575769Y-81981350D01*
X187575766Y-81981337D01*
X187516190Y-81811079D01*
X187509906Y-81801078D01*
X187490900Y-81735107D01*
X187490900Y-78632474D01*
X187510585Y-78565435D01*
X187563389Y-78519680D01*
X187632547Y-78509736D01*
X187680872Y-78527480D01*
X187772078Y-78584789D01*
X187875583Y-78621006D01*
X187922311Y-78650367D01*
X189774786Y-80502842D01*
X189872355Y-80600411D01*
X189872359Y-80600415D01*
X189987082Y-80677071D01*
X189987086Y-80677073D01*
X189987089Y-80677075D01*
X190061766Y-80708007D01*
X190061767Y-80708007D01*
X190061769Y-80708009D01*
X190114566Y-80729878D01*
X190114571Y-80729880D01*
X190114580Y-80729881D01*
X190114581Y-80729882D01*
X190141445Y-80735225D01*
X190141451Y-80735226D01*
X190141491Y-80735234D01*
X190231837Y-80753205D01*
X190249906Y-80756800D01*
X190249907Y-80756800D01*
X192718496Y-80756800D01*
X192826957Y-80735225D01*
X192853828Y-80729880D01*
X192917569Y-80703477D01*
X192981307Y-80677077D01*
X192981308Y-80677076D01*
X192981311Y-80677075D01*
X193096043Y-80600414D01*
X194012690Y-79683765D01*
X194059413Y-79654407D01*
X194162922Y-79618189D01*
X194315662Y-79522216D01*
X194443216Y-79394662D01*
X194539189Y-79241922D01*
X194598768Y-79071655D01*
X194605710Y-79010045D01*
X194618965Y-78892403D01*
X194618965Y-78892396D01*
X194598769Y-78713153D01*
X194598768Y-78713151D01*
X194598768Y-78713145D01*
X194565877Y-78619150D01*
X194562315Y-78549375D01*
X194595236Y-78490519D01*
X195528358Y-77557398D01*
X195589681Y-77523913D01*
X195659373Y-77528897D01*
X195703720Y-77557398D01*
X195763538Y-77617216D01*
X195916278Y-77713189D01*
X196086545Y-77772768D01*
X196173469Y-77782561D01*
X196237880Y-77809626D01*
X196247265Y-77818100D01*
X196685037Y-78255872D01*
X196718522Y-78317195D01*
X196713538Y-78386887D01*
X196671666Y-78442820D01*
X196638312Y-78460594D01*
X196629979Y-78463509D01*
X196477237Y-78559484D01*
X196349684Y-78687037D01*
X196253710Y-78839778D01*
X196194130Y-79010050D01*
X196184337Y-79096967D01*
X196157270Y-79161381D01*
X196148798Y-79170764D01*
X194082586Y-81236978D01*
X193970781Y-81348782D01*
X193970777Y-81348787D01*
X193921113Y-81434810D01*
X193921112Y-81434809D01*
X193891724Y-81485711D01*
X193891723Y-81485715D01*
X193850799Y-81638443D01*
X193850799Y-81638445D01*
X193850799Y-81806546D01*
X193850800Y-81806559D01*
X193850800Y-96322087D01*
X193831115Y-96389126D01*
X193823750Y-96399396D01*
X193821486Y-96402234D01*
X193725511Y-96554976D01*
X193665931Y-96725245D01*
X193665930Y-96725250D01*
X193645735Y-96904496D01*
X193645735Y-96904503D01*
X193665930Y-97083749D01*
X193665931Y-97083754D01*
X193680205Y-97124545D01*
X193683766Y-97194324D01*
X193649037Y-97254952D01*
X193587044Y-97287179D01*
X193563163Y-97289500D01*
X168448100Y-97289500D01*
X168381061Y-97269815D01*
X168335306Y-97217011D01*
X168324100Y-97165500D01*
X168324100Y-73414500D01*
X168343785Y-73347461D01*
X168396589Y-73301706D01*
X168448100Y-73290500D01*
X209199100Y-73290500D01*
X209266139Y-73310185D01*
G37*
G04 #@! TD.AperFunction*
G04 #@! TD*
M02*
